<svg xmlns="http://www.w3.org/2000/svg" xmlns:xlink="http://www.w3.org/1999/xlink" width="1161.56" height="378.06" viewBox="0 0 1161.56 378.06">
  <defs>
    <filter id="角丸長方形_1" x="0" y="0" width="1161.56" height="378.06" filterUnits="userSpaceOnUse">
      <feOffset dx="11.314" dy="11.314" input="SourceAlpha"/>
      <feGaussianBlur stdDeviation="5.5" result="blur"/>
      <feFlood flood-opacity="0.502"/>
      <feComposite operator="in" in2="blur"/>
      <feComposite in="SourceGraphic"/>
    </filter>
    <linearGradient id="linear-gradient" x1="0.5" x2="0.5" y2="1" gradientUnits="objectBoundingBox">
      <stop offset="0" stop-color="#b2b2b2"/>
      <stop offset="0.249" stop-color="#ccc"/>
      <stop offset="0.486" stop-color="#b2b2b2"/>
      <stop offset="0.497" stop-color="#999"/>
      <stop offset="1" stop-color="#999" stop-opacity="0.996"/>
    </linearGradient>
  </defs>
  <g id="グループ_1" data-name="グループ 1" transform="translate(-73.974 -404.374)">
    <g id="角丸長方形_1-2" data-name="角丸長方形 1" transform="translate(77 407)">
      <g transform="matrix(1, 0, 0, 1, -3.03, -2.63)" filter="url(#角丸長方形_1)">
        <g id="角丸長方形_1-3" data-name="角丸長方形 1" transform="translate(21.19 21.19)" fill="#f6c" stroke="#fff" stroke-linejoin="round" stroke-width="16">
          <rect width="1096.56" height="313.06" rx="156.52" stroke="none"/>
          <rect x="-8" y="-8" width="1112.56" height="329.06" rx="164.52" fill="none"/>
        </g>
      </g>
      <path id="Gradient_Overlay" data-name="Gradient Overlay" d="M174.68,18.56H958.2a156.52,156.52,0,0,1,156.52,156.52v.02A156.52,156.52,0,0,1,958.2,331.62H174.68A156.52,156.52,0,0,1,18.16,175.1v-.02A156.52,156.52,0,0,1,174.68,18.56Z" fill="url(#linear-gradient)"/>
    </g>
    <text id="プレイ予約" transform="translate(645.728 644.216)" fill="#fff" font-size="169.993" font-family="Keifont" letter-spacing="0.02em"><tspan x="-411.695" y="0">プレイ予約</tspan></text>
  </g>
</svg>
