<svg width="489" height="316" viewBox="0 0 489 316" fill="none" xmlns="http://www.w3.org/2000/svg">
<path d="M470.5 304.8C450.5 304.8 422.1 289.5 377.4 264.5C363.9 257 350 249.2 337.1 242.5C328.5 238.1 325.2 227.5 329.6 218.9C334 210.3 344.6 207 353.2 211.4C366.7 218.4 380.8 226.3 394.5 234C413.1 244.4 436.4 257.4 453 264.6V51.6C436.2 58.8 412.6 72 393.8 82.5C380.3 90 366.4 97.8 353.2 104.7C344.6 109.2 334.1 105.8 329.6 97.2C325.1 88.6 328.5 78.1 337.1 73.6C349.9 67 363.5 59.2999 376.8 51.8999C421.9 26.6999 450.5 11.2 470.6 11.2C480.3 11.2 488.1 19 488.1 28.7V287.3C488 297 480.2 304.8 470.5 304.8Z" fill="black"/>
<path d="M51.6 315.6C37.9 315.6 25 310.3 15.3 300.6C5.4 290.8 0 277.7 0 263.8V52.2C0 23.6 23.3 0.299988 51.9 0.299988H310.7C339.3 0.299988 362.6 23.6 362.6 52.2V263.7C362.6 292.3 339.3 315.6 310.7 315.6H51.9C51.8 315.6 51.7 315.6 51.6 315.6ZM51.9 35.3C42.6 35.3 35 42.9 35 52.2V263.8C35 268.3 36.8 272.6 40 275.7C43.2 278.9 47.4 280.6 51.9 280.6H310.8C320.1 280.6 327.7 273 327.7 263.7V52.2C327.7 42.9 320.1 35.3 310.8 35.3H51.9V35.3Z" fill="black"/>
<path d="M74.6 179.7C87.8 162.1 97.7 139.4 101.9 117.9H78.1V92.8H102.7V53.9H128V92.8H146.7V117.9H128V123C133.9 139.5 144.7 154.9 154.6 164.8L142.7 188.6C139 183.5 133.2 176.5 128 164.6V262H102.7V178.4C95.7 199.3 88.2 210.7 83.3 217.8L74.6 179.7ZM141.2 242.7C150.9 240.3 165.8 236.8 186.1 223.3H156.4V141.5H205.9V130.5H149.8V108.7H178.2V92.4H155.3V70.2H178.2V53.9H202.4V70.2H233.9V53.9H258.3V70.2H280.5V92.4H258.3V108.7H285.8V130.5H229.3V141.5H279.2V223.3H246.6C261.3 233 269.3 236.7 288.4 242.9L276.1 263.4C260.5 258.8 240.5 248.2 226.8 237.4L242 223.3H189.6L204.8 236.9C187.4 250.5 167 259.3 154 263.3L141.2 242.7ZM180.2 160.4V173.2H205.9V160.4H180.2ZM180.2 190.5V203.5H205.9V190.5H180.2ZM202.4 92.4V108.7H233.9V92.4H202.4ZM255.2 173.1V160.3H229.2V173.1H255.2ZM255.2 203.5V190.5H229.2V203.5H255.2Z" fill="black"/>
</svg>
