<svg xmlns="http://www.w3.org/2000/svg" xmlns:xlink="http://www.w3.org/1999/xlink" width="77" height="79" viewBox="0 0 77 79">
  <defs>
    <filter id="楕円形_1" x="0" y="0" width="77" height="79" filterUnits="userSpaceOnUse">
      <feOffset dx="1" dy="3" input="SourceAlpha"/>
      <feGaussianBlur result="blur"/>
      <feFlood flood-opacity="0.549"/>
      <feComposite operator="in" in2="blur"/>
      <feComposite in="SourceGraphic"/>
    </filter>
  </defs>
  <g id="グループ_1" data-name="グループ 1" transform="translate(-365 -543)">
    <g transform="matrix(1, 0, 0, 1, 365, 543)" filter="url(#楕円形_1)">
      <g id="楕円形_1-2" data-name="楕円形 1" fill="#ffea00" stroke="#fff" stroke-width="6">
        <circle cx="38" cy="38" r="38" stroke="none"/>
        <circle cx="38" cy="38" r="35" fill="none"/>
      </g>
    </g>
    <g id="icon_cheer" transform="matrix(0.899, 0.438, -0.438, 0.899, 392.807, 549.1)">
      <path id="パス_1" data-name="パス 1" d="M30.628,64.128c-7.06-5.476-13.489-7.04-14.341-3.49.03-.1.06-.211.09-.3q-5.1,14.035-10.2,28.07c-.852.341-1.715.682-2.577,1.023-.963.381-1.915.762-2.878,1.153a1.094,1.094,0,0,0-.682.8,1.616,1.616,0,0,0-.04.391.655.655,0,0,1,0,.14,1.508,1.508,0,0,0,.03.291,1.166,1.166,0,0,0,.04.181,2.467,2.467,0,0,0,.07.291,1.523,1.523,0,0,0,.06.2,2.814,2.814,0,0,0,.13.331.593.593,0,0,0,.06.14l.03.06a.451.451,0,0,0,.06.12,2.165,2.165,0,0,0,.17.341,1.2,1.2,0,0,0,.09.15,3.02,3.02,0,0,0,.2.341.747.747,0,0,1,.09.15c.07.12.16.241.241.371a.916.916,0,0,1,.08.13c.11.15.211.3.321.451.02.02.03.04.05.06.371.491.8.993,1.264,1.494a.1.1,0,0,0,.06.05c.331.351.682.692,1.053,1.033.03.03.06.05.09.08a16.246,16.246,0,0,0,1.274,1.063c3.4,2.638,6.5,3.39,6.91,1.685l1.534-5.606q13.373-6.649,26.737-13.3c-.01,0-.03.01-.04.01a2.23,2.23,0,0,0,1.244-1.575C42.712,76.914,37.688,69.614,30.628,64.128ZM8.855,91.135s-4.724,4.192-4.974,3.951c-2-1.956-1.855-2.617-1.855-2.617L7.311,89.9l9.447-21.361,3.009,4.122ZM38.761,78.83a1.212,1.212,0,0,1-.291.6c-1.093,1.2-5.285.06-10.43-3.951-6.077-4.754-9.628-10.39-9.126-12.686a1.353,1.353,0,0,1,.291-.6c1.093-1.2,5.285-.06,10.43,3.951C35.712,70.9,39.252,76.533,38.761,78.83Z" transform="translate(0 -52.846)"/>
      <path id="パス_2" data-name="パス 2" d="M363.411,91.119a2.924,2.924,0,0,0-.411-1.5l8.374-5.115a12.607,12.607,0,0,1,1.855,6.689Z" transform="translate(-326.596 -76.026)"/>
      <path id="パス_3" data-name="パス 3" d="M341.073,33.338a3.1,3.1,0,0,0-1.173-1.1l4.673-8.635a12.924,12.924,0,0,1,4.874,4.623Z" transform="translate(-305.812 -21.233)"/>
      <path id="パス_4" data-name="パス 4" d="M310.234,10.209a3.35,3.35,0,0,0-1.534-.391L308.77,0A13.159,13.159,0,0,1,314.9,1.575Z" transform="translate(-277.741)"/>
      <path id="パス_5" data-name="パス 5" d="M12.41,167.188,8.9,161.672l5.716-2.407L24.244,136.5l5.817,7.02L17.023,163.076Z" transform="translate(-8.007 -122.811)"/>
    </g>
  </g>
</svg>
