<svg width="408" height="426" viewBox="0 0 408 426" fill="none" xmlns="http://www.w3.org/2000/svg">
<path d="M152.7 108.6C160 98.2 168.2 87.8 176.9 78.2C195 58.3 210.8 46.4 222.9 40.3V178.7L257.9 213.7V188.6C267.8 192.2 274.8 201.7 274.8 212.9C274.8 218 273.3 222.7 270.8 226.7L295.8 251.7C304.5 241.2 309.8 227.7 309.8 212.9C309.8 182.4 287.2 157 257.9 152.7V17.8C257.9 8.09999 250.1 0.299988 240.4 0.299988C205.7 0.299988 169.5 34.4 151 54.8C142.7 64 134.8 73.7 127.6 83.6L152.7 108.6Z" fill="black"/>
<path d="M222.8 284.9V385.6C210.7 379.5 194.9 367.7 176.8 347.8C153 321.6 132.8 289.4 125.5 265.8C123.2 258.5 116.5 253.5 108.8 253.5H47.2V172.6H108.8C109.4 172.6 109.9 172.6 110.5 172.5L75.6 137.6H29.7C20 137.6 12.2 145.4 12.2 155.1V271C12.2 280.7 20 288.5 29.7 288.5H96.5C107.3 314.8 127.3 345.4 150.9 371.4C169.4 391.7 205.6 425.9 240.3 425.9C250 425.9 257.8 418.1 257.8 408.4V320L222.8 284.9Z" fill="black"/>
<path d="M389.6 416.1C385.1 416.1 380.6 414.4 377.2 411L6.00002 39.7C-0.799975 32.9 -0.799975 21.8 6.00002 15C12.8 8.19996 23.9 8.19996 30.7 15L402 386.3C408.8 393.1 408.8 404.2 402 411C398.6 414.4 394.1 416.1 389.6 416.1Z" fill="black"/>
</svg>
