<svg width="474" height="426" viewBox="0 0 474 426" fill="none" xmlns="http://www.w3.org/2000/svg">
<path d="M236.8 169.7C260.7 169.7 280.1 189.2 280.1 213C280.1 236.9 260.7 256.3 236.8 256.3" stroke="black" stroke-width="35" stroke-linecap="round" stroke-linejoin="round"/>
<path d="M280.2 126.9C327.8 126.9 366.3 165.5 366.3 213C366.3 260.5 327.8 299.1 280.2 299.1" stroke="black" stroke-width="35" stroke-linecap="round" stroke-linejoin="round"/>
<path d="M280.2 80.4C353.5 80.4 412.8 139.8 412.8 213C412.8 286.2 353.4 345.6 280.2 345.6" stroke="black" stroke-width="35" stroke-linecap="round" stroke-linejoin="round"/>
<path d="M280.2 36.8C377.5 36.8 456.5 115.7 456.5 213C456.5 310.4 377.6 389.2 280.2 389.2" stroke="black" stroke-width="35" stroke-linecap="round" stroke-linejoin="round"/>
<path d="M96.7 155.1H17.6V271H96.7C113.3 324.1 183.2 408.3 228.3 408.3V17.8C183.2 17.8 113.2 102 96.7 155.1Z" stroke="black" stroke-width="35" stroke-linecap="round" stroke-linejoin="round"/>
</svg>
