<svg width="316" height="489" viewBox="0 0 316 489" fill="none" xmlns="http://www.w3.org/2000/svg">
<path d="M226.9 161.4C224.2 161.4 221.4 160.8 218.9 159.4C210.3 155 207 144.4 211.4 135.8C218.4 122.3 226.3 108.2 234 94.5C244.4 75.9 257.4 52.6 264.6 36H51.6001C58.8001 52.8 72.0001 76.4 82.5001 95.2C90.0001 108.7 97.8001 122.6 104.7 135.8C109.2 144.4 105.8 154.9 97.2001 159.4C88.6001 163.9 78.1001 160.5 73.6001 151.9C67.0001 139.2 59.3001 125.5 51.9001 112.2C26.7001 67.1 11.2001 38.5 11.2001 18.4C11.2001 8.70002 19.0001 0.900024 28.7001 0.900024H287.3C297 0.900024 304.8 8.70002 304.8 18.4C304.8 38.4 289.5 66.8 264.5 111.5C257 125 249.2 138.9 242.5 151.8C239.3 158 233.2 161.4 226.9 161.4Z" fill="black"/>
<path d="M263.8 489H52.2C23.6 489 0.300049 465.7 0.300049 437.1V178.3C0.300049 149.7 23.6 126.4 52.2 126.4H263.7C292.3 126.4 315.6 149.7 315.6 178.3V437.1C315.7 450.9 310.3 463.9 300.6 473.7C290.8 483.6 277.7 489 263.8 489ZM52.2 161.4C42.9 161.4 35.3 169 35.3 178.3V437.1C35.3 446.4 42.9 454 52.2 454H263.8C268.3 454 272.6 452.2 275.7 449C278.9 445.8 280.6 441.6 280.6 437.1V178.3C280.6 169 273 161.4 263.7 161.4H52.2Z" fill="black"/>
<path d="M54.6 227.5H105.9C103 220.9 98.9 212.8 95.6 207.3L125.3 202.2C128.8 208.6 134.3 220.7 137 227.5H181.2C185.2 219.8 188.2 211 190.2 202.9L221.4 206C218.1 215 212.8 226.2 212.2 227.6H261.5V252.5H54.6V227.5ZM66.7 268.5H154.3V390.8C154.3 397 154.3 410.4 136.3 410.4H107.5L103.1 384.2H123.6C128.4 384.2 128.4 382.7 128.4 379.6V362H93.4V410.4H66.8L66.7 268.5ZM93.3 291.3V306H128.3V291.3H93.3ZM93.3 326.1V341.1H128.3V326.1H93.3ZM171.4 270.4H198.2V367.2H171.4V270.4ZM221.6 264.1H249.1V391.5C249.1 403.4 243.2 410.4 230.2 410.4H189.5L184.4 383.6H217.6C219.8 383.6 221.6 383.4 221.6 380.5V264.1Z" fill="black"/>
</svg>
