<svg width="158" height="30" viewBox="0 0 158 30" fill="none" xmlns="http://www.w3.org/2000/svg">
<path d="M4.3 29.1C2.3 29.1 0.599998 27.4 0.599998 25.4V4.60002C0.599998 2.60002 2.3 0.900024 4.3 0.900024H152.9C154.9 0.900024 156.6 2.60002 156.6 4.60002V25.3C156.6 27.3 154.9 29 152.9 29L4.3 29.1Z" fill="url(#paint0_linear)" stroke="#33B62C" stroke-miterlimit="10"/>
<path d="M152.9 27.2001H4.3C3.3 27.2001 2.4 26.4001 2.4 25.4001V4.70005C2.4 3.70005 3.2 2.90005 4.3 2.90005L152.9 2.80005C153.9 2.80005 154.8 3.60005 154.8 4.60005V25.4001C154.8 26.4001 153.9 27.2001 152.9 27.2001Z" fill="url(#paint1_linear)"/>
<path d="M18.8 11.5999C18.4 11.8999 18.2 11.9999 17.9 12.1999L17.1 11.1999C18.9 10.2999 19.4 9.39993 19.7 8.79993L20.9 9.09993C20.8 9.29993 20.7 9.49993 20.4 9.89993H28.3V10.9999H27.2V12.6999H28.6V13.7999H27.2V15.5999H28.3V16.6999H17.6V15.5999H18.8V13.7999H17.3V12.6999H18.8V11.5999ZM19.8 17.3999C19.3 18.9999 18.9 19.5999 18.3 20.1999L17.3 19.3999C17.7 18.9999 18.2 18.4999 18.7 17.0999L19.8 17.3999ZM20 10.9999V12.6999H21.3V10.9999H20ZM20 13.7999V15.5999H21.3V13.7999H20ZM22 17.2999C22.2 18.0999 22.2 19.4999 22.2 19.9999H20.9C20.9 19.6999 21 19.5999 21 18.5999C21 18.3999 21 17.8999 20.9 17.2999H22ZM22.4 10.9999V12.6999H23.7V10.9999H22.4ZM22.4 13.7999V15.5999H23.7V13.7999H22.4ZM24.4 17.0999C24.6 17.5999 25.1 18.8999 25.1 19.8999L23.9 19.9999C23.7 18.7999 23.7 18.3999 23.3 17.2999L24.4 17.0999ZM24.7 10.9999V12.6999H26V10.9999H24.7ZM24.7 13.7999V15.5999H26V13.7999H24.7ZM27 16.8999C28 18.2999 28.2 18.3999 28.7 19.3999L27.6 20.0999C27.3 19.4999 27.1 18.9999 26 17.3999L27 16.8999Z" fill="white"/>
<path d="M32.2 15.5999C31.5 17.0999 30.8 17.7999 30.4 18.1999L29.9 16.7999C30.3 16.2999 31.2 15.3999 32 13.6999H30V12.5999H32.1V8.79993H33.3V12.5999H35.2V13.6999H33.4C33.9 14.5999 34.3 15.1999 34.9 15.7999L34.2 16.9999C33.8 16.3999 33.6 16.0999 33.4 15.5999V20.0999H32.2V15.5999ZM31.1 9.49993C31.3 10.1999 31.6 11.1999 31.6 11.8999L30.5 12.1999C30.5 11.1999 30.2 10.2999 30 9.79993L31.1 9.49993ZM35.5 9.69993C35.4 10.2999 35.1 11.3999 34.8 12.1999L33.8 11.8999C33.9 11.5999 34.2 10.8999 34.4 9.49993L35.5 9.69993ZM39 15.4999V8.79993H40.3V15.1999L41.3 14.9999L41.4 16.1999L40.3 16.3999V19.9999H39V16.5999L34.9 17.4999L34.7 16.2999L39 15.4999ZM36.2 12.3999C37 12.7999 37.8 13.4999 38.3 14.0999L37.5 14.9999C36.9 14.2999 36.3 13.7999 35.5 13.2999L36.2 12.3999ZM36.5 9.39993C37.5 9.99993 38.1 10.4999 38.6 11.0999L37.8 11.9999C37.3 11.3999 36.7 10.7999 35.7 10.1999L36.5 9.39993Z" fill="white"/>
<path d="M45.3 12.5999C44.4 13.1999 43.8 13.3999 43.3 13.5999L42.6 12.4C44.5 11.7 46.8 10.3 47.8 8.69995H49.2C50.1 10.1 52 11.3999 54.4 12.2999L53.6 13.5C53.1 13.2 52.4 12.9 51.7 12.4V13.0999H45.3V12.5999V12.5999ZM52.4 20.2C52.3 19.9 52.2 19.8 51.9 19.4C50.3 19.6 47.6 19.7999 43.4 19.7999L43.2 18.5999C43.5 18.5999 44.5 18.5999 44.9 18.5999C45.2 17.9999 45.8 16.6999 46.1 15.7999H43V14.5999H53.8V15.7999H47.6C47.2 16.7999 46.7 17.7999 46.3 18.5999C48.5 18.5999 48.8 18.5 51.2 18.4C50.6 17.6 50.3 17.2 49.8 16.7L50.8 16.0999C51.2 16.4999 52.5 17.7999 53.6 19.5999L52.4 20.2ZM51 12.0999C49.7 11.1999 48.8 10.0999 48.5 9.79995C48 10.3999 47.4 11.0999 46 12.0999H51Z" fill="white"/>
<path d="M66.4 20.0999C65.7 19.9999 64.1 19.6999 62.5 18.7999L63.2 18H59L59.7 18.7999C58.6 19.3999 57.4 19.7999 56 20.0999L55.4 19C57 18.9 58.2 18.3999 58.8 18.0999H56.3V12.5999H65.8V18H63.2C63.7 18.3 65 18.8 66.8 18.9L66.4 20.0999ZM65.5 9.19995V11.9H56.7V9.19995H65.5ZM57.5 13.5V14.2H64.7V13.5H57.5ZM57.5 14.9V15.5999H64.7V14.9H57.5ZM57.5 16.4V17.0999H64.7V16.4H57.5ZM58 10.0999V11H64.4V10.0999H58Z" fill="white"/>
<path d="M71.1 12.6999C70.3 13.1999 69.6 13.5999 68.9 13.8999L68.3 12.8999C68.7 12.6999 69.2 12.4999 70 11.9999C69.4 11.3999 69.1 11.1999 68.8 10.9999L69.6 10.1999C70.5 10.6999 70.9 11.1999 71 11.2999C71.7 10.7999 71.9 10.4999 72.2 10.1999H69.5V9.09993H74.7C74.9 9.39993 75 9.69993 75.5 10.1999C75.6 10.0999 76.1 9.49993 76.7 8.79993L77.7 9.39993C77.5 9.69993 77.1 10.1999 76.3 10.8999C76.6 11.0999 76.9 11.2999 76.9 11.2999C77.4 10.7999 77.8 10.2999 78.2 9.79993L79.2 10.3999C78.8 10.8999 78.3 11.3999 77.9 11.8999C78.6 12.2999 79.1 12.4999 79.7 12.6999L78.9 13.9999C78.3 13.6999 77.5 13.1999 76.5 12.5999V13.2999H71V12.6999H71.1ZM78.2 14.0999V17.2999H77C76.8 17.8999 76.7 18.2999 76.6 18.6999H79.2V19.7999H68.4V18.6999H71.1C71.1 18.3999 71 17.9999 70.7 17.2999H69.4V14.0999H78.2ZM70.6 15.1999V16.2999H77V15.1999H70.6ZM76.1 12.1999C74.9 11.3999 74.3 10.5999 73.9 9.99993C73.6 10.4999 73 11.1999 71.8 12.1999H76.1ZM72.1 17.2999C72.3 17.7999 72.3 17.9999 72.5 18.6999H75.3C75.5 18.1999 75.7 17.4999 75.8 17.2999H72.1Z" fill="white"/>
<path d="M85.3 18.8999C84.2 19.2999 82.4 19.6999 81 19.8999L80.8 18.5999C81.2 18.5999 81.6 18.4999 82.8 18.2999V15.1999H81V14.0999H82.9V13.0999H81.8V12.2999C81.5 12.5999 81.4 12.6999 81.2 12.7999L80.8 11.4999C81.7 10.8999 82.5 9.79993 82.9 8.79993H84.2C84.6 9.49993 85.4 10.1999 86.1 10.5999L85.3 11.6999C84.8 11.2999 84 10.4999 83.6 9.89993C83.2 10.4999 82.8 11.0999 82.2 11.7999H85.2V12.8999H84V13.8999H85.7V14.9999H84V17.8999C84.9 17.6999 85.2 17.5999 85.6 17.3999V17.7999C86.4 17.2999 86.9 16.8999 87.6 16.2999L88 17.3999C87.4 17.8999 86.8 18.4999 85.6 19.1999L85.3 18.8999ZM82.1 15.8999C82.3 16.4999 82.4 17.4999 82.4 17.9999L81.4 18.1999C81.4 17.2999 81.3 16.6999 81.1 16.0999L82.1 15.8999ZM85.6 15.7999C85.6 16.2999 85.4 16.9999 85.3 17.3999L84.4 17.2999C84.6 16.4999 84.6 15.8999 84.6 15.5999L85.6 15.7999ZM91.4 9.19993V12.8999H92.2V13.9999H89.5V14.9999C89.9 15.8999 90.5 17.1999 92.5 18.5999L91.8 19.7999C90.5 18.7999 90 17.9999 89.6 16.9999V18.9999C89.6 19.8999 89 20.0999 88.6 20.0999H87.1L86.9 18.8999H88C88.3 18.8999 88.3 18.7999 88.3 18.5999V13.9999H85.6V12.8999H90.2V12.0999H86.4V11.0999H90.2V10.2999H86.2V9.19993H91.4ZM86.9 14.3999C87.2 14.8999 87.6 15.4999 87.7 15.9999L86.6 16.4999C86.4 16.0999 86.1 15.2999 85.8 14.8999L86.9 14.3999ZM92.1 14.8999C91.9 15.2999 91.4 15.9999 91.1 16.3999L90.2 15.7999C90.6 15.2999 90.8 14.9999 91.2 14.2999L92.1 14.8999Z" fill="white"/>
<path d="M96.5 9.4999C96.3 10.4999 96 12.1999 96 14.8999C96 16.3999 96.1 17.7999 96.4 19.2999L95 19.3999C94.7 17.9999 94.7 16.5999 94.7 14.8999C94.7 11.9999 95 10.0999 95.1 9.3999L96.5 9.4999ZM104.5 11.3999V12.6999H102.4V15.6999C103.3 16.0999 104.2 16.7999 104.8 17.3999L103.9 18.5999C103.4 17.8999 102.8 17.4999 102.3 17.1999V17.4999C102.3 18.6999 101.6 19.3999 99.9 19.3999C98 19.3999 97.3 18.2999 97.3 17.2999C97.3 15.9999 98.4 15.1999 100 15.1999C100.5 15.1999 100.8 15.2999 101.1 15.2999V12.6999H97.6V11.3999H101V9.4999H102.4V11.3999H104.5ZM101 16.4999C100.8 16.3999 100.4 16.2999 99.9 16.2999C99.2 16.2999 98.4 16.5999 98.4 17.2999C98.4 17.9999 99.1 18.2999 99.8 18.2999C100.9 18.2999 101 17.5999 101 17.0999V16.4999Z" fill="white"/>
<path d="M108.8 14.9C108.4 15.4 108.2 15.9 108.2 16.3C108.2 17.7 109.8 17.9 111.5 17.9C113.4 17.9 114.7 17.8 115.8 17.7V19.1C114.8 19.2 113.6 19.3 112 19.3C109.9 19.3 108.9 19.1 108.1 18.6C107.2 18.1 106.9 17.3 106.9 16.5C106.9 15.5 107.4 14.7 107.7 14.3L108.8 14.9ZM115.1 11.3C114 11.4 112.4 12 111.1 12.8L110.1 12.1C110.8 11.7 111.2 11.5 111.8 11.3C111.1 11.3 108.1 11.4 107.4 11.4V10C109.4 10 114.7 10 115.1 10V11.3Z" fill="white"/>
<path d="M127.5 10.6999V11.9999H121.4C121.3 12.4999 121.1 13.3999 120.9 13.9999C121.4 13.6999 122.4 13.1999 123.8 13.1999C126.5 13.1999 127.1 14.8999 127.1 16.1999C127.1 19.4999 123.3 19.5999 121.1 19.5999C120.3 19.5999 120 19.5999 119.6 19.5999L119.3 18.2999C119.8 18.3999 120.3 18.3999 121.4 18.3999C123.6 18.3999 125.6 18.1999 125.6 16.2999C125.6 14.9999 124.6 14.4999 123.5 14.4999C122.6 14.4999 121.4 14.6999 120.4 15.6999C120.3 15.9999 120.2 15.9999 120.2 16.1999L118.8 15.7999C119.4 14.4999 119.7 12.8999 119.9 11.9999H117.4V10.6999H120.1C120.1 10.1999 120.1 9.8999 120.2 9.3999H121.7C121.7 9.6999 121.6 10.2999 121.6 10.6999H127.5V10.6999Z" fill="white"/>
<path d="M131.9 11.2999C131.7 11.9999 131.6 12.7 131.6 14.4C132.8 13.5 134 13.0999 135.5 13.0999C138.3 13.0999 138.8 15 138.8 16C138.8 18.6 136.6 19.5 133.3 19.5C132.2 19.5 131.5 19.3999 131 19.2999L130.9 18C131.4 18.1 132.2 18.2 133.2 18.2C136.3 18.2 137.3 17.3 137.3 15.9C137.3 15.1 136.8 14.2999 135.3 14.2999C133.8 14.2999 132.3 14.9 131.5 15.9C131.5 16 131.5 16.1 131.5 16.2H130.2C130.2 13 130.3 12.5 130.5 11.2L131.9 11.2999ZM136.9 11.4C135.7 10.9 134.1 10.6 132 10.5L132.3 9.19995C135.2 9.29995 136.5 9.69995 137.3 9.99995L136.9 11.4Z" fill="white"/>
<defs>
<linearGradient id="paint0_linear" x1="78.6" y1="-0.568775" x2="78.6" y2="35.4985" gradientUnits="userSpaceOnUse">
<stop stop-color="#62C75F"/>
<stop offset="0.5" stop-color="#62B633"/>
<stop offset="1" stop-color="#33B62C"/>
</linearGradient>
<linearGradient id="paint1_linear" x1="78.6" y1="-18.23" x2="78.6" y2="26.0583" gradientUnits="userSpaceOnUse">
<stop stop-color="#62C75F"/>
<stop offset="0.5" stop-color="#62B633"/>
<stop offset="1" stop-color="#349F22"/>
</linearGradient>
</defs>
</svg>
