<svg width="158" height="30" viewBox="0 0 158 30" fill="none" xmlns="http://www.w3.org/2000/svg">
<path d="M4.30001 29.1C2.30001 29.1 0.600006 27.4 0.600006 25.4V4.60002C0.600006 2.60002 2.30001 0.900024 4.30001 0.900024H152.9C154.9 0.900024 156.6 2.60002 156.6 4.60002V25.3C156.6 27.3 154.9 29 152.9 29L4.30001 29.1Z" fill="url(#paint0_linear)" stroke="#B3B3B3" stroke-miterlimit="10"/>
<path d="M152.9 27.2001H47.8H39.7H4.30001C3.30001 27.2001 2.40001 26.4001 2.40001 25.4001V4.70005C2.40001 3.70005 3.20001 2.90005 4.30001 2.90005H39.7V2.80005H152.9C153.9 2.80005 154.8 3.60005 154.8 4.60005V25.4001C154.8 26.4001 153.9 27.2001 152.9 27.2001Z" fill="url(#paint1_linear)"/>
<path d="M44 20.2C42.2 19.4 41.5 18.7 41.1 18.3L42 17.7H39.8V19.5C39.8 19.8 39.5 20.3 38.8 20.3H37L36.7 19.1H38.2C38.4 19.1 38.5 19.1 38.5 18.8V17.6H36.1L37 18.2C36.3 18.9 34.9 19.7 34 20L33.3 19C35.1 18.3 35.6 17.8 35.9 17.5H34.6V15H43.4V17.7H42C42.7 18.2 43.4 18.7 44.7 19.3L44 20.2ZM43.7 9.5V13H39.6V13.5H44.6V14.5H33.5V13.5H38.5V13H34.5V9.5H43.7ZM42.5 10.4H35.7V11H42.5V10.4ZM42.5 11.6H35.7V12.1H42.5V11.6ZM42.3 15.9H35.8V16.8H42.3V15.9Z" fill="black"/>
<path d="M51.7 14.7V20.1H47V14.7H51.7ZM56.4 9.5V13.8H48.2V9.5H56.4ZM48.2 15.8V19H50.6V15.8H48.2ZM49.3 10.6V12.6H55.2V10.6H49.3ZM57.5 14.7V20.1H52.6V14.7H57.5ZM53.8 15.8V19H56.4V15.8H53.8Z" fill="black"/>
<path d="M59.9 14H71.1V15.3H59.9V14Z" fill="black"/>
<path d="M80.7 18.9C80.7 19 80.8 19.1 80.9 19.1H83C83.1 19.1 83.2 19.1 83.2 18.9C83.2 18.7 83.3 18.2 83.3 17.8L84.4 18.2C84.2 19.8 83.9 20.1 83.3 20.1H80.3C80 20.1 79.5 20.1 79.5 19.5V18.1H77.8C77.1 19.3 76.2 20 73.4 20.3L73 19.2C75.4 19.2 76.1 18.6 76.5 18.1H74.3V13.9H83.2V18.1H80.7V18.9V18.9ZM78.7 9.4V10.2H76.7V10.7H78.4V12.4H76.7V12.9H78.9V13.6H73.3V9.4H78.7ZM75.7 10.2H74.4V10.7H75.7V10.2ZM77.3 11.3H74.4V11.8H77.3V11.3ZM75.7 12.4H74.4V12.9H75.7V12.4ZM81.9 14.6H75.5V15.1H81.9V14.6ZM81.9 15.7H75.5V16.2H81.9V15.7ZM81.9 16.9H75.5V17.4H81.9V16.9ZM78.6 11.4C79.3 10.8 79.8 10.2 80.3 9L81.5 9.1C81.4 9.4 81.3 9.6 81.2 9.9H84.3V11H80.5C80.2 11.5 79.9 11.7 79.4 12.2L78.6 11.4ZM83.9 13.3H79.8V12.2H83.9V13.3Z" fill="black"/>
<path d="M95.8 10.7V11.9H90.6C90.4 12.6 90.2 12.9 89.9 13.4C90.6 13 91 12.8 91.7 12.8C92.7 12.8 93.3 13.2 93.6 14.1C94.2 13.9 95.5 13.3 96.5 13L96.8 14.3C95.1 14.7 93.9 15.2 93.8 15.2C93.9 15.7 93.9 16.3 93.9 16.5C93.9 16.9 93.9 17.1 93.9 17.4H92.6C92.7 16.6 92.7 16 92.6 15.7C91.3 16.3 90.5 16.9 90.5 17.6C90.5 18.6 91.7 18.6 93 18.6C93.3 18.6 94.7 18.6 96.1 18.4V19.7C95.3 19.7 94.3 19.8 93.3 19.8C91.9 19.8 89.1 19.8 89.1 17.8C89.1 16.1 91.3 15 92.3 14.6C92.2 14.2 92 13.9 91.4 13.9C90.7 13.9 89.9 14.4 89.2 15C89.2 15 87.7 16.9 87.4 17.2L86.5 16.2C87.9 14.9 88.6 13.6 89.2 11.9H86.9V10.7H89.6C89.7 10.3 89.8 9.90002 89.8 9.40002L91.2 9.50002C91.1 10 91.1 10.2 90.9 10.7H95.8V10.7Z" fill="black"/>
<path d="M106.3 18.7C106.3 19 106.5 19 106.6 19H108.4C109 19 109 19 109 17.2L110.2 17.6C110.2 19.8 109.8 20.2 108.9 20.2H106.1C105.2 20.2 105.1 19.6 105.1 19.2V16.8H103.7C103.5 18.3 102 19.9 99.6 20.4L99 19.1C101 18.9 102.1 18 102.5 16.8H100.2V9.5H109.2V16.8H106.4V18.7H106.3ZM107.9 10.6H101.4V11.6H107.9V10.6ZM107.9 12.6H101.4V13.6H107.9V12.6ZM107.9 14.7H101.4V15.8H107.9V14.7Z" fill="black"/>
<path d="M120.3 11C119.3 11.7 118.2 12.6 117.2 13.4C117.7 13.3 118.3 13.1 119 13.1C120.7 13.1 122.3 14 122.3 16.2C122.3 18.6 120.3 19.8 118 19.8C115.9 19.8 114.8 18.9 114.8 17.7C114.8 16.7 115.7 15.9 116.9 15.9C117.8 15.9 119.3 16.4 119.8 18.1C120.7 17.6 121 16.8 121 16.1C121 15.2 120.6 14.1 118.6 14.1C116.5 14.1 115.1 15.3 113.4 16.8L112.6 15.7C112.9 15.4 115.1 13.8 118.2 11C116.8 11.1 115.8 11.1 113.8 11.2V10C116.6 10 117.7 10 120.3 9.90002V11V11ZM116.8 17C116.2 17 115.9 17.4 115.9 17.7C115.9 18.2 116.5 18.7 117.8 18.7C118.1 18.7 118.4 18.6 118.7 18.6C118.3 17.7 117.8 17 116.8 17Z" fill="black"/>
<defs>
<linearGradient id="paint0_linear" x1="78.6" y1="-0.568775" x2="78.6" y2="35.4985" gradientUnits="userSpaceOnUse">
<stop stop-color="#EDEDED"/>
<stop offset="0.5" stop-color="#E9E9E9"/>
<stop offset="1" stop-color="#EAEAEA"/>
</linearGradient>
<linearGradient id="paint1_linear" x1="78.6" y1="-18.2299" x2="78.6" y2="26.0583" gradientUnits="userSpaceOnUse">
<stop stop-color="#EDEDED"/>
<stop offset="0.5" stop-color="#E9E9E9"/>
<stop offset="1" stop-color="#CCCCCC"/>
</linearGradient>
</defs>
</svg>
