<svg width="160" height="30" viewBox="0 0 160 30" fill="none" xmlns="http://www.w3.org/2000/svg">
<path d="M4.3 29.1C2.3 29.1 0.599998 27.4 0.599998 25.4V4.60002C0.599998 2.60002 2.3 0.900024 4.3 0.900024H152.9C154.9 0.900024 156.6 2.60002 156.6 4.60002V25.3C156.6 27.3 154.9 29 152.9 29L4.3 29.1Z" fill="url(#paint0_linear)" stroke="#E89220" stroke-miterlimit="10"/>
<path d="M152.9 27.2001H47.8H39.7H4.3C3.3 27.2001 2.4 26.4001 2.4 25.4001V4.70005C2.4 3.70005 3.2 2.90005 4.3 2.90005H39.7V2.80005H152.9C153.9 2.80005 154.8 3.60005 154.8 4.60005V25.4001C154.8 26.4001 153.9 27.2001 152.9 27.2001Z" fill="url(#paint1_linear)"/>
<path d="M15.9 18.3C17.1 17.2 17.5 15.6 17.7 14L19 14.1C18.9 15.4 18.5 17.5 17 19.2L15.9 18.3ZM23.9 11.6C23.5 11.1 23.5 10.7 23.5 10.6C23.5 9.70002 24.2 8.90002 25.2 8.90002C26.1 8.90002 26.9 9.60002 26.9 10.6C26.9 11.4 26.4 12 25.7 12.2V12.9H21.7V19.8H20.3V12.9H16.2V11.6H20.3V9.70002H21.7V11.6H23.9V11.6ZM24.3 14C24.5 15.5 24.9 16.9 26.1 18.4L25 19.2C23.9 17.9 23.5 16.6 23.1 14.1L24.3 14ZM24.3 10.6C24.3 11.1 24.7 11.5 25.2 11.5C25.7 11.5 26.1 11.1 26.1 10.6C26.1 10.1 25.7 9.70002 25.2 9.70002C24.7 9.70002 24.3 10.1 24.3 10.6Z" fill="white"/>
<path d="M33.9 19.8H32.5V14.5C30.5 15.7 29.3 16.3 28.1 16.7L27.4 15.5C30.8 14.5 33.7 12.3 36 9.59998L37.2 10.4C36.3 11.5 35.5 12.3 33.9 13.5V19.8V19.8Z" fill="white"/>
<path d="M42.9 13.3C42.1 12.8 41 12.1 39.2 11.5L39.8 10.3C41.8 10.9 43 11.6 43.6 12L42.9 13.3ZM39.4 18.1C44.2 17.8 46.6 15.5001 48 10.9001L49.2 11.7001C48.6 13.6001 46.8 19 39.7 19.5L39.4 18.1Z" fill="white"/>
<path d="M57.6 16.5C56.8 16 55.1 14.9 52.5 14V19.9H51V9.59998H52.5V12.6C55.2 13.5 57.2 14.6 58.3 15.1L57.6 16.5Z" fill="white"/>
<path d="M60.9 18.1C60.7 18.7 60.5 19.6 59.8 20.4L58.9 19.8C59.5 19 59.6 18.6 59.9 17.7L60.9 18.1ZM59.5 9.39998H62.6V17.5H59.5V9.39998ZM60.5 10.5V11.7H61.6V10.5H60.5ZM60.5 12.8V14H61.6V12.8H60.5ZM60.5 15.1V16.4H61.6V15.1H60.5ZM62.3 17.8C62.7 18.4 63 19 63.2 19.7L62.2 20.1C61.9 19.2 61.7 18.8 61.3 18.1L62.3 17.8ZM68.6 9.79998H70.1V10.7H68.6V11.3H69.7V12.2H68.6V12.9H70.4V13.8H67.2V14.3H69.7V17.3H70.4V18.2H69.7V19.2C69.7 20 69.3 20.3 68.6 20.3H67.2L67.1 19.1H68.3C68.6 19.1 68.6 18.9 68.6 18.8V18.2H64.7V20.3H63.6V18.2H63V17.3H63.6V14.3H66V13.8H62.9V12.9H64.6V12.2H63.5V11.3H64.6V10.7H63.2V9.79998H64.6V9.09998H65.7V9.79998H67.5V9.09998H68.6V9.79998V9.79998ZM64.7 15.2V15.9H66V15.2H64.7ZM64.7 16.7V17.4H66V16.7H64.7ZM65.7 10.7V11.3H67.5V10.7H65.7ZM65.7 12.2V12.9H67.5V12.2H65.7ZM67.2 15.2V15.9H68.6V15.2H67.2ZM67.2 16.7V17.4H68.6V16.7H67.2Z" fill="white"/>
<path d="M72.8 9.5H77.4C77.3 13.6 78.2 16.7 82.5 19L81.6 20.3C80 19.4 77.7 17.6 76.6 14.1C75.8 16.7 74.8 18.3 71.6 20.3L70.7 19.1C73.6 17.5 75.8 14.8 75.9 10.8H72.6V9.5H72.8Z" fill="white"/>
<path d="M87.1 20.4C85.1 17.9 85 15.5 85 14.7C85 13.9 85.1 11.6 87.1 9H88.2C86.9 10.6 86.1 12.6 86.1 14.7C86.1 16.8 86.9 18.8 88.2 20.4H87.1Z" fill="white"/>
<path d="M91.3 12.9C90.4 13.5 89.8 13.7 89.3 13.9L88.6 12.7C90.5 12 92.8 10.6 93.8 9H95.2C96.1 10.4 98 11.7 100.4 12.6L99.6 13.8C99.1 13.5 98.4 13.2 97.7 12.7V13.4H91.3V12.9ZM98.4 20.5C98.3 20.2 98.2 20.1 97.9 19.7C96.3 19.9 93.6 20.1 89.4 20.1L89.2 18.9C89.5 18.9 90.5 18.9 90.9 18.9C91.2 18.3 91.8 17 92.1 16.1H89V14.9H99.8V16H93.6C93.2 17 92.7 18 92.3 18.8C94.5 18.8 94.8 18.7 97.2 18.6C96.6 17.8 96.3 17.4 95.8 16.9L96.8 16.3C97.2 16.7 98.5 18 99.6 19.8L98.4 20.5ZM97 12.4C95.7 11.5 94.8 10.4 94.5 10.1C94 10.7 93.4 11.4 92 12.4H97Z" fill="white"/>
<path d="M111.7 20.4C111 20.3 109.4 20 107.8 19.1L108.5 18.3H104.4L105.1 19.1C104 19.7 102.8 20.1 101.4 20.4L100.8 19.2C102.4 19.1 103.6 18.6 104.2 18.3H101.7V12.8H111.2V18.3H108.6C109.1 18.6 110.4 19.1 112.2 19.2L111.7 20.4ZM110.9 9.5V12.2H102.1V9.5H110.9ZM102.9 13.7V14.4H110.1V13.7H102.9ZM102.9 15.2V15.9H110.1V15.2H102.9ZM102.9 16.7V17.4H110.1V16.7H102.9ZM103.3 10.4V11.3H109.7V10.4H103.3Z" fill="white"/>
<path d="M117.9 9.09998H119.1V9.99998H124.1V11H119.1V11.6H123.1V15.6H121.8V16.3H124.1V17.3H121.8V19.4C121.8 20.4 120.9 20.4 120.8 20.4H118.8L118.5 19.2H120.4C120.6 19.2 120.6 19.2 120.6 18.9V17.4H112.9V16.4H120.6V15.7H113.8V11.7H117.9V11H112.8V9.99998H117.9V9.09998V9.09998ZM116.6 20.1C115.9 19.2 114.9 18.4 114.7 18.2L115.6 17.4C116.1 17.7 117.2 18.6 117.7 19.3L116.6 20.1ZM117.9 12.5H115V13.2H117.9V12.5ZM117.9 14H115V14.7H117.9V14ZM121.9 12.5H119.1V13.2H121.9V12.5ZM121.9 14H119.1V14.7H121.9V14Z" fill="white"/>
<path d="M135.4 19.4001C135.4 19.7001 135.3 20.4001 134.4 20.4001H132.8L132.7 19.2001H133.9C134 19.2001 134.2 19.2001 134.2 18.9001V16.8H131.2V20.3H130V16.8H127.1C127 17.9 126.8 19.1001 125.8 20.4001L124.8 19.3C125.1 18.9 126 17.7 126 15.5V9.80005H135.4V19.4001ZM130 10.9001H127.2V12.7001H130V10.9001ZM130 13.8H127.2V15.6H130V13.8ZM134.2 10.9001H131.2V12.7001H134.2V10.9001ZM134.2 13.8H131.2V15.6H134.2V13.8Z" fill="white"/>
<path d="M136.7 20.4C138 18.8 138.8 16.8 138.8 14.7C138.8 12.6 138 10.6 136.7 9H137.8C139.7 11.4 139.9 13.8 139.9 14.7C139.9 15.6 139.7 18 137.8 20.4H136.7Z" fill="white"/>
<defs>
<linearGradient id="paint0_linear" x1="78.6" y1="-0.568775" x2="78.6" y2="35.4985" gradientUnits="userSpaceOnUse">
<stop stop-color="#EDC75F"/>
<stop offset="0.5" stop-color="#E9B633"/>
<stop offset="1" stop-color="#EA9A22"/>
</linearGradient>
<linearGradient id="paint1_linear" x1="78.6" y1="-18.2299" x2="78.6" y2="26.0583" gradientUnits="userSpaceOnUse">
<stop stop-color="#EDC75F"/>
<stop offset="0.5" stop-color="#E9B633"/>
<stop offset="1" stop-color="#EA9A22"/>
</linearGradient>
</defs>
</svg>
