<svg xmlns="http://www.w3.org/2000/svg" xmlns:xlink="http://www.w3.org/1999/xlink" width="168.2" height="65" viewBox="0 0 168.2 65">
  <defs>
    <linearGradient id="linear-gradient" x1="0.5" y1="4.662" x2="0.5" y2="3.662" gradientUnits="objectBoundingBox">
      <stop offset="0.5" stop-color="#ff8080"/>
      <stop offset="0.51" stop-color="#ffb3b3"/>
    </linearGradient>
  </defs>
  <g id="few" transform="translate(-1171 197)">
    <g id="グループ_1" data-name="グループ 1" transform="translate(1169.5 -249.5)">
      <path id="パス_1" data-name="パス 1" d="M169.7,117.5H34A32.5,32.5,0,0,1,1.5,85h0A32.5,32.5,0,0,1,34,52.5H169.7Z" fill="url(#linear-gradient)"/>
      <path id="パス_2" data-name="パス 2" d="M166.7,55.5v59H34.3A29.49,29.49,0,0,1,4.8,85h0A29.405,29.405,0,0,1,34.3,55.6l132.4-.1m3-3H34A32.5,32.5,0,0,0,1.5,85h0A32.5,32.5,0,0,0,34,117.5H169.7Z" fill="#9e1d1d"/>
    </g>
    <g id="グループ_2" data-name="グループ 2" transform="translate(1169.5 -249.5)">
      <path id="パス_3" data-name="パス 3" d="M16.6,73.5a1.87,1.87,0,0,1-2.1-2c0-1.5.5-2.2,2.2-2.2h7.9a1.9,1.9,0,0,1,2.2,2c0,1.5-.6,2.2-2.2,2.2H21.1c-.1.8-.2,1.4-.3,2.5h1.9a3.453,3.453,0,0,1,2.4.5,2.735,2.735,0,0,1,.8,2,43.736,43.736,0,0,1-1,7.5A20.078,20.078,0,0,1,20,95.2c-1.3,1.4-2,1.7-2.7,1.7a2.566,2.566,0,0,1-2.4-2.4c0-.8.5-1.2,1.1-1.7a12.183,12.183,0,0,0,4.1-5c-1.2-1.1-1.3-1.3-2.1-2-.4.6-.8,1.1-1.6,1.1a2.309,2.309,0,0,1-2.2-2.3,5.837,5.837,0,0,1,.6-1.9c.7-1.4,1.7-3.7,2.3-9.2Zm3.5,6.6c-.1.5-.3,1.1-.6,2.2.5.4,1.3.9,2,1.5.1-.8.4-2.7.4-3.2a.45.45,0,0,0-.5-.5Zm7.4,6.3c-1,.1-2-.2-2-1.8,0-.9,0-1.9,1.7-2l3.5-.3c0-.2-.1-1-.1-1.2l-2.4.2c-1.3.1-1.9-.5-1.9-1.8,0-1.4.8-1.7,1.7-1.7l2.4-.2V76.4l-2.7.2a1.686,1.686,0,0,1-2-1.9c0-1.6,1-1.8,1.8-1.9l2.8-.2v-2c0-1,0-2.2,2.2-2.2.8,0,2.2.1,2.2,1.6v2.2l3.1-.2a6.47,6.47,0,0,1-.8-.9c-.6-.6-.8-.8-.8-1.1a1.937,1.937,0,0,1,2.1-1.6c.4,0,.8,0,1.9.9.3.2,1.3,1,1.3,1.7a1.549,1.549,0,0,1-.2.8c1.1.1,1.5.8,1.5,1.9,0,1.3-.5,1.8-1.7,1.9l-6.1.5.1,1.2,5.7-.4c1.1-.1,2,.2,2,1.8,0,1.1-.3,1.7-1.7,1.8l-6.1.3c0,.6.1.8.1,1.2l6.1-.5c1-.1,1.9.2,1.9,1.7,0,1,0,1.9-1.7,2l-1.6.2a1.933,1.933,0,0,1,1.8,1.8c0,1.2-2.6,3.4-3.9,4.4.6.8.9,1,1.3,1s.5-.2.9-.9c.5-1,1-1.3,1.7-1.3a1.944,1.944,0,0,1,2,2,5.525,5.525,0,0,1-1.9,3.5,3.7,3.7,0,0,1-2.7,1c-2.7,0-4-1.9-4.9-3.1a37.439,37.439,0,0,1-4.6,2.1,7.749,7.749,0,0,1-2.3.6c-1.4,0-2-1.5-2-2.4,0-1.2.7-1.6,1.6-1.8a36.428,36.428,0,0,0,5.5-2A38.288,38.288,0,0,1,31.2,86Zm8.1-.6c.1.6.3,1.3.5,2.2.4-.4.6-.5,1.9-1.8a2.609,2.609,0,0,1,1-.7Z" fill="#9e1d1d"/>
      <path id="パス_4" data-name="パス 4" d="M55.6,71.1A8.125,8.125,0,0,1,60,69.8a7.207,7.207,0,0,1,6,3c1.9,2.7,2.4,6.4,2.4,9.7,0,7.3-2.4,10.9-7.3,12.6a23.141,23.141,0,0,1-7.6,1.2c-1.8,0-3.8,0-3.8-2.4a2.13,2.13,0,0,1,2.5-2.2h2.4c7-.4,8.7-3.6,8.7-9.1,0-3.6-.5-8.2-4-8.2-3.8,0-7.8,5.3-7.8,9.9,0,.5.1,2.3.1,2.7,0,.7,0,2.3-2.4,2.3A2.173,2.173,0,0,1,47,88a23.59,23.59,0,0,1-.4-4.4c0-6.1.5-11.4.9-12.7a2.13,2.13,0,0,1,2.4-1.7c.8,0,2.5.1,2.5,2,0,.2-.1.6-.1.9a16.608,16.608,0,0,0-.5,2.8A13.617,13.617,0,0,1,55.6,71.1Z" fill="#9e1d1d"/>
      <path id="パス_5" data-name="パス 5" d="M78.8,78.4l-3.4.2c-.5,0-2.7.1-2.7-2.2a2.1,2.1,0,0,1,2.4-2.2l3.7-.2a26.607,26.607,0,0,1,.2-3,2.008,2.008,0,0,1,2.3-1.7c1.5,0,2.4.6,2.4,2.2,0,.4,0,.7-.2,3.3a2.787,2.787,0,0,1-.1,1,11.336,11.336,0,0,1,6.8-2.3c4.1,0,9.1,2.2,9.1,9.4,0,2-.4,7.1-3.8,9.7A13.045,13.045,0,0,1,89.3,95a11.612,11.612,0,0,1-2.3.2,2.323,2.323,0,0,1-2.7-2.4c0-2,1.6-2.1,2.2-2.2.3,0,2.2-.2,2.5-.2a6.4,6.4,0,0,0,4.7-3.3,8.6,8.6,0,0,0,.8-3.4,7.06,7.06,0,0,0-1.2-4.2,4.918,4.918,0,0,0-3.8-1.6c-1.2,0-3.3.2-6.3,2.8-.1,2.9-.1,5.8-.1,8.7,0,.6.1,3.4.1,4,0,1,0,2.9-2.3,2.9a2.183,2.183,0,0,1-2.1-1,4.071,4.071,0,0,1-.3-2.2c0-2.1,0-4.3.1-6.4A28.362,28.362,0,0,1,76.5,90a2.335,2.335,0,0,1-1.6,1,2.523,2.523,0,0,1-2.5-2.4c0-.9.3-1.2,1.6-2.6a33.95,33.95,0,0,0,4.9-6.4Z" fill="#9e1d1d"/>
      <path id="パス_6" data-name="パス 6" d="M122.4,82.9a10.206,10.206,0,0,1,.7,3.8c0,5.3-3.2,8.2-8.8,9.1a26.114,26.114,0,0,1-4.6.4c-.6,0-2.7,0-2.7-2.3,0-2,1.4-2,2.9-2a15.659,15.659,0,0,0,6.2-1.1,3.6,3.6,0,0,0,2-2.4,6.232,6.232,0,0,1-4.5,1.4c-4.3,0-7.4-2.3-7.4-6,0-3.2,2.6-6,7.5-6a11.963,11.963,0,0,1,3.9.6V76.5c-3.6.1-7.5.1-10.1.1a22.915,22.915,0,0,1-3.9-.1c-.5-.1-1.3-.5-1.3-2,0-2.1,1.6-2.2,2.7-2.2h5.1c3.1,0,4.4-.1,7.4-.1v-.8a2.134,2.134,0,0,1,2.4-2.5c2.5,0,2.5,1.8,2.5,2.4v.8c.5,0,4.4-.1,4.5-.1,1,0,2.3.2,2.3,2.1,0,2-1.4,2.1-2.4,2.2-.3,0-2.8.1-4.4.1C122.4,76.4,122.4,82.9,122.4,82.9Zm-4.7,1c0-2.3-2.8-2.4-3.3-2.4-1.3,0-3.5.6-3.5,2.4,0,2.2,2.6,2.4,3.4,2.4C116,86.3,117.7,85.6,117.7,83.9Zm6.1-3.1a1.087,1.087,0,0,1-.1-.5c0-.9.9-1,1.2-1,.6,0,.9.5,1.3,1.3a8.11,8.11,0,0,1,.8,2.7,1.1,1.1,0,0,1-1.2,1.1.93.93,0,0,1-.9-.6c-.1-.2-.4-1.4-.5-1.6A8.428,8.428,0,0,1,123.8,80.8Zm3.1-1.5c0-.8.9-1,1.2-1,.7,0,.9.5,1.4,1.6a12.33,12.33,0,0,1,.7,2.4,1.006,1.006,0,0,1-1.1,1,.841.841,0,0,1-.9-.7c-.1-.2-.4-1.3-.5-1.4C127,79.7,126.9,79.5,126.9,79.3Z" fill="#9e1d1d"/>
      <path id="パス_7" data-name="パス 7" d="M139.5,70.7a1.9,1.9,0,0,1,2-1.5,4.085,4.085,0,0,1,1.8.4,1.626,1.626,0,0,1,.9,1.6,12.721,12.721,0,0,1-.6,3.3,9.51,9.51,0,0,1,4.4.5c3.1,1.3,3.6,5.6,3.6,8.6,0,8.6-1.7,12.4-6.7,12.4a10.388,10.388,0,0,1-4.6-1.1A1.945,1.945,0,0,1,139,93c0-.3.1-2.4,2-2.4a3.218,3.218,0,0,1,1.6.4,6.092,6.092,0,0,0,1.9.4c1.3,0,1.6-.6,2-2.5a29.746,29.746,0,0,0,.5-6c0-3.1-.5-4.3-3.3-4.3a4.1,4.1,0,0,0-1.1.1,88.226,88.226,0,0,1-4.9,14.2c-1.1,2.4-1.9,2.6-2.7,2.6-1.3,0-2.8-1.1-2.8-2.3,0-.8.3-1.2,1.1-2.7a53.683,53.683,0,0,0,4.4-11.4c-1.1.1-3.2.4-3.3.4a2.026,2.026,0,0,1-2.2-2.3c0-1.9,1.2-2.1,1.8-2.2.8-.1,1.7-.2,4.8-.4C138.8,74.1,139.4,71.1,139.5,70.7Zm10.9,4a1.733,1.733,0,0,1-.5-1.2,2.16,2.16,0,0,1,.8-1.6,2.331,2.331,0,0,1,1.4-.4c.5,0,1.3.1,2.8,1.5a13.827,13.827,0,0,1,3.6,6.6,26.811,26.811,0,0,1,.6,5.1c0,.6,0,2.5-2.7,2.5-1.9,0-2.1-1.2-2.2-2.1-.2-2.6-.5-6.8-2.7-9.1Z" fill="#9e1d1d"/>
    </g>
  </g>
</svg>
