<svg xmlns="http://www.w3.org/2000/svg" xmlns:xlink="http://www.w3.org/1999/xlink" width="114.2" height="65" viewBox="0 0 114.2 65">
  <defs>
    <linearGradient id="linear-gradient" x1="0.5" y1="1" x2="0.5" gradientUnits="objectBoundingBox">
      <stop offset="0.5" stop-color="#b29b28"/>
      <stop offset="0.51" stop-color="#ff0"/>
    </linearGradient>
  </defs>
  <g id="new" transform="translate(0 -17.5)">
    <g id="グループ_5" data-name="グループ 5">
      <path id="パス_14" data-name="パス 14" d="M114.2,82.5H0l20-33L0,17.5H114.2Z" fill="url(#linear-gradient)"/>
      <path id="パス_15" data-name="パス 15" d="M111.2,20.5v59H5.3L22.6,51l1-1.6-1-1.6L5.4,20.5H111.2m3-3H0l20,32L0,82.5H114.2v-65Z"/>
    </g>
    <g id="グループ_6" data-name="グループ 6">
      <path id="パス_16" data-name="パス 16" d="M35.2,42.5l-.2-.4V58.2c0,.9-.1,2.5-2.6,2.5-1.9,0-2.7-.8-2.7-2.4V37.6c0-1.3.5-2.6,4-2.6,2,0,3,.5,3.7,2.1l7.1,16.2.2.4V37.4c0-.8.1-2.4,2.6-2.4,1.9,0,2.6.8,2.6,2.4V58.1c0,1.3-.4,2.6-3.9,2.6-2,0-3-.5-3.7-2.1Z"/>
      <path id="パス_17" data-name="パス 17" d="M69.7,45.4c2.1,0,2.3,1.4,2.3,2.2,0,1-.3,2.2-2.3,2.2H60.6v4.8a.945.945,0,0,0,1,1h9.8a2.03,2.03,0,0,1,2.3,2.2,2.06,2.06,0,0,1-2.3,2.3H59.6c-2.9,0-4.3-1.1-4.3-4.3V39.9c0-3.2,1.4-4.3,4.3-4.3H70.7A2.021,2.021,0,0,1,73,37.8a2.051,2.051,0,0,1-2.3,2.3H61.6a.9.9,0,0,0-1,1v4.3Z"/>
      <path id="パス_18" data-name="パス 18" d="M86.2,58.1a2.878,2.878,0,0,1-3.1,2.6c-2,0-3.2-.3-3.8-3L75.5,38.1a2.769,2.769,0,0,1-.1-.9c0-1.5,1.3-2.3,2.8-2.3a2.266,2.266,0,0,1,2.3,1.8L83,52.4c0,.1.1.5.3.5s.3-.4.3-.5l3.1-15.1a2.478,2.478,0,0,1,2.8-2.4c2.6,0,2.9,1.3,3.2,2.4l3.1,15.1c0,.1.1.5.3.5.1,0,.3-.4.3-.5L99,36.8a2.238,2.238,0,0,1,2.4-1.8c1.3,0,2.7.8,2.7,2.2a3.4,3.4,0,0,1-.1,1l-3.8,19.6c-.5,2.6-1.8,3-3.6,3a2.906,2.906,0,0,1-3.2-2.6L90,40.8s-.1-.2-.2-.2-.2.2-.2.2Z"/>
    </g>
  </g>
</svg>
