<svg xmlns="http://www.w3.org/2000/svg" xmlns:xlink="http://www.w3.org/1999/xlink" width="150.2" height="65" viewBox="0 0 150.2 65">
  <defs>
    <linearGradient id="linear-gradient" x1="0.5" y1="-4.708" x2="0.5" y2="-3.708" gradientUnits="objectBoundingBox">
      <stop offset="0.5" stop-color="#ff7cc7"/>
      <stop offset="0.51" stop-color="#ffc5d9"/>
    </linearGradient>
  </defs>
  <g id="recom" transform="translate(-0.1 -42.5)">
    <g id="グループ_3" data-name="グループ 3">
      <path id="パス_8" data-name="パス 8" d="M150.3,107.5H.1l20-33-20-32H150.3Z" fill="url(#linear-gradient)"/>
      <path id="パス_9" data-name="パス 9" d="M147.3,45.5v59H5.4L22.7,76l1-1.6-1-1.6L5.5,45.5H147.3m3-3H.1l20,32-20,33H150.3v-65Z" fill="#992e76"/>
    </g>
    <g id="グループ_4" data-name="グループ 4">
      <path id="パス_10" data-name="パス 10" d="M31.3,68.7c-.9,0-2.4-.1-2.4-2.2,0-2,1.2-2.3,2.4-2.3H43.1V61.5c0-1,.3-2.2,2.3-2.2,1.6,0,2.4.6,2.4,2.2v2.7h4.8c.9,0,2.4.1,2.4,2.2,0,2-1.3,2.3-2.4,2.3H47.8V81.6c0,4.3-3.1,4.3-5.2,4.3-3.4,0-5.1,0-5.1-2.6,0-1.9,1.1-2.2,2.1-2.2.3,0,1.6.1,1.9.1,1,0,1.6-.1,1.6-1.1V72.7A33.392,33.392,0,0,1,37,79c-1.6,1.3-4.4,3.5-5.9,3.5a2.5,2.5,0,0,1-2.3-2.6c0-1,.8-1.5,1.9-2.1a38.4,38.4,0,0,0,7.8-5.9,34.268,34.268,0,0,0,2.8-3.1h-10Z" fill="#992e76"/>
      <path id="パス_11" data-name="パス 11" d="M61.3,65.2a2.3,2.3,0,1,1,0-4.6H75.9c1.3,0,3.5.2,3.5,2.8,0,2-1.9,6.4-4.7,10.4a65.013,65.013,0,0,1,7.2,5.9c1.3,1.2,1.8,1.8,1.8,2.9a2.843,2.843,0,0,1-2.8,2.7c-1.1,0-1.6-.7-2.5-1.6a77.333,77.333,0,0,0-6.6-6.5c-5.1,5.4-10,8.2-11.6,8.2a2.61,2.61,0,0,1-2.3-2.6c0-1.1.4-1.4,2.4-2.4,9.6-5.2,13.2-14.1,13.2-14.8,0-.4-.5-.4-.7-.4Z" fill="#992e76"/>
      <path id="パス_12" data-name="パス 12" d="M90.2,65.2a2.3,2.3,0,1,1,0-4.6h14.6c1.3,0,3.5.2,3.5,2.8,0,2-1.9,6.4-4.7,10.4a65.013,65.013,0,0,1,7.2,5.9c1.3,1.2,1.8,1.8,1.8,2.9a2.843,2.843,0,0,1-2.8,2.7c-1.1,0-1.6-.7-2.5-1.6a77.333,77.333,0,0,0-6.6-6.5c-5.1,5.4-10,8.2-11.6,8.2a2.61,2.61,0,0,1-2.3-2.6c0-1.1.5-1.4,2.4-2.4,9.6-5.2,13.2-14.1,13.2-14.8,0-.4-.5-.4-.7-.4Z" fill="#992e76"/>
      <path id="パス_13" data-name="パス 13" d="M120.2,68c-1-.6-1.7-1.1-1.7-2.1a2.579,2.579,0,0,1,2.3-2.5,5.377,5.377,0,0,1,2.9,1.3c2.5,1.6,5,3.3,6,4a41.252,41.252,0,0,0,2.9-7c.4-1.2.8-2.2,2.3-2.2,1.1,0,2.9.5,2.9,2.1,0,1.1-2,6.2-4.2,10a36.315,36.315,0,0,1,5.5,5,2.607,2.607,0,0,1,.9,1.8,2.951,2.951,0,0,1-2.8,2.9,2.56,2.56,0,0,1-2-1,51.177,51.177,0,0,0-4.5-4.4,38.7,38.7,0,0,1-10,9.1,5.546,5.546,0,0,1-2.9,1.1,2.8,2.8,0,0,1-2.5-2.7c0-1,.3-1.2,2.6-2.5a26.946,26.946,0,0,0,9.2-8A57.148,57.148,0,0,0,120.2,68Z" fill="#992e76"/>
    </g>
  </g>
</svg>
