<?xml version="1.0" encoding="utf-8"?>
<!-- Generator: Adobe Illustrator 24.2.0, SVG Export Plug-In . SVG Version: 6.00 Build 0)  -->
<svg version="1.1" id="_x32_" xmlns="http://www.w3.org/2000/svg" xmlns:xlink="http://www.w3.org/1999/xlink" x="0px" y="0px"
	 viewBox="0 0 512 512" style="enable-background:new 0 0 512 512;" xml:space="preserve">
<style type="text/css">
	.st0{fill:#FFABC3;}
	.st1{fill:#E24444;}
</style>
<polygon class="st0" points="338.5,327 82.3,327 22.3,109.6 388.5,109.6 "/>
<g>
	<path class="st1" d="M426.1,0c-9.3,0-17.5,6.3-19.8,15.4L386,93.9H28.8c-6.4,0-12.5,3-16.4,8.2c-3.9,5.1-5.1,11.8-3.3,18
		l58.8,204.1C70.4,333,78.5,339,87.6,339h235.1l-8.9,34.3H89.4v26.1H320c9.3,0,18.5-6.3,20.8-15.4l92.4-358h70.5V0H426.1z
		 M349.9,228.7l-17.9,84.2h-50.1v-84.2L349.9,228.7L349.9,228.7z M376.7,120.1l-17.4,82.5h-77.3v-82.5H376.7z M255.8,228.7v84.2
		h-87.1v-84.2L255.8,228.7L255.8,228.7z M255.8,120.1v82.5h-87.1v-82.5H255.8z M148.4,120.1v82.5H59l-19.4-82.5H148.4z M148.4,233.7
		v79.2h-59l-20-84.2h78.9V233.7z"/>
	<path class="st1" d="M123.9,426.7c-20.2,0-36.6,16.4-36.6,36.6c0,20.2,16.4,36.6,36.6,36.6c20.2,0,36.6-16.4,36.6-36.6
		C160.5,443.1,144.1,426.7,123.9,426.7z"/>
	<path class="st1" d="M299.7,428.7c-20.2,0-36.6,16.4-36.6,36.6c0,20.2,16.4,36.6,36.6,36.6c20.2,0,36.6-16.4,36.6-36.6
		C336.3,445.1,319.9,428.7,299.7,428.7z"/>
</g>
</svg>
