<?xml version="1.0" encoding="utf-8"?>
<!-- Generator: Adobe Illustrator 24.2.0, SVG Export Plug-In . SVG Version: 6.00 Build 0)  -->
<svg version="1.1" id="_x32_" xmlns="http://www.w3.org/2000/svg" xmlns:xlink="http://www.w3.org/1999/xlink" x="0px" y="0px"
	 viewBox="0 0 512 512" style="enable-background:new 0 0 512 512;" xml:space="preserve">
<g>
	<path d="M209.7,318.4c0,1.8,1.1,3.5,2.8,4.3s3.6,0.5,5-0.7l78-66l-78-66c-1.4-1.2-3.4-1.5-5-0.7c-1.7,0.8-2.8,2.5-2.8,4.3V227H28.1
		c-5.1,0-9.3,4.2-9.3,9.3v39.5c0,5.1,4.2,9.3,9.3,9.3h181.6L209.7,318.4L209.7,318.4z"/>
</g>
<path d="M114.8,321.2v144.2c0,11.2,9.1,20.4,20.4,20.4h311.3c11.2,0,20.4-9.2,20.4-20.4V193.6l-0.1,0.1V46.6
	c0-11.3-9.2-20.4-20.4-20.4H317.3h-53H135.2c-11.2,0-20.4,9.1-20.4,20.4v147.3H88.6V46.5C88.6,20.8,109.5,0,135.2,0h122.3h66.6
	h122.3C472.1,0,493,20.8,493,46.5v121l-2,2l2-0.5v296.5c0,25.7-20.9,46.6-46.6,46.6H135.2c-25.7,0-46.6-20.9-46.6-46.6V321.2H114.8z
	"/>
</svg>
