<?xml version="1.0" encoding="utf-8"?>
<!-- Generator: Adobe Illustrator 24.2.0, SVG Export Plug-In . SVG Version: 6.00 Build 0)  -->
<svg version="1.1" id="_x32_" xmlns="http://www.w3.org/2000/svg" xmlns:xlink="http://www.w3.org/1999/xlink" x="0px" y="0px"
	 viewBox="0 0 512 512" style="enable-background:new 0 0 512 512;" xml:space="preserve">
<g>
	<path d="M407.2,318.5c0,1.8,1.1,3.5,2.8,4.3c1.7,0.8,3.6,0.5,5-0.7l78-66l-78-66c-1.4-1.2-3.4-1.5-5-0.7c-1.7,0.8-2.8,2.5-2.8,4.3
		v33.4H225.6c-5.1,0-9.3,4.2-9.3,9.3v39.5c0,5.1,4.2,9.3,9.3,9.3h181.6V318.5L407.2,318.5z"/>
</g>
<path d="M397,160.9V46.7c0-11.2-9.1-20.4-20.4-20.4H65.3c-11.2,0-20.4,9.2-20.4,20.4v271.8l0.1-0.1v147.1c0,11.3,9.2,20.4,20.4,20.4
	h129.1h53h129.1c11.2,0,20.4-9.1,20.4-20.4V348.2h26.2v117.4c0,25.7-20.9,46.5-46.6,46.5H254.3h-66.6H65.4
	c-25.7,0-46.6-20.8-46.6-46.5v-121l2-2l-2,0.5V46.6C18.8,20.9,39.7,0,65.4,0h311.2c25.7,0,46.6,20.9,46.6,46.6v114.3H397z"/>
</svg>
