<?xml version="1.0" encoding="utf-8"?>
<!-- Generator: Adobe Illustrator 24.2.0, SVG Export Plug-In . SVG Version: 6.00 Build 0)  -->
<svg version="1.1" id="レイヤー_1" xmlns="http://www.w3.org/2000/svg" xmlns:xlink="http://www.w3.org/1999/xlink" x="0px"
	 y="0px" viewBox="0 0 100 100" style="enable-background:new 0 0 100 100;" xml:space="preserve">
<style type="text/css">
	.st0{fill:#FFEA80;}
	.st1{fill:#FF8C19;}
	.st2{enable-background:new    ;}
</style>
<g>
	<circle class="st0" cx="50" cy="50" r="47.5"/>
	<path class="st1" d="M50,100C22.4,100,0,77.6,0,50S22.4,0,50,0s50,22.4,50,50S77.6,100,50,100z M50,5C25.2,5,5,25.2,5,50
		s20.2,45,45,45s45-20.2,45-45S74.8,5,50,5z"/>
</g>
<g class="st2">
	<path class="st1" d="M52.3,21c13.8,0,20.4,5.9,20.4,16.4c0,10.3-7.3,16.8-21,16.8H39.6v22.3c0,1.9-1.5,3.4-3.4,3.4l0,0
		c-1.9,0-3.4-1.5-3.4-3.4V24.4c0-1.9,1.5-3.4,3.4-3.4H52.3z M39.6,48.8h11.8c9.7,0,14.1-4.2,14.1-11.3c0-7-4-10.9-13.6-10.9H39.6
		V48.8z"/>
</g>
</svg>
