<?xml version="1.0" encoding="utf-8"?>
<!-- Generator: Adobe Illustrator 24.2.0, SVG Export Plug-In . SVG Version: 6.00 Build 0)  -->
<svg version="1.1" id="レイヤー_1" xmlns="http://www.w3.org/2000/svg" xmlns:xlink="http://www.w3.org/1999/xlink" x="0px"
	 y="0px" viewBox="0 0 1000 500" style="enable-background:new 0 0 1000 500;" xml:space="preserve">
<style type="text/css">
	.st0{fill:url(#SVGID_1_);stroke:#E89220;stroke-miterlimit:10;}
	.st1{fill:url(#SVGID_2_);}
	.st2{fill:url(#SVGID_3_);}
	.st3{fill:url(#SVGID_4_);}
	.st4{fill:#FFFFFF;}
	.st5{fill:#D6982B;}
	.st6{enable-background:new    ;}
</style>
<g>
	
		<linearGradient id="SVGID_1_" gradientUnits="userSpaceOnUse" x1="499.9" y1="389.1246" x2="499.9" y2="71.4566" gradientTransform="matrix(1 0 0 -1 0 502)">
		<stop  offset="0" style="stop-color:#EDC75F"/>
		<stop  offset="0.5" style="stop-color:#E9B633"/>
		<stop  offset="1" style="stop-color:#EA9A22"/>
	</linearGradient>
	<path class="st0" d="M48.1,374.2c-12.7,0-23.4-10.8-23.4-23.4V149.3c0-12.7,10.8-23.4,23.4-23.4h903.5c12.7,0,23.4,10.8,23.4,23.4
		v200.9c0,12.7-10.8,23.4-23.4,23.4H48.1V374.2z"/>
	
		<linearGradient id="SVGID_2_" gradientUnits="userSpaceOnUse" x1="153.3153" y1="557.4672" x2="153.3153" y2="150.3474" gradientTransform="matrix(1 0 0 -1 0 502)">
		<stop  offset="0" style="stop-color:#EAA553"/>
		<stop  offset="0.5" style="stop-color:#E8932A"/>
		<stop  offset="1" style="stop-color:#E37B21"/>
	</linearGradient>
	<path class="st1" d="M53.2,137.9c-6.3,0-12,5.1-12,11.4v200.9c0,6.3,5.1,11.4,12,11.4h212.3V137.9H53.2z"/>
	
		<linearGradient id="SVGID_3_" gradientUnits="userSpaceOnUse" x1="148.2464" y1="557.4672" x2="148.2464" y2="150.3474" gradientTransform="matrix(1 0 0 -1 0 502)">
		<stop  offset="0" style="stop-color:#EA9A22"/>
		<stop  offset="0.5" style="stop-color:#E9B633"/>
		<stop  offset="1" style="stop-color:#EDC75F"/>
	</linearGradient>
	<path class="st2" d="M48.1,137.9c-6.3,0-12,5.1-12,11.4v200.9c0,6.3,5.1,11.4,12,11.4h212.3V137.9H48.1z"/>
	
		<linearGradient id="SVGID_4_" gradientUnits="userSpaceOnUse" x1="618.0682" y1="557.4672" x2="618.0682" y2="150.3474" gradientTransform="matrix(1 0 0 -1 0 502)">
		<stop  offset="0" style="stop-color:#EA9A22"/>
		<stop  offset="0.5" style="stop-color:#E9B633"/>
		<stop  offset="1" style="stop-color:#EDC75F"/>
	</linearGradient>
	<path class="st3" d="M951.7,137.9H272.4v224.3h679.2c6.3,0,12-5.1,12-11.4V149.3C963.7,142.9,958,137.9,951.7,137.9z"/>
	<g>
		<g>
			<g>
				<path class="st4" d="M333.9,294.4c-1.3,0-2.5-1.3-2.5-2.5v-51.3h-29.1c-1.3,0-2.5-1.3-2.5-2.5v-12c0-1.3,1.3-2.5,2.5-2.5h29.1
					v-12.7c0-1.3,1.3-2.5,2.5-2.5h12.7c1.3,0,2.5,1.3,2.5,2.5v12.7h10.8c-0.6-1.9-1.3-3.8-1.3-5.7c0-8.2,7-15.2,15.2-15.2
					s15.2,7,15.2,15.2c0,6.3-3.8,12-9.5,13.9v5.7c0,1.3-1.3,2.5-2.5,2.5h-28.5v51.3c0,1.3-1.3,2.5-2.5,2.5h-12V294.4z M373.8,213.3
					c-2.5,0-4.4,1.9-4.4,4.4c0,2.5,1.9,4.4,4.4,4.4s4.4-1.9,4.4-4.4C378.2,215.2,376.3,213.3,373.8,213.3z M370.6,289.9
					c-0.6,0-1.3,0-1.9-0.6c-8.9-10.1-12.7-21.5-15.8-41.2c0-0.6,0-1.3,0.6-1.9c0.6-0.6,1.3-0.6,1.3-0.6s11.4-1.3,12-1.3
					c1.3,0,1.9,0.6,2.5,1.9c1.9,12,4.4,20.9,13.3,32.9c0.6,0.6,0.6,1.3,0.6,1.9s-0.6,1.3-0.6,1.9l-10.1,8.2
					C371.9,289.9,371.3,289.9,370.6,289.9z M309.2,289.9c-0.6,0-1.3,0-1.3-0.6l-10.1-8.9c-0.6-0.6-0.6-1.3-0.6-1.9
					c0-0.6,0-1.3,0.6-1.9c10.1-9.5,12.7-23.4,13.3-31c0-0.6,0.6-1.3,0.6-1.9c0.6-0.6,1.3-0.6,1.3-0.6l12,1.3c1.3,0,2.5,1.3,1.9,2.5
					c-1.9,17.7-7,31.7-16.5,41.8C310.5,289.9,309.8,289.9,309.2,289.9z"/>
				<path class="st5" d="M373.8,205c7,0,13.3,5.7,13.3,13.3c0,5.7-3.8,10.8-9.5,12.7v7.6h-31v53.9h-12.7v-53.9h-31.7v-12h31.7V212
					h12.7v14.6h17.7c-1.9-2.5-3.2-5.7-3.2-8.2C361.1,210.7,366.8,205,373.8,205 M373.8,224.7c3.8,0,7-3.2,7-7s-3.2-7-7-7
					c-3.8,0-7,3.2-7,7C367.5,221.5,370.6,224.7,373.8,224.7 M366.8,246.2c1.9,12,4.4,21.5,13.9,33.6l-10.1,8.2
					c-8.9-10.1-12.7-20.9-15.2-40.6L366.8,246.2 M313,246.2l12,1.3c-1.3,13.3-5.1,29.1-15.8,40.6l-10.1-8.9
					C308.5,269.6,312.4,256.3,313,246.2 M373.8,199.9c-9.5,0-17.7,8.2-17.7,17.7c0,1.3,0,2.5,0.6,3.8h-5.1v-10.1
					c0-2.5-1.9-5.1-5.1-5.1h-12.7c-2.5,0-5.1,1.9-5.1,5.1v10.1h-26.6c-2.5,0-5.1,1.9-5.1,5.1v12c0,2.5,1.9,5.1,5.1,5.1h7.6
					c-0.6,0.6-1.3,1.9-1.3,3.2c-0.6,7-2.5,20.3-12,29.8c-1.3,0.6-1.3,1.9-1.3,3.8c0,1.3,0.6,2.5,1.3,3.2l10.1,8.9
					c0.6,0.6,1.9,1.3,3.2,1.3c1.3,0,2.5-0.6,3.2-1.3c8.9-9.5,13.9-22.2,16.5-38v39.3c0,2.5,1.9,5.1,5.1,5.1h12.7
					c2.5,0,5.1-1.9,5.1-5.1v-40.6c3.2,19,7,29.8,15.8,39.9c0.6,1.3,2.5,1.9,3.8,1.9s1.9-0.6,3.2-1.3l10.1-8.2
					c1.3-0.6,1.9-1.9,1.9-3.2s0-2.5-1.3-3.8c-8.9-11.4-10.8-20.3-13.3-31.7c0-0.6-0.6-1.9-1.3-2.5h7c2.5,0,5.1-1.9,5.1-5.1v-4.4
					c5.7-3.2,9.5-8.9,9.5-15.8C391.6,208.2,383.9,199.9,373.8,199.9L373.8,199.9z M373.8,219.6c-1.3,0-1.9-0.6-1.9-1.9
					s1.3-1.9,1.9-1.9c1.3,0,1.9,1.3,1.9,1.9C376.3,219,375.1,219.6,373.8,219.6L373.8,219.6z M351.6,243h3.2c-1.3,0-1.9,0.6-2.5,1.9
					l-0.6,0.6V243L351.6,243z M325.7,243h3.2v2.5C328.2,243.7,326.9,243,325.7,243L325.7,243z"/>
			</g>
			<g>
				<path class="st4" d="M430.2,294.4c-1.3,0-2.5-1.3-2.5-2.5v-36.1c-9.5,5.7-19.6,10.1-29.8,13.3h-0.6c-0.6,0-1.9-0.6-1.9-1.3
					l-6.3-11.4c-0.6,0-0.6-0.6-0.6-1.3c0-0.6,0.6-1.3,1.3-1.3c18.4-5.7,45-18.4,66.5-45c0.6-0.6,1.3-0.6,1.9-0.6
					c0.6,0,0.6,0,1.3,0.6l11.4,7.6c0.6,0.6,0.6,1.3,1.3,1.9c0,0.6,0,1.3-0.6,1.9l-0.6,0.6c-3.8,4.4-12.7,13.9-25.3,23.4v48.2
					c0,1.3-1.3,2.5-2.5,2.5h-12.7V294.4z"/>
				<path class="st5" d="M458.7,210.1l11.4,7.6c-3.8,3.8-12.7,13.9-26.6,24.7v49.4h-13.3v-39.9c-15.2,9.5-27.9,13.9-32.9,15.2
					l-6.3-11.4C431.5,243,453,217.1,458.7,210.1 M458.7,205c-1.3,0-2.5,0.6-3.8,1.9c-21.5,26.6-47.5,38.7-65.9,44.4
					c-1.3,0.6-2.5,1.3-3.2,2.5c-0.6,1.3-0.6,2.5,0,3.8l6.3,11.4c0.6,1.3,2.5,2.5,4.4,2.5c0.6,0,1.3,0,1.3,0
					c8.9-3.2,18.4-7,27.2-11.4v31.7c0,2.5,1.9,5.1,5.1,5.1h13.3c2.5,0,5.1-1.9,5.1-5.1v-46.9c12.7-9.5,20.9-19,24.7-23.4l0.6-0.6
					c0.6-1.3,1.3-2.5,1.3-3.8c0-1.3-0.6-2.5-1.9-3.2l-12-8.2C460.6,205,459.3,205,458.7,205L458.7,205z"/>
			</g>
			<g>
				<path class="st4" d="M489.1,292.5c-1.3,0-1.9-0.6-2.5-1.9l-3.2-13.3c0-0.6,0-1.3,0.6-1.9c0.6-0.6,1.3-0.6,1.9-0.6
					c26.6-1.9,52.6-10.1,64.6-54.5c0-0.6,0.6-1.3,1.3-1.9h0.6c0.6,0,1.3,0,1.3,0.6l11.4,7.6c0.6,0.6,1.3,1.9,0.6,2.5
					C553.1,269,530.3,288,489.1,292.5L489.1,292.5z M513.8,243c-0.6,0-0.6,0-1.3-0.6c-8.2-5.7-18.4-10.1-29.1-13.9
					c-0.6,0-1.3-0.6-1.3-1.3c0-0.6,0-1.3,0-1.9l5.7-10.8c0.6-0.6,1.3-1.3,1.9-1.3h0.6c7.6,2.5,18.4,6.3,31,13.9
					c1.3,0.6,1.3,1.9,0.6,3.2l-7,11.4C515.1,242.4,515.1,243,513.8,243L513.8,243z"/>
				<path class="st5" d="M489.8,215.8c7,1.9,17.7,5.7,30.4,13.3l-7,11.4c-4.4-2.5-13.9-8.9-29.8-13.9L489.8,215.8 M553.1,220.2
					l11.4,7.6c-11.4,34.8-31,57.7-74.8,62.1l-3.2-13.9C514.5,274.1,540.5,264.6,553.1,220.2 M489.8,210.7c-1.9,0-3.2,0.6-4.4,2.5
					l-5.1,11.4c-0.6,1.3-0.6,2.5,0,3.8c0.6,1.3,1.9,2.5,3.2,2.5c10.8,3.2,20.3,8.2,28.5,13.3c0.6,0.6,1.9,0.6,2.5,0.6s0.6,0,1.3,0
					c1.3,0,2.5-1.3,3.2-2.5l7-11.4c1.3-2.5,0.6-5.1-1.9-6.3c-12.7-7.6-23.4-11.4-31.7-13.9C491,211.3,490.4,210.7,489.8,210.7
					L489.8,210.7z M553.1,215.8c-0.6,0-1.3,0-1.9,0c-1.3,0.6-2.5,1.9-3.2,3.2c-11.4,43.1-36.7,50.7-62.7,52.6
					c-1.3,0-2.5,0.6-3.2,1.9c-0.6,1.3-1.3,2.5-0.6,3.8l3.2,13.9c0.6,2.5,2.5,3.8,4.4,3.8h0.6c41.8-4.4,65.9-24.1,79.2-65.3
					c0.6-1.9,0-4.4-1.9-5.1l-11.4-7.6C555,215.8,553.8,215.8,553.1,215.8L553.1,215.8z"/>
			</g>
			<g>
				<path class="st4" d="M579.7,294.4c-1.3,0-2.5-1.3-2.5-2.5v-81.1c0-1.3,1.3-2.5,2.5-2.5h13.9c1.3,0,2.5,1.3,2.5,2.5v20.9
					c20.3,6.3,34.2,14.6,43.1,19l0.6,0.6c1.3,0.6,1.3,1.9,1.3,3.2l-6.3,13.3c0,0.6-0.6,1.3-1.3,1.3H633c-0.6,0-0.6,0-1.3-0.6
					c-13.3-8.2-21.5-13.3-34.8-18.4v41.8c0,1.3-1.3,2.5-2.5,2.5C594.3,294.4,579.7,294.4,579.7,294.4z"/>
				<path class="st5" d="M593.7,210.7v22.8c21.5,7,36.7,15.2,45,19.6l-6.3,13.3c-13.9-8.9-22.8-13.9-38-19.6v45h-13.9v-81.1H593.7
					 M593.7,205.6h-13.9c-2.5,0-5.1,1.9-5.1,5.1v81.1c0,2.5,1.9,5.1,5.1,5.1h13.9c2.5,0,5.1-1.9,5.1-5.1v-38
					c10.8,4.4,19,8.9,31,16.5c0.6,0.6,1.9,0.6,2.5,0.6s0.6,0,1.3,0c1.3-0.6,2.5-1.3,3.2-2.5l6.3-13.3c1.3-2.5,0-5.1-1.9-6.3
					l-0.6-0.6c-7.6-4.4-22.2-12-41.8-18.4v-19.6C598.1,208.2,596.2,205.6,593.7,205.6L593.7,205.6z"/>
			</g>
			<g>
				<path class="st4" d="M708.4,293.7c-12,0-36.7,0-36.7-19c0-13.3,15.2-21.5,24.1-26c-0.6-0.6-1.9-1.3-3.8-1.3
					c-1.9,0-7.6,0.6-15.2,8.2c-1.3,1.9-8.9,12.7-12.7,16.5c-0.6,0.6-1.3,0.6-1.9,0.6l0,0c-0.6,0-1.3,0-1.9-0.6l-8.2-8.9
					c-0.6-0.6-0.6-2.5,0-3.2c8.9-8.2,14.6-17.1,19-28.5H657c-1.3,0-2.5-1.3-2.5-2.5v-10.8c0-1.3,1.3-2.5,2.5-2.5h19
					c0.6-2.5,0.6-4.4,1.3-7.6c0-1.3,1.3-1.9,2.5-1.9l13.3,0.6c0.6,0,1.3,0.6,1.9,0.6c0.6,0.6,0.6,1.3,0.6,1.9
					c-0.6,2.5-0.6,4.4-1.3,6.3H728c1.3,0,2.5,1.3,2.5,2.5v10.8c0,1.3-1.3,2.5-2.5,2.5h-38.7c-0.6,1.3-0.6,1.9-1.3,2.5
					c2.5-1.3,4.4-1.3,7.6-1.3c7.6,0,13.3,3.2,15.8,8.9c10.1-3.8,15.2-5.7,20.3-7h0.6c0.6,0,0.6,0,1.3,0.6c0.6,0.6,1.3,0.6,1.3,1.3
					l2.5,12c0,1.3-0.6,2.5-1.9,2.5c-4.4,1.3-11.4,2.5-20.9,5.7c0,1.9,0,4.4,0,7.6c0,3.2,0,5.7,0,7s-1.3,2.5-2.5,2.5h-12
					c-0.6,0-1.3,0-1.9-0.6c-0.6-0.6-0.6-1.3-0.6-1.9c0-2.5,0.6-5.1,0.6-7.6c-6.3,3.2-8.9,6.3-8.9,8.9c0,4.4,5.1,4.4,15.8,4.4
					c3.2,0,14.6,0,24.1-1.3l0,0c0.6,0,1.3,0,1.3,0.6c0.6,0.6,0.6,1.3,0.6,1.9v12c0,1.3-1.3,2.5-2.5,2.5
					C720.4,293.7,713.4,293.7,708.4,293.7z"/>
				<path class="st5" d="M679.2,208.8l13.3,0.6c-0.6,3.8-1.3,5.7-1.9,8.9h36.7v10.8h-39.9c-1.9,4.4-2.5,6.3-5.1,10.1
					c5.7-3.2,8.2-4.4,12.7-4.4c8.9,0,12.7,3.8,14.6,9.5c12-4.4,17.1-6.3,22.2-7.6l2.5,12c-5.1,1.3-12,3.2-22.8,6.3
					c0,1.9,0.6,5.1,0.6,9.5c0,3.2,0,5.1,0,7h-12c0.6-5.7,0.6-9.5,0-11.4c-9.5,4.4-13.9,8.9-13.9,12.7c0,7,8.2,7,18.4,7
					c1.9,0,13.9,0,24.1-1.3v12c-7.6,0.6-15.2,0.6-20.9,0.6c-13.3,0-34.2-0.6-34.2-17.1c0-12.7,16.5-20.9,24.7-25.3
					c-0.6-1.9-1.9-4.4-7-4.4c-2.5,0-8.9,1.3-16.5,8.9c-1.9,3.2-9.5,12.7-12.7,16.5l-8.2-8.9c8.9-8.9,15.8-17.7,20.9-32.3H657v-10.1
					h20.9C678.6,214.5,678.6,212.6,679.2,208.8 M679.2,204.4c-2.5,0-4.4,1.9-4.4,3.8c-0.6,1.9-0.6,3.8-0.6,5.7H657
					c-2.5,0-5.1,1.9-5.1,5.1v10.8c0,2.5,1.9,5.1,5.1,5.1h10.8c-4.4,9.5-9.5,16.5-17.1,24.1c-1.9,1.9-1.9,5.1,0,7l8.2,8.9
					c0.6,0.6,1.9,1.3,3.2,1.3l0,0c1.3,0,2.5-0.6,3.2-1.3c1.3-1.3,3.2-3.2,4.4-5.1c-0.6,1.9-1.3,3.8-1.3,6.3
					c0,21.5,27.2,21.5,39.3,21.5c5.7,0,12.7,0,21.5-0.6c2.5,0,4.4-2.5,4.4-5.1v-12c0-1.3-0.6-2.5-1.9-3.8c-0.6-0.6-1.9-1.3-3.2-1.3
					H728c-4.4,0.6-8.9,0.6-13.3,1.3c0.6-0.6,1.3-1.9,1.3-3.2c0-1.9,0-4.4,0-7c0-2.5,0-4.4,0-6.3c8.9-3.2,14.6-4.4,19-5.1
					c2.5-0.6,4.4-3.2,3.8-5.7l-2.5-12c0-1.3-1.3-2.5-1.9-3.2c-0.6-0.6-1.9-0.6-2.5-0.6c-0.6,0-0.6,0-1.3,0h-0.6
					c1.3-0.6,1.9-1.9,1.9-3.8v-10.8c0-2.5-1.9-5.1-5.1-5.1h-30.4c0-1.3,0.6-1.9,0.6-3.2s0-2.5-0.6-3.8c-0.6-1.3-1.9-1.9-3.8-1.9
					L679.2,204.4L679.2,204.4L679.2,204.4z M707.7,234.2h19c-3.8,1.3-8.2,2.5-13.9,5.1C710.9,236.7,709.6,235.4,707.7,234.2
					L707.7,234.2z M696.3,275.3c-3.2,0-5.1-0.6-5.1-1.9c0-0.6,0.6-2.5,4.4-5.1c0,1.3,0,1.9,0,3.2
					C695.1,272.8,695.7,274.1,696.3,275.3L696.3,275.3L696.3,275.3z"/>
			</g>
			<g>
				<path class="st4" d="M755.9,299.4c-0.6,0-1.3,0-1.3-0.6l-8.2-6.3c-1.3-0.6-1.3-2.5-0.6-3.2c3.2-4.4,5.1-7.6,6.3-13.3l0,0
					c-1.3,0-2.5-1.3-2.5-2.5v-64.6c0-1.3,1.3-2.5,2.5-2.5h26c1.3,0,2.5,1.3,2.5,2.5v0.6c0.6-0.6,0.6-0.6,1.3-0.6h8.2v-2.5
					c0-1.3,1.3-2.5,2.5-2.5h10.1c1.3,0,2.5,1.3,2.5,2.5v2.5h8.2v-2.5c0-1.3,1.3-2.5,2.5-2.5h10.1c1.3,0,2.5,1.3,2.5,2.5v2.5h8.2
					c1.3,0,2.5,1.3,2.5,2.5v8.2c0,1.3-1.3,2.5-2.5,2.5h-1.3c0.6,0.6,1.3,1.3,1.3,1.9v7c0,1.3-0.6,1.9-1.9,2.5h4.4
					c1.3,0,2.5,1.3,2.5,2.5v8.2c0,1.3-1.3,2.5-2.5,2.5h-3.2c0,0.6,0.6,0.6,0.6,1.3v21.5h2.5c1.3,0,2.5,1.3,2.5,2.5v8.2
					c0,1.3-1.3,2.5-2.5,2.5H837v5.1c0,7-3.8,10.8-10.8,10.8h-12.7c-1.3,0-1.9-0.6-2.5-1.9l-1.3-10.1c0-0.6,0-1.3,0.6-1.9
					c0.6-0.6,1.3-0.6,1.9-0.6h9.5v-1.3h-24.1v13.9c0,1.3-1.3,2.5-2.5,2.5h-10.8c-1.3,0-2.5-1.3-2.5-2.5v-3.2l-7.6,3.2h-0.6
					c-0.6,0-0.6,0-1.3,0s-1.3-0.6-1.3-1.3c-1.9-6.3-3.2-9.5-5.1-13.9c-1.3,4.4-3.8,11.4-7.6,17.1
					C757.1,298.8,756.5,299.4,755.9,299.4L755.9,299.4z M781.2,283.6v-1.3h-0.6C781.2,282.9,781.2,283.6,781.2,283.6z M764.7,276
					L764.7,276c0.6,0,1.3,0,1.3,0H764.7z M820.5,269.6L820.5,269.6h-5.1l0,0H820.5z M800.9,269.6L800.9,269.6h-4.4l0,0H800.9z
					 M781.2,269.6v-21.5c0-0.6,0-1.3,0.6-1.3H780v22.8C780,269.6,781.2,269.6,781.2,269.6z M766,260.1v-3.8h-2.5v3.8H766z
					 M766,242.4v-3.8h-2.5v3.8H766z M783.8,233.5c-1.3,0-1.9-1.3-1.9-2.5v-7c0-0.6,0.6-1.3,1.3-1.9h-1.9c-0.6,0-1.3,0-1.3-0.6v12
					C780,233.5,783.8,233.5,783.8,233.5z M766,225.3v-3.2h-2.5v3.2H766z"/>
				<path class="st5" d="M825.6,206.3v5.1h10.8v8.2h-10.8v4.4h8.2v7h-8.2v4.4h12.7v8.2h-24.7v3.8h19.6v23.4h5.1v8.2h-5.1v8.9
					c0,5.7-2.5,8.2-8.2,8.2h-12.7l-1.3-10.1h9.5c1.9,0,2.5-1.3,2.5-1.9v-3.8h-29.1v15.8h-10.8v-15.8h-4.4v-8.2h4.4v-23.4h19.6v-3.8
					h-24.1v-8.2h12.7v-4.4h-7.6v-7h7.6v-4.4h-10.1v-8.2H792v-5.1h10.1v5.1h12.7v-5.1h10.8 M802.1,224h12.7v-4.4h-12.7V224
					 M802.1,236.1h12.7v-4.4h-12.7V236.1 M813.5,260.1h9.5v-4.4h-9.5V260.1 M794.5,260.1h9.5v-4.4h-9.5V260.1 M813.5,272.2h9.5v-5.1
					h-9.5V272.2 M794.5,272.2h9.5v-5.1h-9.5V272.2 M777.4,208.8v64.6h-26v-64.6H777.4 M761.6,227.2h7V219h-7V227.2 M761.6,244.9h7
					v-8.2h-7V244.9 M761.6,262.7h7v-8.2h-7V262.7 M754.6,274.7l8.9,3.8c-0.6,2.5-2.5,12-7.6,19l-8.2-6.3
					C751.4,285.5,752.7,281.7,754.6,274.7 M774.3,275.3c3.2,5.1,5.7,11.4,7,15.8l-8.9,3.8c-1.9-7.6-3.2-10.8-6.3-16.5L774.3,275.3
					 M825.6,201.8h-10.1c-2.5,0-5.1,1.9-5.1,5.1l0,0h-3.2l0,0c0-2.5-1.9-5.1-5.1-5.1H792c-2.5,0-5.1,1.9-5.1,5.1l0,0h-5.7
					c-0.6-1.3-2.5-2.5-4.4-2.5h-26c-2.5,0-5.1,1.9-5.1,5.1v64.6c0,1.9,0.6,3.2,1.9,3.8c-1.3,4.4-2.5,7-5.7,10.8
					c-1.3,1.9-1.3,5.1,1.3,6.3l8.2,6.3c0.6,0.6,1.9,0.6,2.5,0.6h0.6c1.3,0,2.5-0.6,3.2-1.9c2.5-3.8,4.4-8.2,6.3-11.4
					c0.6,1.9,1.3,4.4,2.5,7.6c0.6,1.3,1.3,2.5,2.5,3.2c0.6,0,1.3,0.6,1.9,0.6s1.3,0,1.9-0.6l4.4-1.9c0,2.5,2.5,4.4,4.4,4.4h10.8
					c2.5,0,5.1-1.9,5.1-5.1v-11.4h7.6c0,0.6,0,1.3,0,1.9l1.3,10.1c0,2.5,2.5,4.4,4.4,4.4h12.7c8.2,0,13.3-4.4,13.3-13.3v-3.2l0,0
					c2.5,0,5.1-1.9,5.1-5.1v-8.2c0-2.5-1.9-5.1-5.1-5.1l0,0v-17.7l0,0c2.5,0,5.1-1.9,5.1-5.1v-8.2c0-2.5-1.9-5.1-5.1-5.1l0,0v-7l0,0
					c1.9-0.6,3.2-2.5,3.2-4.4v-8.2c0-2.5-1.9-5.1-5.1-5.1h-6.3l0,0C830,203.7,828.1,201.8,825.6,201.8L825.6,201.8z"/>
			</g>
			<g>
				<path class="st4" d="M932.7,298.2c-0.6,0-0.6,0-1.3-0.6c-18.4-10.8-29.8-23.4-36.7-41.2c-7,17.7-20.3,32.3-36.7,41.2
					c-0.6,0-0.6,0-1.3,0c-0.6,0-1.3-0.6-1.9-1.3l-8.2-11.4c-0.6-0.6-0.6-1.3-0.6-1.9c0-0.6,0.6-1.3,1.3-1.3c7-3.2,19-9.5,29.1-26
					c8.9-13.9,9.5-26,9.5-32.3H863c-1.3,0-2.5-1.3-2.5-2.5v-12c0-1.3,1.3-2.5,2.5-2.5h37.4c0.6,0,1.3,0,1.9,0.6
					c0.6,0.6,0.6,1.3,0.6,1.9c-0.6,36.7,10.1,57.7,38,72.2c0.6,0,1.3,0.6,1.3,1.3c0,0.6,0,1.3-0.6,1.9l-8.2,12
					C934.6,298.2,933.9,298.2,932.7,298.2z"/>
				<path class="st5" d="M901.6,209.4c-0.6,32.9,7,57.7,39.3,74.1l-8.2,12c-20.9-12.7-31.7-27.2-38-46.3
					c-6.3,20.3-20.3,36.7-38,46.3l-8.2-11.4c7-3.8,19.6-9.5,30.4-27.2c10.1-16.5,10.1-29.8,10.1-35.5h-24.7v-12L901.6,209.4
					 M901.6,205h-37.4c-2.5,0-5.1,1.9-5.1,5.1v12c0,2.5,1.9,5.1,5.1,5.1h20.3c0,6.3-1.9,16.5-9.5,28.5
					c-10.1,16.5-21.5,22.2-27.9,25.3c-1.3,0.6-1.9,1.9-2.5,3.2c-0.6,1.3,0,2.5,0.6,3.8l8.2,11.4c0.6,1.3,2.5,1.9,3.8,1.9
					c0.6,0,1.3,0,2.5-0.6c15.8-8.2,27.9-21.5,35.5-37.4c7.6,15.8,18.4,27.2,35.5,37.4c0.6,0.6,1.9,0.6,2.5,0.6
					c1.3,0,3.2-0.6,3.8-1.9l8.2-12c0.6-1.3,1.3-2.5,0.6-3.8c-0.6-1.3-1.3-2.5-2.5-3.2c-31.7-16.5-37.4-39.9-36.7-70.3
					c0-1.3-0.6-2.5-1.3-3.2C904.8,206.3,902.9,205,901.6,205L901.6,205z M901.6,214.5L901.6,214.5L901.6,214.5L901.6,214.5z"/>
			</g>
		</g>
	</g>
</g>
<g>
	<g>
		<g>
			<path class="st4" d="M148.9,352c-55.8,0-100.7-45-100.7-100.7s45-100.7,100.7-100.7s100.7,45,100.7,100.7S204,352,148.9,352z
				 M148.9,166.4c-46.9,0-84.9,38-84.9,84.9s38,84.9,84.9,84.9s84.9-38,84.9-84.9C233.2,204.4,195.1,166.4,148.9,166.4z"/>
			<path class="st5" d="M148.9,153.7c53.9,0,97.6,43.7,97.6,97.6s-43.7,97.6-97.6,97.6s-97.6-43.7-97.6-97.6S95,153.7,148.9,153.7
				 M148.9,338.7c48.2,0,87.4-39.3,87.4-87.4s-39.3-88.1-88.1-88.1s-88.1,39.3-88.1,88.1S100.1,338.7,148.9,338.7 M148.9,147.4
				c-57,0-103.9,46.9-103.9,103.9s46.9,103.9,103.9,103.9s103.9-46.9,103.9-103.9S205.9,147.4,148.9,147.4L148.9,147.4z
				 M148.9,332.4c-45,0-81.7-36.7-81.7-81.7s36.7-81.7,81.7-81.7s81.1,37.4,81.1,82.4S193.2,332.4,148.9,332.4L148.9,332.4z"/>
		</g>
	</g>
	<g class="st6">
		<g>
			<path class="st4" d="M121.6,312.7c-5.7,0-9.5-4.4-9.5-9.5V201.8c0-5.7,4.4-9.5,9.5-9.5h31.7c35.5,0,43.1,19,43.1,34.8
				c0,22.8-16.5,36.1-44.4,36.1h-20.3v40.6C131.8,308.3,127.3,312.7,121.6,312.7z M151.4,245.6c16.5,0,24.1-6.3,24.1-19
				c0-8.2-2.5-18.4-23.4-18.4h-20.9v36.7h20.3V245.6z"/>
			<path class="st5" d="M153.3,194.2c26.6,0,39.9,11.4,39.9,31.7s-13.9,32.9-41.2,32.9h-23.4v43.7c0,3.8-3.2,6.3-6.3,6.3
				c-3.8,0-6.3-3.2-6.3-6.3V201.2c0-3.8,3.2-6.3,6.3-6.3h31 M128.6,248.7h22.8c19,0,27.2-8.2,27.2-22.2c0-13.9-7.6-21.5-26.6-21.5
				h-23.4V248.7 M153.3,187.9h-31.7c-7,0-12.7,5.7-12.7,12.7V302c0,7,5.7,12.7,12.7,12.7s12.7-5.7,12.7-12.7v-37.4h17.1
				c29.8,0,47.5-14.6,47.5-39.3C198.9,212,193.2,187.9,153.3,187.9L153.3,187.9z M134.9,212h17.7c17.7,0,20.3,7,20.3,15.2
				c0,7.6-2.5,15.8-20.9,15.8h-17.1V212L134.9,212z"/>
		</g>
	</g>
</g>
</svg>
