<svg width="952" height="250" viewBox="0 0 952 250" fill="none" xmlns="http://www.w3.org/2000/svg">
<path d="M24.1 249.2C11.4 249.2 0.700012 238.4 0.700012 225.8V24.3C0.700012 11.6 11.5 0.899994 24.1 0.899994H927.6C940.3 0.899994 951 11.7 951 24.3V225.2C951 237.9 940.2 248.6 927.6 248.6H24.1V249.2Z" fill="url(#paint0_linear)" stroke="#E89220" stroke-miterlimit="10"/>
<path d="M29.2 12.9C22.9 12.9 17.2 18 17.2 24.3V225.2C17.2 231.5 22.3 236.6 29.2 236.6H241.5V12.9H29.2Z" fill="url(#paint1_linear)"/>
<path d="M24.1 12.9C17.8 12.9 12.1 18 12.1 24.3V225.2C12.1 231.5 17.2 236.6 24.1 236.6H236.4V12.9H24.1Z" fill="url(#paint2_linear)"/>
<path d="M927.7 12.9H248.4V237.2H927.6C933.9 237.2 939.6 232.1 939.6 225.8V24.3C939.7 17.9 934 12.9 927.7 12.9Z" fill="url(#paint3_linear)"/>
<path d="M309.9 169.4C308.6 169.4 307.4 168.1 307.4 166.9V115.6H278.3C277 115.6 275.8 114.3 275.8 113.1V101.1C275.8 99.8 277.1 98.6 278.3 98.6H307.4V85.9C307.4 84.6 308.7 83.4 309.9 83.4H322.6C323.9 83.4 325.1 84.7 325.1 85.9V98.6H335.9C335.3 96.7 334.6 94.8 334.6 92.9C334.6 84.7 341.6 77.7 349.8 77.7C358 77.7 365 84.7 365 92.9C365 99.2 361.2 104.9 355.5 106.8V112.5C355.5 113.8 354.2 115 353 115H324.5V166.3C324.5 167.6 323.2 168.8 322 168.8H310V169.4H309.9ZM349.8 88.3C347.3 88.3 345.4 90.2 345.4 92.7C345.4 95.2 347.3 97.1 349.8 97.1C352.3 97.1 354.2 95.2 354.2 92.7C354.2 90.2 352.3 88.3 349.8 88.3ZM346.6 164.9C346 164.9 345.3 164.9 344.7 164.3C335.8 154.2 332 142.8 328.9 123.1C328.9 122.5 328.9 121.8 329.5 121.2C330.1 120.6 330.8 120.6 330.8 120.6C330.8 120.6 342.2 119.3 342.8 119.3C344.1 119.3 344.7 119.9 345.3 121.2C347.2 133.2 349.7 142.1 358.6 154.1C359.2 154.7 359.2 155.4 359.2 156C359.2 156.6 358.6 157.3 358.6 157.9L348.5 166.1C347.9 164.9 347.3 164.9 346.6 164.9ZM285.2 164.9C284.6 164.9 283.9 164.9 283.9 164.3L273.8 155.4C273.2 154.8 273.2 154.1 273.2 153.5C273.2 152.9 273.2 152.2 273.8 151.6C283.9 142.1 286.5 128.2 287.1 120.6C287.1 120 287.7 119.3 287.7 118.7C288.3 118.1 289 118.1 289 118.1L301 119.4C302.3 119.4 303.5 120.7 302.9 121.9C301 139.6 295.9 153.6 286.4 163.7C286.5 164.9 285.8 164.9 285.2 164.9Z" fill="white"/>
<path d="M349.8 80C356.8 80 363.1 85.7 363.1 93.3C363.1 99 359.3 104.1 353.6 106V113.6H322.6V167.5H309.9V113.6H278.2V101.6H309.9V87H322.6V101.6H340.3C338.4 99.1 337.1 95.9 337.1 93.4C337.1 85.7 342.8 80 349.8 80ZM349.8 99.7C353.6 99.7 356.8 96.5 356.8 92.7C356.8 88.9 353.6 85.7 349.8 85.7C346 85.7 342.8 88.9 342.8 92.7C343.5 96.5 346.6 99.7 349.8 99.7ZM342.8 121.2C344.7 133.2 347.2 142.7 356.7 154.8L346.6 163C337.7 152.9 333.9 142.1 331.4 122.4L342.8 121.2ZM289 121.2L301 122.5C299.7 135.8 295.9 151.6 285.2 163.1L275.1 154.2C284.5 144.6 288.4 131.3 289 121.2ZM349.8 74.9C340.3 74.9 332.1 83.1 332.1 92.6C332.1 93.9 332.1 95.1 332.7 96.4H327.6V86.3C327.6 83.8 325.7 81.2 322.5 81.2H309.8C307.3 81.2 304.7 83.1 304.7 86.3V96.4H278.1C275.6 96.4 273 98.3 273 101.5V113.5C273 116 274.9 118.6 278.1 118.6H285.7C285.1 119.2 284.4 120.5 284.4 121.8C283.8 128.8 281.9 142.1 272.4 151.6C271.1 152.2 271.1 153.5 271.1 155.4C271.1 156.7 271.7 157.9 272.4 158.6L282.5 167.5C283.1 168.1 284.4 168.8 285.7 168.8C287 168.8 288.2 168.2 288.9 167.5C297.8 158 302.8 145.3 305.4 129.5V168.8C305.4 171.3 307.3 173.9 310.5 173.9H323.2C325.7 173.9 328.3 172 328.3 168.8V128.2C331.5 147.2 335.3 158 344.1 168.1C344.7 169.4 346.6 170 347.9 170C349.2 170 349.8 169.4 351.1 168.7L361.2 160.5C362.5 159.9 363.1 158.6 363.1 157.3C363.1 156 363.1 154.8 361.8 153.5C352.9 142.1 351 133.2 348.5 121.8C348.5 121.2 347.9 119.9 347.2 119.3H354.2C356.7 119.3 359.3 117.4 359.3 114.2V109.8C365 106.6 368.8 100.9 368.8 94C367.6 83.2 359.9 74.9 349.8 74.9ZM349.8 94.6C348.5 94.6 347.9 94 347.9 92.7C347.9 91.4 349.2 90.8 349.8 90.8C351.1 90.8 351.7 92.1 351.7 92.7C352.3 94 351.1 94.6 349.8 94.6ZM327.6 118H330.8C329.5 118 328.9 118.6 328.3 119.9L327.7 120.5V118H327.6ZM301.7 118H304.9V120.5C304.2 118.7 302.9 118 301.7 118Z" fill="#D6982B"/>
<path d="M406.2 169.4C404.9 169.4 403.7 168.1 403.7 166.9V130.8C394.2 136.5 384.1 140.9 373.9 144.1H373.3C372.7 144.1 371.4 143.5 371.4 142.8L365.1 131.4C364.5 131.4 364.5 130.8 364.5 130.1C364.5 129.5 365.1 128.8 365.8 128.8C384.2 123.1 410.8 110.4 432.3 83.8C432.9 83.2 433.6 83.2 434.2 83.2C434.8 83.2 434.8 83.2 435.5 83.8L446.9 91.4C447.5 92 447.5 92.7 448.2 93.3C448.2 93.9 448.2 94.6 447.6 95.2L447 95.8C443.2 100.2 434.3 109.7 421.7 119.2V167.4C421.7 168.7 420.4 169.9 419.2 169.9H406.5V169.4H406.2Z" fill="white"/>
<path d="M434.7 85.1L446.1 92.7C442.3 96.5 433.4 106.6 419.5 117.4V166.8H406.2V126.9C391 136.4 378.3 140.8 373.3 142.1L367 130.7C407.5 118 429 92.1 434.7 85.1ZM434.7 80C433.4 80 432.2 80.6 430.9 81.9C409.4 108.5 383.4 120.6 365 126.3C363.7 126.9 362.5 127.6 361.8 128.8C361.2 130.1 361.2 131.3 361.8 132.6L368.1 144C368.7 145.3 370.6 146.5 372.5 146.5C373.1 146.5 373.8 146.5 373.8 146.5C382.7 143.3 392.2 139.5 401 135.1V166.8C401 169.3 402.9 171.9 406.1 171.9H419.4C421.9 171.9 424.5 170 424.5 166.8V119.9C437.2 110.4 445.4 100.9 449.2 96.5L449.8 95.9C450.4 94.6 451.1 93.4 451.1 92.1C451.1 90.8 450.5 89.6 449.2 88.9L437.2 80.7C436.6 80 435.3 80 434.7 80Z" fill="#D6982B"/>
<path d="M465.1 167.5C463.8 167.5 463.2 166.9 462.6 165.6L459.4 152.3C459.4 151.7 459.4 151 460 150.4C460.6 149.8 461.3 149.8 461.9 149.8C488.5 147.9 514.5 139.7 526.5 95.3C526.5 94.7 527.1 94 527.8 93.4H528.4C529 93.4 529.7 93.4 529.7 94L541.1 101.6C541.7 102.2 542.4 103.5 541.7 104.1C529.1 144 506.3 163 465.1 167.5ZM489.8 118C489.2 118 489.2 118 488.5 117.4C480.3 111.7 470.1 107.3 459.4 103.5C458.8 103.5 458.1 102.9 458.1 102.2C458.1 101.6 458.1 100.9 458.1 100.3L463.8 89.5C464.4 88.9 465.1 88.2 465.7 88.2H466.3C473.9 90.7 484.7 94.5 497.3 102.1C498.6 102.7 498.6 104 497.9 105.3L490.9 116.7C491.1 117.4 491.1 118 489.8 118Z" fill="white"/>
<path d="M465.8 90.8C472.8 92.7 483.5 96.5 496.2 104.1L489.2 115.5C484.8 113 475.3 106.6 459.4 101.6L465.8 90.8ZM529.1 95.2L540.5 102.8C529.1 137.6 509.5 160.5 465.7 164.9L462.5 151C490.5 149.1 516.5 139.6 529.1 95.2ZM465.8 85.7C463.9 85.7 462.6 86.3 461.4 88.2L456.3 99.6C455.7 100.9 455.7 102.1 456.3 103.4C456.9 104.7 458.2 105.9 459.5 105.9C470.3 109.1 479.8 114.1 488 119.2C488.6 119.8 489.9 119.8 490.5 119.8C491.1 119.8 491.1 119.8 491.8 119.8C493.1 119.8 494.3 118.5 495 117.3L502 105.9C503.3 103.4 502.6 100.8 500.1 99.6C487.4 92 476.7 88.2 468.4 85.7C467 86.3 466.4 85.7 465.8 85.7ZM529.1 90.8C528.5 90.8 527.8 90.8 527.2 90.8C525.9 91.4 524.7 92.7 524 94C512.6 137.1 487.3 144.7 461.3 146.6C460 146.6 458.8 147.2 458.1 148.5C457.5 149.8 456.8 151 457.5 152.3L460.7 166.2C461.3 168.7 463.2 170 465.1 170H465.7C507.5 165.6 531.6 145.9 544.9 104.7C545.5 102.8 544.9 100.3 543 99.6L531.6 92C531 90.8 529.8 90.8 529.1 90.8Z" fill="#D6982B"/>
<path d="M555.7 169.4C554.4 169.4 553.2 168.1 553.2 166.9V85.8C553.2 84.5 554.5 83.3 555.7 83.3H569.6C570.9 83.3 572.1 84.6 572.1 85.8V106.7C592.4 113 606.3 121.3 615.2 125.7L615.8 126.3C617.1 126.9 617.1 128.2 617.1 129.5L610.8 142.8C610.8 143.4 610.2 144.1 609.5 144.1H609C608.4 144.1 608.4 144.1 607.7 143.5C594.4 135.3 586.2 130.2 572.9 125.1V166.9C572.9 168.2 571.6 169.4 570.4 169.4C570.3 169.4 555.7 169.4 555.7 169.4Z" fill="white"/>
<path d="M569.7 85.7V108.5C591.2 115.5 606.4 123.7 614.7 128.1L608.4 141.4C594.5 132.5 585.6 127.5 570.4 121.8V166.8H556.5V85.7H569.7V85.7ZM569.7 80.6H555.8C553.3 80.6 550.7 82.5 550.7 85.7V166.8C550.7 169.3 552.6 171.9 555.8 171.9H569.7C572.2 171.9 574.8 170 574.8 166.8V128.8C585.6 133.2 593.8 137.7 605.8 145.3C606.4 145.9 607.7 145.9 608.3 145.9C608.9 145.9 608.9 145.9 609.6 145.9C610.9 145.3 612.1 144.6 612.8 143.4L619.1 130.1C620.4 127.6 619.1 125 617.2 123.8L616.6 123.2C609 118.8 594.4 111.2 574.8 104.8V85.2C574.1 83.2 572.2 80.6 569.7 80.6Z" fill="#D6982B"/>
<path d="M684.4 168.7C672.4 168.7 647.7 168.7 647.7 149.7C647.7 136.4 662.9 128.2 671.8 123.7C671.2 123.1 669.9 122.4 668 122.4C666.1 122.4 660.4 123 652.8 130.6C651.5 132.5 643.9 143.3 640.1 147.1C639.5 147.7 638.8 147.7 638.2 147.7C637.6 147.7 636.9 147.7 636.3 147.1L628.1 138.2C627.5 137.6 627.5 135.7 628.1 135C637 126.8 642.7 117.9 647.1 106.5H633C631.7 106.5 630.5 105.2 630.5 104V93.2C630.5 91.9 631.8 90.7 633 90.7H652C652.6 88.2 652.6 86.3 653.3 83.1C653.3 81.8 654.6 81.2 655.8 81.2L669.1 81.8C669.7 81.8 670.4 82.4 671 82.4C671.6 83 671.6 83.7 671.6 84.3C671 86.8 671 88.7 670.3 90.6H704C705.3 90.6 706.5 91.9 706.5 93.1V103.9C706.5 105.2 705.2 106.4 704 106.4H665.3C664.7 107.7 664.7 108.3 664 108.9C666.5 107.6 668.4 107.6 671.6 107.6C679.2 107.6 684.9 110.8 687.4 116.5C697.5 112.7 702.6 110.8 707.7 109.5H708.3C708.9 109.5 708.9 109.5 709.6 110.1C710.2 110.7 710.9 110.7 710.9 111.4L713.4 123.4C713.4 124.7 712.8 125.9 711.5 125.9C707.1 127.2 700.1 128.4 690.6 131.6C690.6 133.5 690.6 136 690.6 139.2C690.6 142.4 690.6 144.9 690.6 146.2C690.6 147.5 689.3 148.7 688.1 148.7H676.1C675.5 148.7 674.8 148.7 674.2 148.1C673.6 147.5 673.6 146.8 673.6 146.2C673.6 143.7 674.2 141.1 674.2 138.6C667.9 141.8 665.3 144.9 665.3 147.5C665.3 151.9 670.4 151.9 681.1 151.9C684.3 151.9 695.7 151.9 705.2 150.6C705.8 150.6 706.5 150.6 706.5 151.2C707.1 151.8 707.1 152.5 707.1 153.1V165.1C707.1 166.4 705.8 167.6 704.6 167.6C696.4 168.7 689.4 168.7 684.4 168.7Z" fill="white"/>
<path d="M655.2 83.8L668.5 84.4C667.9 88.2 667.2 90.1 666.6 93.3H703.3V104.1H663.4C661.5 108.5 660.9 110.4 658.3 114.2C664 111 666.5 109.8 671 109.8C679.9 109.8 683.7 113.6 685.6 119.3C697.6 114.9 702.7 113 707.8 111.7L710.3 123.7C705.2 125 698.3 126.9 687.5 130C687.5 131.9 688.1 135.1 688.1 139.5C688.1 142.7 688.1 144.6 688.1 146.5H676.1C676.7 140.8 676.7 137 676.1 135.1C666.6 139.5 662.2 144 662.2 147.8C662.2 154.8 670.4 154.8 680.6 154.8C682.5 154.8 694.5 154.8 704.7 153.5V165.5C697.1 166.1 689.5 166.1 683.8 166.1C670.5 166.1 649.6 165.5 649.6 149C649.6 136.3 666.1 128.1 674.3 123.7C673.7 121.8 672.4 119.3 667.3 119.3C664.8 119.3 658.4 120.6 650.8 128.2C648.9 131.4 641.3 140.9 638.1 144.7L629.9 135.8C638.8 126.9 645.7 118.1 650.8 103.5H633V93.4H653.9C654.6 89.5 654.6 87.6 655.2 83.8ZM655.2 79.4C652.7 79.4 650.8 81.3 650.8 83.2C650.2 85.1 650.2 87 650.2 88.9H633C630.5 88.9 627.9 90.8 627.9 94V104.8C627.9 107.3 629.8 109.9 633 109.9H643.8C639.4 119.4 634.3 126.4 626.7 134C624.8 135.9 624.8 139.1 626.7 141L634.9 149.9C635.5 150.5 636.8 151.2 638.1 151.2C639.4 151.2 640.6 150.6 641.3 149.9C642.6 148.6 644.5 146.7 645.7 144.8C645.1 146.7 644.4 148.6 644.4 151.1C644.4 172.6 671.6 172.6 683.7 172.6C689.4 172.6 696.4 172.6 705.2 172C707.7 172 709.6 169.5 709.6 166.9V154.9C709.6 153.6 709 152.4 707.7 151.1C707.1 150.5 705.8 149.8 704.5 149.8H704C699.6 150.4 695.1 150.4 690.7 151.1C691.3 150.5 692 149.2 692 147.9C692 146 692 143.5 692 140.9C692 138.4 692 136.5 692 134.6C700.9 131.4 706.6 130.2 711 129.5C713.5 128.9 715.4 126.3 714.8 123.8L712.3 111.8C712.3 110.5 711 109.3 710.4 108.6C709.8 108 708.5 108 707.9 108C707.3 108 707.3 108 706.6 108H706C707.3 107.4 707.9 106.1 707.9 104.2V93.4C707.9 90.9 706 88.3 702.8 88.3H672.4C672.4 87 673 86.4 673 85.1C673 83.8 673 82.6 672.4 81.3C671.8 80 670.5 79.4 668.6 79.4H655.2ZM683.7 109.2H702.7C698.9 110.5 694.5 111.7 688.8 114.3C686.9 111.7 685.6 110.4 683.7 109.2ZM672.3 150.3C669.1 150.3 667.2 149.7 667.2 148.4C667.2 147.8 667.8 145.9 671.6 143.3C671.6 144.6 671.6 145.2 671.6 146.5C671.1 147.8 671.7 149.1 672.3 150.3Z" fill="#D6982B"/>
<path d="M731.9 174.4C731.3 174.4 730.6 174.4 730.6 173.8L722.4 167.5C721.1 166.9 721.1 165 721.8 164.3C725 159.9 726.9 156.7 728.1 151C726.8 151 725.6 149.7 725.6 148.5V83.9C725.6 82.6 726.9 81.4 728.1 81.4H754.1C755.4 81.4 756.6 82.7 756.6 83.9V84.5C757.2 83.9 757.2 83.9 757.9 83.9H766.1V81.4C766.1 80.1 767.4 78.9 768.6 78.9H778.7C780 78.9 781.2 80.2 781.2 81.4V83.9H789.4V81.4C789.4 80.1 790.7 78.9 791.9 78.9H802C803.3 78.9 804.5 80.2 804.5 81.4V83.9H812.7C814 83.9 815.2 85.2 815.2 86.4V94.6C815.2 95.9 813.9 97.1 812.7 97.1H811.4C812 97.7 812.7 98.4 812.7 99V106C812.7 107.3 812.1 107.9 810.8 108.5H815.2C816.5 108.5 817.7 109.8 817.7 111V119.2C817.7 120.5 816.4 121.7 815.2 121.7H812C812 122.3 812.6 122.3 812.6 123V144.5H815.1C816.4 144.5 817.6 145.8 817.6 147V155.2C817.6 156.5 816.3 157.7 815.1 157.7H813V162.8C813 169.8 809.2 173.6 802.2 173.6H789.5C788.2 173.6 787.6 173 787 171.7L785.7 161.6C785.7 161 785.7 160.3 786.3 159.7C786.9 159.1 787.6 159.1 788.2 159.1H797.7V157.8H773.6V171.7C773.6 173 772.3 174.2 771.1 174.2H760.3C759 174.2 757.8 172.9 757.8 171.7V168.5L750.2 171.7H749.6C749 171.7 749 171.7 748.3 171.7C747.6 171.7 747 171.1 747 170.4C745.1 164.1 743.8 160.9 741.9 156.5C740.6 160.9 738.1 167.9 734.3 173.6C733.1 173.8 732.5 174.4 731.9 174.4ZM757.2 158.6V157.3H756.6C757.2 157.9 757.2 158.6 757.2 158.6ZM740.7 151C741.3 151 742 151 742 151H740.7ZM796.5 144.6H791.4H796.5ZM776.9 144.6H772.5H776.9ZM757.2 144.6V123.1C757.2 122.5 757.2 121.8 757.8 121.8H756V144.6H757.2ZM742 135.1V131.3H739.5V135.1H742ZM742 117.4V113.6H739.5V117.4H742ZM759.8 108.5C758.5 108.5 757.9 107.2 757.9 106V99C757.9 98.4 758.5 97.7 759.2 97.1H757.3C756.7 97.1 756 97.1 756 96.5V108.5H759.8ZM742 100.3V97.1H739.5V100.3H742Z" fill="white"/>
<path d="M801.6 81.3V86.4H812.4V94.6H801.6V99H809.8V106H801.6V110.4H814.3V118.6H789.6V122.4H809.2V145.8H814.3V154H809.2V162.9C809.2 168.6 806.7 171.1 801 171.1H788.3L787 161H796.5C798.4 161 799 159.7 799 159.1V155.3H769.9V171.1H759.1V155.3H754.7V147.1H759.1V123.7H778.7V119.9H754.6V111.7H767.3V107.3H759.7V100.3H767.3V95.9H757.2V87.7H768V82.6H778.1V87.7H790.8V82.6H801.6V81.3ZM778.1 99H790.8V94.6H778.1V99ZM778.1 111.1H790.8V106.7H778.1V111.1ZM789.5 135.1H799V130.7H789.5V135.1ZM770.5 135.1H780V130.7H770.5V135.1ZM789.5 147.2H799V142.1H789.5V147.2ZM770.5 147.2H780V142.1H770.5V147.2ZM753.4 83.8V148.4H727.4V83.8H753.4V83.8ZM737.6 102.2H744.6V94H737.6V102.2ZM737.6 119.9H744.6V111.7H737.6V119.9ZM737.6 137.7H744.6V129.5H737.6V137.7ZM730.6 149.7L739.5 153.5C738.9 156 737 165.5 731.9 172.5L723.7 166.2C727.4 160.5 728.7 156.7 730.6 149.7ZM750.3 150.3C753.5 155.4 756 161.7 757.3 166.1L748.4 169.9C746.5 162.3 745.2 159.1 742.1 153.4L750.3 150.3ZM801.6 76.8H791.5C789 76.8 786.4 78.7 786.4 81.9H783.2C783.2 79.4 781.3 76.8 778.1 76.8H768C765.5 76.8 762.9 78.7 762.9 81.9H757.2C756.6 80.6 754.7 79.4 752.8 79.4H726.8C724.3 79.4 721.7 81.3 721.7 84.5V149.1C721.7 151 722.3 152.3 723.6 152.9C722.3 157.3 721.1 159.9 717.9 163.7C716.6 165.6 716.6 168.8 719.2 170L727.4 176.3C728 176.9 729.3 176.9 729.9 176.9H730.5C731.8 176.9 733 176.3 733.7 175C736.2 171.2 738.1 166.8 740 163.6C740.6 165.5 741.3 168 742.5 171.2C743.1 172.5 743.8 173.7 745 174.4C745.6 174.4 746.3 175 746.9 175C747.5 175 748.2 175 748.8 174.4L753.2 172.5C753.2 175 755.7 176.9 757.6 176.9H768.4C770.9 176.9 773.5 175 773.5 171.8V160.4H781.1C781.1 161 781.1 161.7 781.1 162.3L782.4 172.4C782.4 174.9 784.9 176.8 786.8 176.8H799.5C807.7 176.8 812.8 172.4 812.8 163.5V160.3C815.3 160.3 817.9 158.4 817.9 155.2V147C817.9 144.5 816 141.9 812.8 141.9V124.2C815.3 124.2 817.9 122.3 817.9 119.1V110.9C817.9 108.4 816 105.8 812.8 105.8V98.8C814.7 98.2 816 96.3 816 94.4V86.2C816 83.7 814.1 81.1 810.9 81.1H804.6C806 78.7 804.1 76.8 801.6 76.8Z" fill="#D6982B"/>
<path d="M908.7 173.2C908.1 173.2 908.1 173.2 907.4 172.6C889 161.8 877.6 149.2 870.7 131.4C863.7 149.1 850.4 163.7 834 172.6C833.4 172.6 833.4 172.6 832.7 172.6C832.1 172.6 831.4 172 830.8 171.3L822.6 159.9C822 159.3 822 158.6 822 158C822 157.4 822.6 156.7 823.3 156.7C830.3 153.5 842.3 147.2 852.4 130.7C861.3 116.8 861.9 104.7 861.9 98.4H839C837.7 98.4 836.5 97.1 836.5 95.9V83.9C836.5 82.6 837.8 81.4 839 81.4H876.4C877 81.4 877.7 81.4 878.3 82C878.9 82.6 878.9 83.3 878.9 83.9C878.3 120.6 889 141.6 916.9 156.1C917.5 156.1 918.2 156.7 918.2 157.4C918.2 158 918.2 158.7 917.6 159.3L909.4 171.3C910.6 173.2 909.9 173.2 908.7 173.2Z" fill="white"/>
<path d="M877.6 84.4C877 117.3 884.6 142.1 916.9 158.5L908.7 170.5C887.8 157.8 877 143.3 870.7 124.2C864.4 144.5 850.4 160.9 832.7 170.5L824.5 159.1C831.5 155.3 844.1 149.6 854.9 131.9C865 115.4 865 102.1 865 96.4H840.3V84.4H877.6ZM877.6 80H840.2C837.7 80 835.1 81.9 835.1 85.1V97.1C835.1 99.6 837 102.2 840.2 102.2H860.5C860.5 108.5 858.6 118.7 851 130.7C840.9 147.2 829.5 152.9 823.1 156C821.8 156.6 821.2 157.9 820.6 159.2C820 160.5 820.6 161.7 821.2 163L829.4 174.4C830 175.7 831.9 176.3 833.2 176.3C833.8 176.3 834.5 176.3 835.7 175.7C851.5 167.5 863.6 154.2 871.2 138.3C878.8 154.1 889.6 165.5 906.7 175.7C907.3 176.3 908.6 176.3 909.2 176.3C910.5 176.3 912.4 175.7 913 174.4L921.2 162.4C921.8 161.1 922.5 159.9 921.8 158.6C921.2 157.3 920.5 156.1 919.3 155.4C887.6 138.9 881.9 115.5 882.6 85.1C882.6 83.8 882 82.6 881.3 81.9C880.8 81.3 878.9 80 877.6 80Z" fill="#D6982B"/>
<path d="M124.9 227C69.1 227 24.2 182 24.2 126.3C24.2 70.6 69.2 25.6 124.9 25.6C180.6 25.6 225.6 70.6 225.6 126.3C225.6 182 180 227 124.9 227ZM124.9 41.4C78 41.4 40 79.4 40 126.3C40 173.2 78 211.2 124.9 211.2C171.8 211.2 209.8 173.2 209.8 126.3C209.2 79.4 171.1 41.4 124.9 41.4Z" fill="white"/>
<path d="M124.9 28.7C178.8 28.7 222.5 72.4 222.5 126.3C222.5 180.2 178.8 223.9 124.9 223.9C71 223.9 27.3 180.2 27.3 126.3C27.3 72.4 71 28.7 124.9 28.7ZM124.9 213.7C173.1 213.7 212.3 174.4 212.3 126.3C212.3 78.2 173 38.2 124.2 38.2C75.4 38.2 36.1 77.5 36.1 126.3C36.1 175.1 76.1 213.7 124.9 213.7ZM124.9 22.4C67.9 22.4 21 69.3 21 126.3C21 183.3 67.9 230.2 124.9 230.2C181.9 230.2 228.8 183.3 228.8 126.3C228.8 69.3 181.9 22.4 124.9 22.4ZM124.9 207.4C79.9 207.4 43.2 170.7 43.2 125.7C43.2 80.7 79.9 44 124.9 44C169.9 44 206 81.4 206 126.4C206 171.4 169.2 207.4 124.9 207.4Z" fill="#D6982B"/>
<path d="M97.6 187.7C91.9 187.7 88.1 183.3 88.1 178.2V76.8C88.1 71.1 92.5 67.3 97.6 67.3H129.3C164.8 67.3 172.4 86.3 172.4 102.1C172.4 124.9 155.9 138.2 128 138.2H107.7V178.8C107.8 183.3 103.3 187.7 97.6 187.7ZM127.4 120.6C143.9 120.6 151.5 114.3 151.5 101.6C151.5 93.4 149 83.2 128.1 83.2H107.2V119.9H127.5V120.6H127.4Z" fill="white"/>
<path d="M129.3 69.2C155.9 69.2 169.2 80.6 169.2 100.9C169.2 121.2 155.3 133.8 128 133.8H104.6V177.5C104.6 181.3 101.4 183.8 98.3 183.8C94.5 183.8 92 180.6 92 177.5V76.2C92 72.4 95.2 69.9 98.3 69.9H129.3V69.2ZM104.6 123.7H127.4C146.4 123.7 154.6 115.5 154.6 101.5C154.6 87.6 147 80 128 80H104.6V123.7ZM129.3 62.9H97.6C90.6 62.9 84.9 68.6 84.9 75.6V177C84.9 184 90.6 189.7 97.6 189.7C104.6 189.7 110.3 184 110.3 177V139.6H127.4C157.2 139.6 174.9 125 174.9 100.3C174.9 87 169.2 62.9 129.3 62.9ZM110.9 87H128.6C146.3 87 148.9 94 148.9 102.2C148.9 109.8 146.4 118 128 118H110.9V87Z" fill="#D6982B"/>
<defs>
<linearGradient id="paint0_linear" x1="475.9" y1="-12.1246" x2="475.9" y2="305.543" gradientUnits="userSpaceOnUse">
<stop stop-color="#EDC75F"/>
<stop offset="0.5" stop-color="#E9B633"/>
<stop offset="1" stop-color="#EA9A22"/>
</linearGradient>
<linearGradient id="paint1_linear" x1="129.315" y1="-180.467" x2="129.315" y2="226.653" gradientUnits="userSpaceOnUse">
<stop stop-color="#EAA553"/>
<stop offset="0.5" stop-color="#E8932A"/>
<stop offset="1" stop-color="#E37B21"/>
</linearGradient>
<linearGradient id="paint2_linear" x1="124.246" y1="-180.467" x2="124.246" y2="226.653" gradientUnits="userSpaceOnUse">
<stop stop-color="#EDC75F"/>
<stop offset="0.5" stop-color="#E9B633"/>
<stop offset="1" stop-color="#EA9A22"/>
</linearGradient>
<linearGradient id="paint3_linear" x1="594.068" y1="-180.467" x2="594.068" y2="226.653" gradientUnits="userSpaceOnUse">
<stop stop-color="#EDC75F"/>
<stop offset="0.5" stop-color="#E9B633"/>
<stop offset="1" stop-color="#EA9A22"/>
</linearGradient>
</defs>
</svg>
