<?xml version="1.0" encoding="utf-8"?>
<!-- Generator: Adobe Illustrator 24.2.0, SVG Export Plug-In . SVG Version: 6.00 Build 0)  -->
<svg version="1.1" id="_x32_" xmlns="http://www.w3.org/2000/svg" xmlns:xlink="http://www.w3.org/1999/xlink" x="0px" y="0px"
	 viewBox="0 0 512 512" style="enable-background:new 0 0 512 512;" xml:space="preserve">
<g>
	<path d="M392.8,465.4c0,11.2-9.1,20.4-20.4,20.4H61.1c-11.2,0-20.4-9.2-20.4-20.4V176h124.6c13.8,0,25-11.2,25-25V26.2h182.1
		c11.2,0,20.4,9.1,20.4,20.4v147.1l26.2-26.2v-121C419,20.8,398.1,0,372.4,0H183.5C170,0,157,5.4,147.4,15L29.6,132.8
		c-9.6,9.6-15,22.6-15,36.2v296.5c0,25.7,20.9,46.6,46.6,46.6h311.2c25.7,0,46.6-20.9,46.6-46.6V340.2l-26.2,26.2L392.8,465.4
		L392.8,465.4z M167,32.3V137c0,11.3-4.4,15.7-15.7,15.7H46.6L167,32.3z"/>
	<path d="M493.8,206.7L466,179c-4.8-4.8-12.7-4.8-17.5,0l-18,18l45.3,45.3l18-18C498.6,219.4,498.6,211.6,493.8,206.7z"/>
	<polygon points="262.9,364.6 247.5,425.3 308.1,409.9 	"/>
	<path d="M272.2,355.4l45.3,45.3l150.2-150.2l-45.3-45.3L272.2,355.4z"/>
</g>
</svg>
