<?xml version="1.0" encoding="utf-8"?>
<!-- Generator: Adobe Illustrator 24.2.0, SVG Export Plug-In . SVG Version: 6.00 Build 0)  -->
<svg version="1.1" id="レイヤー_1" xmlns="http://www.w3.org/2000/svg" xmlns:xlink="http://www.w3.org/1999/xlink" x="0px"
	 y="0px" viewBox="0 0 114.2 100" style="enable-background:new 0 0 114.2 100;" xml:space="preserve">
<style type="text/css">
	.st0{fill:#A4DFFF;}
	.st1{fill:#2C65E5;}
	.st2{enable-background:new    ;}
</style>
<path class="st0" d="M13.8,82.2c-4.5,0-8.2-3.7-8.2-8.2V58.4c4.2-0.6,7.4-4.2,7.3-8.5S9.7,42,5.6,41.4V25.8c0-4.5,3.7-8.2,8.2-8.2
	l15.1,0.1l-0.2,64.5H13.8z M100.5,82.2h-69l0.2-64.5h68.8c4.5,0,8.2,3.7,8.2,8.2l0.1,15.5c-4.5,0.3-8.2,3.9-8.2,8.6
	c0,4.6,3.6,8.3,8.2,8.6V74C108.8,78.5,105,82.1,100.5,82.2z M13.8,82.2c-4.5,0-8.2-3.7-8.2-8.2V58.4c4.2-0.6,7.4-4.2,7.3-8.5
	S9.7,42,5.6,41.4V25.8c0-4.5,3.7-8.2,8.2-8.2l15.1,0.1l-0.2,64.5H13.8z M100.5,82.2h-69l0.2-64.5h68.8c4.5,0,8.2,3.7,8.2,8.2
	l0.1,15.5c-4.5,0.3-8.2,3.9-8.2,8.6c0,4.6,3.6,8.3,8.2,8.6V74C108.8,78.5,105,82.1,100.5,82.2z"/>
<path class="st1" d="M112.9,74.1V58.7v-4l-4.1-0.2c-2.4-0.1-4.1-2-4.1-4.3s1.8-4.1,4.1-4.3l4-0.2v-4V26.3
	c-0.1-7.1-5.7-12.8-12.5-12.7H13.6C6.8,13.4,1.3,19.1,1.3,25.9v15.6v3.7L5,45.7C7.1,46,8.7,47.8,8.8,50c0.1,2.1-1.6,3.9-3.8,4.3
	l-3.7,0.5v3.7v15.6C1.2,81,6.9,86.6,13.7,86.6h86.7C107.3,86.6,112.9,80.9,112.9,74.1z M13.8,82.2c-4.5,0-8.2-3.7-8.2-8.2V58.4
	c4.2-0.6,7.4-4.2,7.3-8.5S9.7,42,5.6,41.4V25.8c0-4.5,3.7-8.2,8.2-8.2l15.1,0.1l-0.2,64.5H13.8z M100.5,82.2h-69l0.2-64.5h68.8
	c4.5,0,8.2,3.7,8.2,8.2l0.1,15.5c-4.5,0.3-8.2,3.9-8.2,8.6c0,4.6,3.6,8.3,8.2,8.6V74C108.8,78.5,105,82.1,100.5,82.2z"/>
<g>
	<g class="st2">
		<path class="st1" d="M60.6,46.3c1.9,0,2,1.6,2,2c0,0.2,0,2-2,2h-12c-4.3,0-5.6-1.7-6.4-2.7c-0.4,0.7-0.7,1-1.5,1.8
			c-0.8,0.9-1.3,1.3-2,1.3c-1.3,0-2.3-1.2-2.3-2.5c0-1,0.4-1.2,1.6-2.1c0.6-0.5,1.3-1,1.7-1.4v-5c0-0.2,0-0.7-0.5-0.7h-0.7
			c-1.3,0-1.9-0.8-1.9-1.9c0-1.5,0.5-2.1,2-2.1h1.6c2.8,0,3.4,0.5,3.4,3.4v5c0.1,0.7,0.2,1.5,1.5,2.3c1.1,0.7,2.5,0.7,3.1,0.7
			L60.6,46.3L60.6,46.3z M42.2,27.1c2,1.8,2.1,2.2,2.1,2.8c0,1.2-1,2.3-2.1,2.3c-0.8,0-0.9-0.1-2.3-1.4c-0.4-0.4-2.2-1.9-2.5-2.3
			c-0.2-0.2-0.3-0.6-0.3-1c0-1,0.8-2,1.8-2.2C39.4,25.2,40.2,25.4,42.2,27.1z M60.5,34.6c0.6,0,2,0.1,2,1.8c0,1.4-0.5,2-2,2h-4.1
			c1.2,1.7,1.7,2,4.7,3.9c0.2,0.1,0.7,0.6,0.7,1.5s-0.5,2.3-2.2,2.3s-4.7-1.9-6.6-5.5c-0.5,0.9-1.1,2.3-2.9,3.8
			c-1.7,1.5-2.5,1.6-3,1.6c-1.5,0-2.3-1.2-2.3-2.3c0-1,0.2-1.1,2.2-2.3c1.2-0.8,2.2-1.7,2.9-2.9h-4c-0.6,0-2-0.1-2-1.8
			c0-1.4,0.5-2.1,2-2.1h5v-2.2h-4.4c-0.6,0-2,0-2-1.9c0-1.3,0.4-2,1.9-2h1.4c-0.1-0.2-0.5-0.9-0.6-1c-0.2-0.3-0.3-0.7-0.3-1
			c0-1,1.1-1.6,2.3-1.6c0.8,0,1.2,0.3,1.6,1c0.4,0.6,0.9,1.6,0.9,2.2c0,0.2-0.1,0.4-0.1,0.5h2.5c0.3-0.5,0.6-1.1,1-2.2
			c0.3-0.8,0.6-1.5,1.9-1.5c1,0,2.3,0.4,2.3,1.5c0,0.7-0.4,1.4-0.9,2.2h1.1c1.2,0,1.9,0.5,1.9,1.8c0,1.4-0.4,2.1-2,2.1h-4.5v2.2
			L60.5,34.6L60.5,34.6z"/>
	</g>
	<g class="st2">
		<path class="st1" d="M80.4,45c-1.1,0.2-2-0.4-2.1-2c-0.4,0.8-1.1,1.1-1.7,1.1c-0.8,0-1.4-0.8-1.9-1.7V49c0,1.5-0.7,2-2.1,2
			c-1.8,0-1.8-1.4-1.8-2v-5c-0.9,1.7-1.6,2.6-2.5,2.6c-1,0-2.1-1.1-2.1-2.4c0-0.7,0.1-0.9,1.4-2.4c0.6-0.8,2.2-2.9,3.2-4.9h-2.3
			c-1.5,0-2-0.6-2-2c0-1.8,1.6-1.8,2-1.8h2.3v-6.4c0-1.5,0.7-2,2.1-2c1.8,0,1.8,1.4,1.8,2v6.4h1.9c1.4,0,2,0.6,2,2
			c0,1.8-1.6,1.8-2,1.8h-1.9c0.7,1,1.4,2.1,2.2,3c1.2,1.3,1.3,1.4,1.4,1.9c0.2-0.3,0.3-0.7,1.3-0.8l6.2-1.2v-13c0-1.7,0.8-2,2.3-2
			c1.6,0,1.9,0.9,1.9,2V39c0.6,0,0.7,0,1,0c1.6,0,1.7,1.8,1.7,2.4c0,0.9-0.3,1.5-1.6,1.7l-0.8,0.1V49c0,0.3,0,1.2-0.6,1.7
			c-0.3,0.3-1.3,0.4-1.7,0.4c-1.5,0-1.9-0.9-1.9-2V44L80.4,45z M69.6,27.6c0.3,0.9,0.8,2.9,0.8,3.5c0,1-1.1,1.4-1.8,1.4
			c-1,0-1.1-0.7-1.3-1.6c-0.2-1-0.3-1.3-0.6-2.2c-0.2-0.7-0.3-0.9-0.3-1.1c0-0.9,1.1-1.3,1.8-1.3C69.1,26.4,69.3,26.9,69.6,27.6z
			 M79.3,27.8c0,0.5-0.4,2.2-0.8,3.4c-0.4,1-0.7,1.4-1.4,1.4c-0.7,0-1.8-0.5-1.8-1.4c0-0.3,0.1-0.5,0.2-1.1c0.2-0.8,0.4-1.6,0.6-2.5
			c0.1-0.4,0.3-1.2,1.3-1.2C78.8,26.4,79.3,27.1,79.3,27.8z M83.8,35c0.9,0.8,1.3,1.1,1.3,1.8c0,1.1-1.1,2.3-2.1,2.3
			c-0.7,0-0.8-0.2-2.2-1.4c-0.2-0.2-1.1-1-1.3-1.1c-0.2-0.2-0.4-0.5-0.4-1c0-1.1,0.9-2.1,1.9-2.1C81.8,33.4,82.4,33.8,83.8,35z
			 M84,27.6c1.4,1.2,1.7,1.5,1.7,2.3c0,1.1-0.9,2.2-2,2.2c-0.6,0-0.8-0.1-2.2-1.5c-0.2-0.2-1.2-1-1.3-1.2C80,29.1,80,28.8,80,28.5
			c0-1.1,1-2,1.9-2C82.6,26.5,83.1,26.9,84,27.6z"/>
	</g>
	<path class="st1" d="M46.6,63.9c1.1,0,1.5,0.6,1.5,1.4c0,0.5-0.1,1.4-1.5,1.4H41v5.1c0,0.5-0.1,1.6-1.7,1.6c-1,0-1.7-0.4-1.7-1.6
		V60c0-2.1,0.9-2.7,2.7-2.7h7.2c0.8,0,1.5,0.3,1.5,1.4c0,0.8-0.3,1.5-1.5,1.5h-5.9c-0.4,0-0.6,0.2-0.6,0.6v3.1
		C41,63.9,46.6,63.9,46.6,63.9z"/>
	<path class="st1" d="M54.9,71.8c0,0.6-0.1,1.6-1.7,1.6c-1.2,0-1.7-0.5-1.7-1.6V60c0-2.1,0.9-2.7,2.7-2.7h4.3c2.1,0,3,0.3,3.8,1
		c1,0.8,1.7,2,1.7,3.4c0,0.3,0,2.7-2.1,3.7c1.6,0.8,1.6,2.2,1.6,4.8c0,0.3,0.2,1.6,0.2,1.8c0,0.5-0.1,1.3-1.7,1.3
		c-1.2,0-1.8-0.4-1.8-3.5c0-1.7,0-2.9-2.1-2.9h-3.3L54.9,71.8L54.9,71.8z M54.9,64.1h3.5c1.5,0,2.3-0.9,2.3-2c0-1.9-1.8-1.9-2.3-1.9
		h-2.9c-0.4,0-0.6,0.2-0.6,0.6V64.1z"/>
	<path class="st1" d="M76.1,63.6c1.3,0,1.5,0.9,1.5,1.4c0,0.6-0.2,1.4-1.5,1.4h-5.9v3.1c0,0.4,0.2,0.6,0.6,0.6h6.3
		c0.9,0,1.5,0.4,1.5,1.4S78.1,73,77.1,73h-7.6c-1.9,0-2.7-0.7-2.7-2.7V60c0-2.1,0.9-2.7,2.7-2.7h7.1c0.8,0,1.5,0.3,1.5,1.4
		c0,0.8-0.3,1.5-1.5,1.5h-5.9c-0.4,0-0.6,0.2-0.6,0.6v2.7L76.1,63.6L76.1,63.6z"/>
	<path class="st1" d="M89.1,63.6c1.3,0,1.5,0.9,1.5,1.4c0,0.6-0.2,1.4-1.5,1.4h-5.9v3.1c0,0.4,0.2,0.6,0.6,0.6h6.3
		c0.9,0,1.5,0.4,1.5,1.4S91.2,73,90.2,73h-7.6c-1.9,0-2.7-0.7-2.7-2.7V60c0-2.1,0.9-2.7,2.7-2.7h7.1c0.8,0,1.5,0.3,1.5,1.4
		c0,0.8-0.3,1.5-1.5,1.5h-5.9c-0.4,0-0.6,0.2-0.6,0.6v2.7L89.1,63.6L89.1,63.6z"/>
</g>
</svg>
