<svg width="158" height="30" viewBox="0 0 158 30" fill="none" xmlns="http://www.w3.org/2000/svg">
<path d="M4.29998 29.1C2.29998 29.1 0.599976 27.4 0.599976 25.4V4.6C0.599976 2.6 2.29998 0.900002 4.29998 0.900002H152.9C154.9 0.900002 156.6 2.6 156.6 4.6V25.3C156.6 27.3 154.9 29 152.9 29L4.29998 29.1Z" fill="url(#paint0_linear)" stroke="#FF3926" stroke-miterlimit="10"/>
<path d="M152.9 27.2H47.8H39.7H4.29996C3.29996 27.2 2.39996 26.4 2.39996 25.4V4.7C2.39996 3.7 3.19996 2.90001 4.29996 2.90001H39.7V2.8H152.9C153.9 2.8 154.8 3.6 154.8 4.6V25.4C154.8 26.4 153.9 27.2 152.9 27.2Z" fill="url(#paint1_linear)"/>
<path d="M69.9 15.7C69.6 16.9 68.6 19.2 67.8 20L66.9 18.8C67.4 18.3 67.9 17.6 68.8 15.1L69.9 15.7ZM69.3 12.3C69.1 12.1 68.1 11.2 67.1 10.5L67.9 9.5C68.4 9.8 69.2 10.4 70.2 11.2L69.3 12.3ZM73.3 12.8H74.7V13.9C74.7 15.5 75.5 17.7 78.5 19.2L77.7 20.4C75.1 18.9 74.4 17.2 74.1 16.6C73.9 17.3 73.1 19.4 69.7 20.4L69 19.1C72.3 18.4 73.3 16.4 73.3 13.9V12.8ZM73.5 9.2C73.4 9.8 73.2 10.4 73 11H78.3V12.2C78.1 13.1 77.4 14.5 76.8 15.3L75.6 14.7C76.1 14.1 76.7 13.1 76.9 12.2H72.5C72.2 12.9 71.5 14 70.7 14.7L69.7 13.8C70.6 13 71.5 12 72.3 9.1L73.5 9.2Z" fill="white"/>
<path d="M89.3 18.3C88 17.2 86.7 16 85 14.3C83.6 12.9 83.5 12.9 83.2 12.9C83 12.9 82.7 13 82.1 13.7C81.5 14.4 80.6 15.5 80 16.2L79 15C79.5 14.6 81.3 12.6 81.7 12.3C82.2 11.9 82.5 11.6 83.2 11.6C84 11.6 84.5 12 85.6 13.1C86.2 13.7 87.8 15.1 88.5 15.7C89.4 16.4 89.9 16.8 90.1 16.9L89.3 18.3Z" fill="white"/>
<path d="M9.39997 8.2H20.4C21.1 8.2 21.7 8.8 21.7 9.5V20.5C21.7 21.2 21.1 21.8 20.4 21.8H9.39997C8.69997 21.8 8.09998 21.2 8.09998 20.5V9.5C8.09998 8.8 8.69997 8.2 9.39997 8.2Z" fill="white"/>
<path d="M10.8 14.5L14 18.9L19 11" stroke="#FF4A3D" stroke-width="2" stroke-miterlimit="10" stroke-linecap="round" stroke-linejoin="round"/>
<defs>
<linearGradient id="paint0_linear" x1="78.6" y1="-0.568798" x2="78.6" y2="35.4985" gradientUnits="userSpaceOnUse">
<stop stop-color="#FF937D"/>
<stop offset="0.5" stop-color="#FF7B60"/>
<stop offset="1" stop-color="#FF4A3D"/>
</linearGradient>
<linearGradient id="paint1_linear" x1="78.6" y1="-18.2299" x2="78.6" y2="26.0582" gradientUnits="userSpaceOnUse">
<stop stop-color="#FF8066"/>
<stop offset="0.5" stop-color="#FF6A4D"/>
<stop offset="1" stop-color="#FF3926"/>
</linearGradient>
</defs>
</svg>
