<svg width="1262" height="259" viewBox="0 0 1262 259" fill="none" xmlns="http://www.w3.org/2000/svg">
<path d="M16.2 258.6C7.49995 258.6 0.199951 248.4 0.199951 235.8V34.3C0.199951 21.6 7.59995 10.9 16.2 10.9H1245.8C1254.5 10.9 1261.8 21.7 1261.8 34.3V235.2C1261.8 247.9 1254.4 258.6 1245.8 258.6H16.2Z" fill="#B2B2B2"/>
<path d="M16.2 248.6C7.49995 248.6 0.199951 238.4 0.199951 225.8V24.3C0.199951 11.6 7.59995 0.900002 16.2 0.900002H1245.8C1254.5 0.900002 1261.8 11.7 1261.8 24.3V225.2C1261.8 237.9 1254.4 248.6 1245.8 248.6H16.2Z" fill="#FF9100"/>
<path d="M121.9 170.7C114.4 167.7 105.2 162.4 97 154L105.9 148.1H90.4V162.6C90.4 164.8 90.4 171.3 81.9 171.3H63.7L61.2 159C51.2 166.8 46.1 169 43.1 170.2L34.4 158C46.1 154 52.4 148.9 53.5 148.1H45V126.4H121V148.1H110.7C113.4 150.2 121.4 155.4 131.2 158.3L121.9 170.7ZM122.6 79.5V110.3H90.2V113.6H130.2V123.2H35.7V113.6H75.3V110.3H43.5V79.5H122.6ZM107.8 88.8H58.1V92.3H107.8V88.8ZM107.8 98.8H58.1V102.3H107.8V98.8ZM67.7 153C64.7 156.2 63.6 157.2 61.8 158.6H72.7C74.3 158.6 75.5 158.2 75.5 156V148.1H58.4L67.7 153ZM106.5 134.6H59.6V139.6H106.5V134.6Z" fill="white"/>
<path d="M179 122.6V169.3H138.5V122.6H179V122.6ZM218 79.5V116.8H147.9V79.5H218ZM152.6 136.1V155.7H164.8V136.1H152.6ZM162.5 92.5V104.1H203.5V92.5H162.5ZM227.2 122.6V169.3H185.1V122.6H227.2V122.6ZM199.1 136.1V155.7H213V136.1H199.1Z" fill="white"/>
<path d="M282.2 151C295.4 150 311.5 144.2 311.5 122.3C311.5 104.9 300.9 98.9 290.8 97.9C290.5 104.1 287 158.2 259.8 158.2C245 158.2 238.9 141.8 238.9 128.2C238.9 98.7 261.3 82.7 286 82.7C315.1 82.7 328.3 101.3 328.3 123C328.3 130.5 326.7 146 314.3 156.5C307.2 162.5 297.2 165.4 287.4 166.4L282.2 151ZM254.3 128.6C254.3 132 255.3 141 260.5 141C266.1 141 272.8 128.5 275.5 98.8C262.9 101.9 254.3 113.8 254.3 128.6Z" fill="white"/>
<path d="M414.3 121.5H403.7V129.1H429.7V142.4H403.7V153.3C403.7 155.8 404.5 156.5 406.6 156.5H413.5C416.3 156.5 417.4 155.8 417.6 145.6L432.1 148.1C431.3 163.4 429.3 170.2 421.1 170.2H396.7C391.7 170.2 388.5 166.7 388.5 162.5V142.4H377.3C374.8 154.5 367.9 165.7 344.3 171.9L336.7 157.3C349.3 155.4 358.6 151 361.7 142.4H339V129.1H363.7V121.5H354.3V116.9C348.8 119.9 345.8 121.3 341.6 123.3L335.1 108.7C339.7 107.3 342.7 106.3 347.9 103.9C344.1 100.2 340.3 97.2 338.7 96L345.9 89V78.9H390.7C392.7 81.7 393.9 83.3 396.6 86.3C397.7 85.3 402.3 81.3 406.5 76L417.5 82.2C412.3 88.2 406.5 93.7 405.6 94.5C407.4 95.9 407.7 96 409.8 97.3C417.4 89.9 420 86.6 421.6 84.5L432.5 91.1C428.6 96 426.2 98.4 421.1 103.4C426.1 105.7 428.4 106.7 433.3 108.6L427.1 122.9C421.8 120.9 418.8 119.5 414.3 117V121.5ZM352 90.5C354.9 92.7 357 94.4 359.8 97.2C364.2 94.2 365.9 92.7 368.4 90.5H352ZM400.9 108.3C395.4 104.1 390.7 100.2 384.3 92.8C380.4 97.6 376.8 101.5 367.8 108.3H400.9ZM388.5 121.5H378.4V129.1H388.5V121.5Z" fill="white"/>
<path d="M509.9 125.7C517.6 136.7 528.9 140.1 532.6 141.2L524.1 154.5H533.4L530.5 169H478.9C471 169 462.4 166.7 456.3 158.5C452.7 162.8 448.3 167.3 441.7 171.7L435.8 155.1C439.3 153.4 441.8 151.9 446.1 148.3V127.6H437.4V113.6H460.5V142.7C461.2 145.8 462.7 152.2 473.6 154.1L464.4 141.4C468.6 139.9 480.1 135.8 485.9 125.7H464V111.5H490V102.8H466.7V88.6H475.6C474.5 85.5 473.7 83.8 471.1 78.8L485.8 76.1C487.9 80.6 490.3 86.9 491 88.6H503.8C505.7 85.2 507.6 79.6 508.5 76.1L523.6 78.4C522.9 80.2 522.2 82.5 519.1 88.6H528.7V102.8H504.5V111.5H531.5V125.7H509.9ZM448 77.2C453.3 81.3 457.8 85.4 464.9 93.5L453.7 104.4C451.7 101.7 445.7 93.9 438 87.7L448 77.2ZM522.2 154.5C510.8 149.5 503.3 142.1 497.9 130.8C493.4 142.3 483.2 150.6 475.8 154.4C477.1 154.5 477.7 154.5 480.5 154.5H522.2V154.5Z" fill="white"/>
<path d="M624.2 171.4C620 168.2 607.7 158.7 601.1 137.6C593 158.6 582 167.5 577.3 171.4L568.5 157.6V171.4H553.5V142.2C550 145 540.5 150.7 537.9 152.2L535.1 135.4C538.5 134 548.7 129 553.5 125.4V108.6L543.3 115C541.3 107.8 537.6 99.4 535 94.3L546 86.5C549.1 91.9 552.4 100 553.5 102.6V76.6H568.5V156.7C585.4 143.8 589.4 128.8 591.4 114.8H571.4V100.1H592.2V76.6H607.8V100.1H631.5V114.8H607.8C613.5 142.6 628.4 153.3 633 156.6L624.2 171.4ZM621.2 77C623.2 79.8 628.1 86.6 630.6 93.1L618.8 98.4C618 96.1 616.4 91.3 610.3 81.8L621.2 77Z" fill="white"/>
<path d="M664.5 136.5C660.9 146.5 651.7 163.4 645.1 171.6L635.1 158C641.4 150.2 648.4 138.8 652.9 128L664.5 136.5ZM643.4 101.5C648.8 103.8 656 108 660.8 112.3L652.1 124.7C647.6 120.7 640.2 115.8 635.4 113.4L643.4 101.5ZM646.6 76C649.5 77.1 657.7 80.3 664.3 86.2L655.4 98.9C651.4 95.3 642.9 90 638.2 88L646.6 76ZM698.1 125H691.2C691.2 147.1 686.1 159.2 666.2 171.8L656.3 159.1C670.6 152 677.8 143.2 677.7 125H667.1V79.6H728.3V125H712.2V153.1C712.2 154.1 712.2 156 713.8 156H716.2C718.6 156 718.7 154.7 718.8 153.5C718.8 153.2 719.2 145.2 719.2 139.8L731.8 143C731.7 145.4 731.4 157.5 731 160.2C730.2 166.7 728.7 170.7 721.7 170.7H706.9C698.5 170.7 698.1 165 698.1 161.6V125V125ZM682.1 93.2V111.4H713.1V93.2H682.1Z" fill="white"/>
<path d="M817.5 88.2V101.6H776.6C775.4 104.6 774.5 106.3 772.4 110.3C776.6 108.3 779.8 106.8 784.7 106.8C794.1 106.8 797.8 111.3 800 116.1C803.2 114.9 813.6 110.9 822.8 108.5L825.7 123.3C818.1 124.9 812.8 126.2 802.9 129.4C803.1 131.6 803.4 136.4 803.1 145.5H788.1C788.6 139.9 788.5 136.3 788.4 135.1C783.9 137.3 777.3 140.6 777.3 146C777.3 152.1 784.6 152.4 795 152.4C802.7 152.4 812.4 152.1 820.1 151.1V166.1C805.2 166.5 802.1 166.5 798.6 166.5C783.6 166.5 760.9 166 760.9 148C760.9 134.6 776.4 126.8 786.1 122C784.8 119.7 782.3 119 779.8 119C774 119 766.1 123.8 761.8 129.8C754 140.8 751.7 143.1 750.3 144.5L739.6 133.6C746.3 126.8 754.7 117.6 760.8 101.6H743.6V88.2H764.8C765.6 84.5 766 82.6 766.5 79.1L783 80C782 84.6 781.7 85.9 781 88.2H817.5Z" fill="white"/>
<path d="M903.9 77.4C903.7 78.3 902.7 82.2 902.5 83H927.5V104.1H915C914.2 105.6 914.1 105.9 913.3 107.2H927.9V118.9H912.2V124.2H925.2V134.9H912.2V140.1H925.2V150.8H912.2V157.5H929V169.8H874.7V132.5C873.8 133.2 873.5 133.4 872.7 134.1L868.3 124.8V169.3H839.7V137C838.4 138.4 838.2 138.7 836.5 140.2L832.2 121.3C839.1 113 841.9 101.7 842.6 93.6H834.1V79.7H870.4V83H888.2C888.9 79.8 889.2 78.7 889.7 76L903.9 77.4ZM857.5 123.5H851.8V155.5H857.5V123.5ZM868.3 118.3C877 111.3 881.2 104.6 884.4 96H878.2V105.4H866V93.6H856.3C855 102.3 854.2 105.7 852.9 110.3H868.3V118.3ZM899.2 118.6H888.5V124.2H899.2V118.6ZM899.2 134.4H888.5V140.1H899.2V134.4ZM899.2 150.4H888.5V157.5H899.2V150.4ZM898.5 96C897 100.3 896 102.8 894 107.2H899.4C900.5 105 901.4 103.1 902.9 98.4L914.2 99.8V96H898.5Z" fill="white"/>
<path d="M971.3 93.8V105.8H934.2V93.8H971.3ZM968.6 79V90.7H936.7V79H968.6ZM977.3 94.8C981.3 95.7 983.3 96.2 986.9 97.3C987.4 95.2 987.6 94 987.9 92H973.7V79.5H1026.3C1026.3 94.6 1026.1 110.5 1024.3 117.2C1023 121.9 1020.4 125 1013.3 125H1003.5L1001.7 115.8L1001.1 116.9C998.7 115.4 996.7 114.2 993.4 112.6C990 117.3 986.2 122.4 976.4 129.1L968.6 119.6V120.6H936.7V108.9H968.6V118.3C973.5 115.7 977.8 112.2 981.4 107.7C978.4 106.7 977.5 106.5 972.7 105.1L977.3 94.8ZM968.6 123.9V135.4H936.7V123.9H968.6V123.9ZM984.6 139C983.9 145.9 981.6 158.2 976.5 168.6L968.6 163.6V170.2H936.7V138.7H968.6V155.9C971.2 149.5 972.6 143.3 973.1 136.9L984.6 139ZM957.9 149.8H949.6V158.3H957.9V149.8ZM1021 134.5C1025.1 142.5 1028.7 153.9 1030.2 163.4L1017.5 168.7C1016.6 162.1 1015.9 158.5 1014.6 153.1C1014.1 159.4 1013.7 163.5 1011.9 166.7C1010.4 169.5 1007.1 170.6 1004.8 170.6H992.6C987.8 170.6 985.1 167.5 985.1 163.5V137.4H997.2V154.4C997.2 156.4 997.5 157.2 998.5 157.2H1001.7C1003.6 157.2 1003.9 155.5 1004.3 148.5L1014.1 151.5C1012.7 146.2 1011.6 143.1 1009.9 138.8L1021 134.5ZM1003.7 141.8C997.9 136.5 992.9 133.2 985.3 129.3L992.6 120.4C996.7 122.2 1005 126.6 1011.2 132.3L1003.7 141.8ZM1008.3 112.4C1011.4 112.4 1012.9 112 1012.8 92H1001.3C1000.7 95.3 1000.3 97.4 998.9 101.6C1003.6 103.5 1005.2 104.4 1007.5 105.8L1003.7 112.4H1008.3V112.4Z" fill="white"/>
<path d="M1124.1 89.2V103.7H1099.2V124.3C1099.9 127.7 1100.6 131.8 1100.6 135.7C1100.6 145.8 1096.8 157.1 1084.1 162.9C1077.5 165.9 1067.7 167.6 1057.5 167.9L1052.6 153.8C1080 154 1082.4 147.8 1083.7 144.2C1080.8 146.9 1078.4 147.6 1074.2 147.6C1062.5 147.6 1055.1 138.2 1055.1 127.6C1055.1 115 1064.5 107.4 1076 107.4C1079.4 107.4 1081.3 108 1083.5 108.9L1083.4 103.7H1038.6V89.2H1083.1L1082.8 80H1099.2V89.2H1124.1V89.2ZM1084 125.7C1083.6 123.5 1083 119.1 1077 119.1C1072.9 119.1 1069.1 122 1069.1 127.5C1069.1 130.2 1070.4 136.2 1076.9 136.2C1081.4 136.2 1084 133.2 1084 128.9V125.7V125.7Z" fill="white"/>
<path d="M1204.3 94.5C1201.6 96.3 1197.1 99.4 1183.3 109.8C1186 109.3 1189.2 108.7 1192.6 108.7C1204.1 108.7 1220.6 115.1 1220.6 135.9C1220.6 155.2 1205.3 167.2 1183 167.2C1161.3 167.2 1155.5 156.5 1155.5 149.2C1155.5 140 1163.7 132.7 1174.9 132.7C1185.3 132.7 1195.1 139 1199.1 148.6C1205 143.9 1205 137.5 1205 136.3C1205 126.5 1196.8 121.5 1186.1 121.5C1170.7 121.5 1160.2 130.4 1145.5 144.3L1136.5 130.9C1156.4 116.1 1172.7 102 1178 97.3C1168.8 97.9 1164.6 98.1 1147.9 98.5V83C1158.9 83.1 1178.1 83.3 1204.3 82.3V94.5V94.5ZM1174.6 144.8C1172.1 144.8 1169.2 146.1 1169.2 148.7C1169.2 154.4 1178.2 154.8 1181.2 154.8C1183.9 154.8 1185.4 154.5 1186.6 154.3C1184.1 148.4 1180.2 144.8 1174.6 144.8Z" fill="white"/>
</svg>
