<svg width="158" height="30" viewBox="0 0 158 30" fill="none" xmlns="http://www.w3.org/2000/svg">
<path d="M4.29998 29.1C2.29998 29.1 0.599976 27.4 0.599976 25.4V4.59999C0.599976 2.59999 2.29998 0.899994 4.29998 0.899994H152.9C154.9 0.899994 156.6 2.59999 156.6 4.59999V25.3C156.6 27.3 154.9 29 152.9 29L4.29998 29.1Z" fill="url(#paint0_linear)" stroke="#FF3926" stroke-miterlimit="10"/>
<path d="M152.9 27.2H47.8H39.7H4.29996C3.29996 27.2 2.39996 26.4 2.39996 25.4V4.69999C2.39996 3.69999 3.19996 2.89999 4.29996 2.89999H39.7V2.79999H152.9C153.9 2.79999 154.8 3.59999 154.8 4.59999V25.4C154.8 26.4 153.9 27.2 152.9 27.2Z" fill="url(#paint1_linear)"/>
<path d="M33 13.5H36.8V14.7H33C32.8 18.3 30.4 19.3 28 19.8L27.4 18.6C30.9 17.9 31.6 16.7 31.7 14.7H27V13.5H31.8V11.8C29.5 12 28.3 12 27.6 12L27.3 10.8C30.1 10.8 32.9 10.5 35.2 9.70001L35.9 10.9C34.7 11.2 34 11.4 33 11.6V13.5V13.5Z" fill="white"/>
<path d="M43.2 18.1H46.7V19.3H38.5V18.1H41.9V13.7H38.9V12.5H46.2V13.7H43.2V18.1V18.1Z" fill="white"/>
<path d="M49 15.8C48.8 14.6 48.4 13.7 48 12.8L49.1 12.5C49.6 13.5 49.9 14.7 50.1 15.5L49 15.8ZM48.9 18.9C52.8 18.1 54.3 16.5 55 12.2L56.3 12.5C55.5 16.1 54.3 18.8 49.8 19.9L48.9 18.9ZM51.6 15.3C51.5 14.7 51.3 13.6 50.8 12.4L51.9 12.2C52.3 13.1 52.6 14.3 52.8 15.1L51.6 15.3Z" fill="white"/>
<path d="M58.1 18.6C61.6 17.9 64.6 16 65.3 11.4H61.3C60.5 12.7 59.6 13.7 58.2 14.6L57.3 13.6C58.7 12.7 59.6 11.6 60.3 10.2H66.8C66.3 16.4 62.8 19 58.6 19.9L58.1 18.6Z" fill="white"/>
<path d="M70.7 9.70001C70.6 12.2 70.5 14.9 70.5 15.6C70.5 17.1 70.6 18.5 72.7 18.5C75.7 18.5 76.1 16.3 76.4 14.6L77.7 15.1C77.3 17.3 76.4 19.7 72.8 19.7C69.5 19.7 69.2 17.6 69.2 15.5C69.2 14.6 69.3 10.5 69.3 9.70001H70.7Z" fill="white"/>
<path d="M78.7 19.5C79.8 17.1 80.5 13.7 80.7 12.4H79V11.1H80.8C80.9 10.3 80.9 10.1 80.9 9.60001H82.3C82.2 10.3 82.2 10.6 82.1 11.1H85.2V12.4H81.9C81.3 15.6 80.6 18.3 79.9 20L78.7 19.5ZM84.6 16.5C84.4 16.8 84.2 17.1 84.2 17.5C84.2 18.4 85.4 18.5 86.8 18.5C87.2 18.5 88.3 18.5 89 18.4V19.7C88.2 19.7 87.5 19.7 86.7 19.7C85.1 19.7 84.4 19.6 83.8 19.2C83.3 18.9 82.8 18.3 82.8 17.6C82.8 16.9 83.2 16.3 83.4 15.9L84.6 16.5ZM88.8 14.1C88.5 14.1 88.1 14.1 87.5 14.1C86 14.1 85.1 14.3 84.3 14.6L83.8 13.5C85 13 86 12.8 88.7 12.8V14.1H88.8Z" fill="white"/>
<path d="M100.7 20.2C98.9 19.4 98.2 18.7 97.8 18.3L98.7 17.7H96.5V19.5C96.5 19.8 96.2 20.3 95.5 20.3H93.7L93.4 19.1H95C95.2 19.1 95.3 19.1 95.3 18.8V17.6H92.9L93.8 18.2C93.1 18.9 91.7 19.7 90.8 20L90.1 19C91.9 18.3 92.4 17.8 92.7 17.5H91.4V15H100.2V17.7H98.8C99.5 18.2 100.2 18.7 101.5 19.3L100.7 20.2ZM100.5 9.5V13H96.4V13.5H101.4V14.5H90.2V13.5H95.2V13H91.2V9.5H100.5ZM99.3 10.4H92.5V11H99.3V10.4ZM99.3 11.6H92.5V12.1H99.3V11.6ZM99.1 15.9H92.6V16.8H99.1V15.9Z" fill="white"/>
<path d="M107.2 14.7V20.1H102.5V14.7H107.2ZM111.9 9.5V13.8H103.7V9.5H111.9ZM103.7 15.8V19H106.1V15.8H103.7ZM104.9 10.6V12.6H110.8V10.6H104.9ZM113 14.7V20.1H108.1V14.7H113ZM109.3 15.8V19H111.9V15.8H109.3Z" fill="white"/>
<path d="M123.7 10.7V11.9H118.5C118.3 12.6 118.1 12.9 117.8 13.4C118.5 13 118.9 12.8 119.6 12.8C120.6 12.8 121.2 13.2 121.5 14.1C122.1 13.9 123.4 13.3 124.4 13L124.7 14.3C123 14.7 121.8 15.2 121.7 15.2C121.8 15.7 121.8 16.3 121.8 16.5C121.8 16.9 121.8 17.1 121.8 17.4H120.5C120.6 16.6 120.6 16 120.5 15.7C119.2 16.3 118.4 16.9 118.4 17.6C118.4 18.6 119.6 18.6 120.9 18.6C121.2 18.6 122.6 18.6 124 18.4V19.7C123.2 19.7 122.2 19.8 121.2 19.8C119.8 19.8 117 19.8 117 17.8C117 16.1 119.2 15 120.2 14.6C120.1 14.2 119.9 13.9 119.3 13.9C118.6 13.9 117.8 14.4 117.1 15C117.1 15 115.6 16.9 115.3 17.2L114.4 16.2C115.8 14.9 116.5 13.6 117.1 11.9H114.8V10.7H117.5C117.6 10.3 117.7 9.90001 117.7 9.40001L119.1 9.50001C119 10 119 10.2 118.8 10.7H123.7V10.7Z" fill="white"/>
<path d="M136.9 10.7C136.7 11 136.2 11.6 135.3 12.4C135.8 12.7 136.2 12.9 137.1 13.3L136.6 14.4C136 14.1 135.6 13.9 134.9 13.5V14.3H133.4V15.7H136.7V16.8H133.4V18.7C133.4 19 133.5 19 133.7 19H135.2C135.7 19 135.7 18.7 135.8 17.6L137 17.8C136.8 19.5 136.7 20.2 135.7 20.2H133.2C132.7 20.2 132.1 20.1 132.1 19.4V16.8H130.2C129.8 19 128 20 126.3 20.4L125.7 19.2C127.6 19 128.8 18 129 16.8H126V15.7H129.2V14.3H127.8V13.6C127.2 14 126.8 14.2 126.2 14.5L125.6 13.4C126.3 13.2 126.8 13 127.7 12.4C127.5 12.2 126.9 11.7 126.3 11.2L127 10.6H126.9V9.6H132.1C132.4 10.1 132.6 10.3 132.9 10.7C133.5 10.2 133.9 9.7 134.3 9.3L135.3 9.90001C134.8 10.5 134.3 11 133.8 11.5C134 11.7 134.2 11.8 134.5 12C135.2 11.4 135.7 10.9 136.1 10.3L136.9 10.7ZM127.3 10.5C127.9 10.9 128.6 11.6 128.7 11.6C129.3 11.2 129.6 10.9 130 10.5H127.3ZM134.3 13.1C132.9 12.2 131.8 11 131.3 10.5C130.9 11 130.1 11.9 128.4 13.1H134.3ZM132.1 14.3H130.3V15.7H132.1V14.3Z" fill="white"/>
<path d="M137.8 13.7H140.2V17.3C140.6 18.8 142.3 18.8 142.9 18.8H149.1L148.9 20H142.9C142 20 140.6 19.8 140 18.6C139.5 19.3 138.9 19.9 138.3 20.3L137.7 19C137.8 19 138.7 18.5 139.1 17.9V14.9H137.9V13.7H137.8ZM138.8 9.30001C139.5 9.90001 140.1 10.7 140.6 11.5L139.6 12.3C139 11.3 138.1 10.3 137.9 10.1L138.8 9.30001ZM144.2 13.5V12H141.2V10.9H142.7C142.5 10.5 142.2 9.90001 141.9 9.40001L143.1 9.10001C143.5 9.80001 143.8 10.6 143.9 10.8H145.7C146.1 10.1 146.5 9.20001 146.5 9.10001L147.7 9.40001C147.5 10 147.1 10.6 147 10.9H148.6V12H145.4V13.5H148.9V14.7H145.8C146.4 15.8 147.4 16.7 149.1 17.3L148.4 18.5C145.8 17.4 145.2 15.9 145 15.3C144.4 16.8 143.2 17.9 141.8 18.5L141 17.4C143.2 16.4 143.7 15.5 144 14.8H140.9V13.6H144.2V13.5Z" fill="white"/>
<path d="M9.39997 8.2H20.4C21.1 8.2 21.7 8.8 21.7 9.5V20.5C21.7 21.2 21.1 21.8 20.4 21.8H9.39997C8.69997 21.8 8.09998 21.2 8.09998 20.5V9.5C8.09998 8.8 8.69997 8.2 9.39997 8.2Z" fill="white"/>
<path d="M10.8 14.5L14 18.9L19 11" stroke="#FF4A3D" stroke-width="2" stroke-miterlimit="10" stroke-linecap="round" stroke-linejoin="round"/>
<defs>
<linearGradient id="paint0_linear" x1="78.6" y1="-0.568806" x2="78.6" y2="35.4985" gradientUnits="userSpaceOnUse">
<stop stop-color="#FF937D"/>
<stop offset="0.5" stop-color="#FF7B60"/>
<stop offset="1" stop-color="#FF4A3D"/>
</linearGradient>
<linearGradient id="paint1_linear" x1="78.6" y1="-18.2299" x2="78.6" y2="26.0582" gradientUnits="userSpaceOnUse">
<stop stop-color="#FF8066"/>
<stop offset="0.5" stop-color="#FF6A4D"/>
<stop offset="1" stop-color="#FF3926"/>
</linearGradient>
</defs>
</svg>
