<svg width="158" height="30" viewBox="0 0 158 30" fill="none" xmlns="http://www.w3.org/2000/svg">
<path d="M4.29998 29.1C2.29998 29.1 0.599976 27.4 0.599976 25.4V4.6C0.599976 2.6 2.29998 0.900002 4.29998 0.900002H152.9C154.9 0.900002 156.6 2.6 156.6 4.6V25.3C156.6 27.3 154.9 29 152.9 29L4.29998 29.1Z" fill="url(#paint0_linear)" stroke="#FF3926" stroke-miterlimit="10"/>
<path d="M152.9 27.2H47.8H39.7H4.29996C3.29996 27.2 2.39996 26.4 2.39996 25.4V4.7C2.39996 3.7 3.19996 2.90001 4.29996 2.90001H39.7V2.8H152.9C153.9 2.8 154.8 3.6 154.8 4.6V25.4C154.8 26.4 153.9 27.2 152.9 27.2Z" fill="url(#paint1_linear)"/>
<path d="M54.7 10.7C54.5 11 54 11.6 53.1 12.4C53.6 12.7 54 12.9 54.9 13.3L54.4 14.4C53.8 14.1 53.4 13.9 52.7 13.5V14.3H51.2V15.7H54.5V16.8H51.2V18.7C51.2 19 51.3 19 51.5 19H53C53.5 19 53.5 18.7 53.6 17.6L54.8 17.8C54.6 19.5 54.5 20.2 53.5 20.2H51C50.5 20.2 49.9 20.1 49.9 19.4V16.8H48C47.6 19 45.8 20 44.1 20.4L43.5 19.2C45.4 19 46.6 18 46.8 16.8H43.8V15.7H47V14.3H45.6V13.6C45 14 44.6 14.2 44 14.5L43.4 13.4C44.1 13.2 44.6 13 45.5 12.4C45.3 12.2 44.7 11.7 44.1 11.2L44.8 10.6H44.7V9.6H49.9C50.2 10.1 50.4 10.3 50.7 10.7C51.3 10.2 51.7 9.7 52.1 9.3L53.1 9.90001C52.6 10.5 52.1 11 51.6 11.5C51.8 11.7 52 11.8 52.3 12C53 11.4 53.5 10.9 53.9 10.3L54.7 10.7ZM45.1 10.5C45.7 10.9 46.4 11.6 46.5 11.6C47.1 11.2 47.4 10.9 47.8 10.5H45.1ZM52.1 13.1C50.7 12.2 49.6 11 49.1 10.5C48.7 11 47.9 11.9 46.2 13.1H52.1ZM50 14.3H48.2V15.7H50V14.3Z" fill="white"/>
<path d="M55.6 13.7H58V17.3C58.4 18.8 60.1 18.8 60.7 18.8H66.9L66.7 20H60.7C59.8 20 58.4 19.8 57.8 18.6C57.3 19.3 56.7 19.9 56.1 20.3L55.4 19C55.5 19 56.4 18.5 56.8 17.9V14.9H55.6V13.7V13.7ZM56.6 9.3C57.3 9.9 57.9 10.7 58.4 11.5L57.4 12.3C56.8 11.3 55.9 10.3 55.7 10.1L56.6 9.3ZM62.1 13.5V12H59.1V10.9H60.6C60.4 10.5 60.1 9.9 59.8 9.4L61 9.1C61.4 9.8 61.7 10.6 61.8 10.8H63.6C64 10.1 64.4 9.2 64.4 9.1L65.6 9.4C65.4 10 65 10.6 64.9 10.9H66.5V12H63.3V13.5H66.8V14.7H63.7C64.3 15.8 65.3 16.7 67 17.3L66.3 18.5C63.7 17.4 63.1 15.9 62.9 15.3C62.3 16.8 61.1 17.9 59.7 18.5L58.9 17.4C61.1 16.4 61.6 15.5 61.9 14.8H58.8V13.6H62.1V13.5Z" fill="white"/>
<path d="M68.7 14.5C68.4 15 68.2 15.2 68 15.4L67.4 14C68.9 12.2 69.3 10 69.4 9.1L70.7 9.2C70.6 9.7 70.5 10.5 69.9 12.1V20.4H68.7V14.5ZM78.8 13.8C78 14.7 77 15.6 76.4 16C77 17.2 77.9 18.4 79 19.3L78 20.4C76 18.5 74.6 16.1 74.2 13.4C73.9 13.9 73.6 14.4 73.1 15V18.7C74.5 18.5 75 18.4 75.7 18.3V19.4C73.9 19.8 72.9 19.9 70.7 20.2V19C71.3 19 71.6 18.9 72 18.9V16.3C71.4 16.8 71 17.1 70.6 17.3L70.1 16C71.3 15.3 72.8 14.2 73.6 12.1H70.6V10.9H73.9V9.2H75.1V10.9H78.7V12H75.1C75.1 12.5 75.2 13.5 75.8 14.9C76.7 14.2 77.3 13.6 77.8 12.9L78.8 13.8Z" fill="white"/>
<path d="M84.6 19.6C85.4 19.2 86 18.8 86.7 18.1H85.7V11.5H87.1C87.2 11.3 87.3 10.8 87.4 10.6H85.3V11.3H83V12H85V15.8H83.2C83.8 16.7 84.4 17.3 85 17.7L84.3 18.7C83.9 18.3 83.6 17.9 83.1 17V20.4H82V16.8C81.8 17.2 81.2 18.5 80.1 19.6L79.6 18.5C81 17.3 81.6 16 81.8 15.7H80.1V11.9H82.1V11.2H79.8V10H82.1V9H83V10H85.2V9.4H90.8V10.5H88.5C88.4 10.9 88.3 11.1 88.2 11.4H90.5V18H89.3C90 18.6 90.3 18.9 91.1 19.3L90.4 20.3C89.7 19.8 89 19.3 88.4 18.7L89.3 17.9H86.7L87.6 18.6C87.2 19.1 86.3 19.9 85.4 20.3L84.6 19.6ZM81 13V14.7H81.9V13H81ZM83 13V14.7H83.9V13H83ZM86.8 12.5V13.3H89.3V12.5H86.8ZM86.8 14.2V15.1H89.3V14.2H86.8ZM86.8 16.1V17H89.3V16.1H86.8Z" fill="white"/>
<path d="M102.1 10.8V12H99V14.4C99.1 14.8 99.2 15.3 99.2 16C99.2 19.4 96 19.8 94.2 19.8L93.8 18.6C97.3 18.6 97.7 17.4 97.9 16.5C97.6 17.1 97.1 17.4 96.3 17.4C94.8 17.4 94 16.2 94 15C94 13.5 95.1 12.6 96.5 12.6C97.1 12.6 97.4 12.8 97.7 13V11.9H92V10.7H97.7V9.4H99.1V10.7H102.1V10.8ZM97.7 14.8C97.6 14.2 97.2 13.8 96.5 13.8C95.9 13.8 95.2 14.2 95.2 15.1C95.2 15.9 95.7 16.5 96.4 16.5C97.2 16.5 97.7 15.9 97.7 15.3V14.8Z" fill="white"/>
<path d="M111.4 11C110.4 11.7 109.3 12.6 108.3 13.4C108.8 13.3 109.4 13.1 110.1 13.1C111.8 13.1 113.3 14 113.3 16.2C113.3 18.6 111.3 19.8 109 19.8C106.9 19.8 105.8 18.9 105.8 17.7C105.8 16.7 106.7 15.9 107.9 15.9C108.8 15.9 110.3 16.4 110.8 18.1C111.7 17.6 112 16.8 112 16.1C112 15.2 111.6 14.1 109.6 14.1C107.5 14.1 106.1 15.3 104.4 16.8L103.6 15.7C103.9 15.4 106.1 13.8 109.2 11C107.8 11.1 106.8 11.1 104.8 11.2V10C107.6 10 108.7 10 111.3 9.9V11H111.4ZM107.9 17C107.3 17 107 17.4 107 17.7C107 18.2 107.6 18.7 108.9 18.7C109.2 18.7 109.5 18.6 109.8 18.6C109.4 17.7 108.9 17 107.9 17Z" fill="white"/>
<path d="M9.39997 8.2H20.4C21.1 8.2 21.7 8.8 21.7 9.5V20.5C21.7 21.2 21.1 21.8 20.4 21.8H9.39997C8.69997 21.8 8.09998 21.2 8.09998 20.5V9.5C8.09998 8.8 8.69997 8.2 9.39997 8.2Z" fill="white"/>
<path d="M10.8 14.5L14 18.9L19 11" stroke="#FF4A3D" stroke-width="2" stroke-miterlimit="10" stroke-linecap="round" stroke-linejoin="round"/>
<defs>
<linearGradient id="paint0_linear" x1="78.6" y1="-0.568798" x2="78.6" y2="35.4985" gradientUnits="userSpaceOnUse">
<stop stop-color="#FF937D"/>
<stop offset="0.5" stop-color="#FF7B60"/>
<stop offset="1" stop-color="#FF4A3D"/>
</linearGradient>
<linearGradient id="paint1_linear" x1="78.6" y1="-18.2299" x2="78.6" y2="26.0582" gradientUnits="userSpaceOnUse">
<stop stop-color="#FF8066"/>
<stop offset="0.5" stop-color="#FF6A4D"/>
<stop offset="1" stop-color="#FF3926"/>
</linearGradient>
</defs>
</svg>
