<?xml version="1.0" encoding="utf-8"?>
<!-- Generator: Adobe Illustrator 24.2.0, SVG Export Plug-In . SVG Version: 6.00 Build 0)  -->
<svg version="1.1" id="レイヤー_1" xmlns="http://www.w3.org/2000/svg" xmlns:xlink="http://www.w3.org/1999/xlink" x="0px"
	 y="0px" viewBox="0 0 1000 500" style="enable-background:new 0 0 1000 500;" xml:space="preserve">
<style type="text/css">
	.st0{fill:#B2B2B2;}
	.st1{fill:#35D3CF;}
	.st2{fill:#FFFFFF;}
</style>
<g>
	<g>
		<path class="st0" d="M190,383.6c-8.7,0-16-10.2-16-22.8V159.3c0-12.7,7.4-23.4,16-23.4h619.6c8.7,0,16,10.8,16,23.4v200.9
			c0,12.7-7.4,23.4-16,23.4H190L190,383.6z"/>
	</g>
	<path class="st1" d="M190,373.6c-8.7,0-16-10.2-16-22.8V149.3c0-12.7,7.4-23.4,16-23.4h619.6c8.7,0,16,10.8,16,23.4v200.9
		c0,12.7-7.4,23.4-16,23.4H190L190,373.6z"/>
</g>
<g>
	<path class="st2" d="M322.2,203.4c-0.2,0.9-1.2,4.8-1.4,5.6h25v21.1h-12.5c-0.8,1.5-0.9,1.8-1.7,3.1h14.6v11.7h-15.7v5.3h13v10.7
		h-13v5.2h13v10.7h-13v6.7h16.8v12.3H293v-37.3c-0.9,0.7-1.2,0.9-2,1.6l-4.4-9.3v44.5H258V263c-1.3,1.4-1.5,1.7-3.2,3.2l-4.3-18.9
		c6.9-8.3,9.7-19.6,10.4-27.7h-8.5v-13.9h36.3v3.3h17.8c0.7-3.2,1-4.3,1.5-7L322.2,203.4z M275.8,249.5h-5.7v32h5.7V249.5z
		 M286.6,244.3c8.7-7,12.9-13.7,16.1-22.3h-6.2v9.4h-12.2v-11.8h-9.7c-1.3,8.7-2.1,12.1-3.4,16.7h15.4V244.3z M317.5,244.6h-10.7
		v5.6h10.7V244.6z M317.5,260.4h-10.7v5.7h10.7V260.4z M317.5,276.4h-10.7v7.1h10.7V276.4z M316.8,222c-1.5,4.3-2.5,6.8-4.5,11.2
		h5.4c1.1-2.2,2-4.1,3.5-8.8l11.3,1.4V222H316.8z"/>
	<path class="st2" d="M389.6,219.8v12h-37.1v-12H389.6z M386.9,205v11.7H355V205H386.9z M395.6,220.8c4,0.9,6,1.4,9.6,2.5
		c0.5-2.1,0.7-3.3,1-5.3H392v-12.5h52.6c0,15.1-0.2,31-2,37.7c-1.3,4.7-3.9,7.8-11,7.8h-9.8l-1.8-9.2l-0.6,1.1
		c-2.4-1.5-4.4-2.7-7.7-4.3c-3.4,4.7-7.2,9.8-17,16.5l-7.8-9.5v1H355v-11.7h31.9v9.4c4.9-2.6,9.2-6.1,12.8-10.6
		c-3-1-3.9-1.2-8.7-2.6L395.6,220.8z M386.9,249.9v11.5H355v-11.5H386.9z M402.9,265c-0.7,6.9-3,19.2-8.1,29.6l-7.9-5v6.6H355v-31.5
		h31.9v17.2c2.6-6.4,4-12.6,4.5-19L402.9,265z M376.2,275.8h-8.3v8.5h8.3V275.8z M439.3,260.5c4.1,8,7.7,19.4,9.2,28.9l-12.7,5.3
		c-0.9-6.6-1.6-10.2-2.9-15.6c-0.5,6.3-0.9,10.4-2.7,13.6c-1.5,2.8-4.8,3.9-7.1,3.9h-12.2c-4.8,0-7.5-3.1-7.5-7.1v-26.1h12.1v17
		c0,2,0.3,2.8,1.3,2.8h3.2c1.9,0,2.2-1.7,2.6-8.7l9.8,3c-1.4-5.3-2.5-8.4-4.2-12.7L439.3,260.5z M422,267.8
		c-5.8-5.3-10.8-8.6-18.4-12.5l7.3-8.9c4.1,1.8,12.4,6.2,18.6,11.9L422,267.8z M426.6,238.4c3.1,0,4.6-0.4,4.5-20.4h-11.5
		c-0.6,3.3-1,5.4-2.4,9.6c4.7,1.9,6.3,2.8,8.6,4.2l-3.8,6.6H426.6z"/>
	<path class="st2" d="M547.3,219h-41.1v5.6h19.2v52.3h-50.7v-52.3h19.2V219h-41.3v-13.6h94.7V219z M470,223.4v58h59.7v-58h13.9v71.2
		h-87.3v-71.2H470z M493.9,236.4h-7.4v8.6h7.4V236.4z M493.9,256.1h-7.4v9.1h7.4V256.1z M513.7,236.4h-7.5v8.6h7.5V236.4z
		 M513.7,256.1h-7.5v9.1h7.5V256.1z"/>
	<path class="st2" d="M647.3,219.1H606c-0.6,3-1.1,4.6-1.8,6.6h38.9v69h-86.3v-69h31.3c0.7-1.7,1.5-4.4,1.8-6.6h-37.3v-13.7h94.7
		V219.1z M578.8,238.4h-7.7v43.2h7.7V238.4z M607.8,238.4h-16v6.9h16V238.4z M607.8,256h-16v7.1h16V256z M607.8,273.9h-16v7.7h16
		V273.9z M629.2,238.4h-7.9v43.2h7.9V238.4z"/>
	<path class="st2" d="M736.3,281.9c-6.9-5-9.1-7.1-38.1-35.1c-4.5-4.3-8-7.7-10.1-7.7c-2,0-4.5,2.9-7.1,5.9
		c-3.5,4.2-11.2,13-16.8,19.4l-10.5-14.6c3.6-2.9,18-17.3,21.1-20.1c7.4-6.8,11.8-6.8,13.9-6.8c7.3,0,10.6,3.1,21.9,13.5
		c1.2,1.1,21.3,19.7,35.8,28.9L736.3,281.9z"/>
</g>
</svg>
