<svg width="1262" height="259" viewBox="0 0 1262 259" fill="none" xmlns="http://www.w3.org/2000/svg">
<path d="M16.2 258.6C7.50001 258.6 0.200012 248.4 0.200012 235.8V34.3C0.200012 21.6 7.60001 10.9 16.2 10.9H1245.8C1254.5 10.9 1261.8 21.7 1261.8 34.3V235.2C1261.8 247.9 1254.4 258.6 1245.8 258.6H16.2Z" fill="#B2B2B2"/>
<path d="M16.2 248.6C7.50001 248.6 0.200012 238.4 0.200012 225.8V24.3C0.200012 11.6 7.60001 0.899994 16.2 0.899994H1245.8C1254.5 0.899994 1261.8 11.7 1261.8 24.3V225.2C1261.8 237.9 1254.4 248.6 1245.8 248.6H16.2Z" fill="#FF9100"/>
<path d="M364.5 116.6C367.8 118.9 373.5 122.9 380.2 128.5C395.6 118.6 401.6 108.5 404.1 104.3H341.5V89H427.6C422.6 112.8 408.8 126.2 391.5 138.7C399.4 146.7 400.3 147.5 406.2 154.4L392.1 166C378 146.8 362.3 134.7 352.2 127.3L364.5 116.6Z" fill="white"/>
<path d="M493.9 166.4H476.9V126.5C461.9 135.2 450.7 138.9 444.9 140.9L436.9 126.8C457.6 120.1 484.9 107.8 508.1 79.8L522.2 89.7C515.4 97.2 508.1 104.8 493.9 115.4V166.4V166.4Z" fill="white"/>
<path d="M532.1 127.4C535.8 123.2 551.6 104 554.9 100.2C560.3 93.8 563.9 92.2 568.6 92.2C573.6 92.2 577.2 93.7 584.5 101.6L625.6 146.6L613.1 161.3L573.6 115.8C570.9 112.7 569.4 111.8 568.1 111.8C566.2 111.8 565.2 113 562.6 116.6C559.6 120.6 546.7 138.4 544 142L532.1 127.4ZM623 93.7C623 101.6 616.5 108.1 608.6 108.1C600.6 108.1 594.1 101.6 594.1 93.7C594.1 85.6 600.7 79.2 608.6 79.2C616.5 79.2 623 85.6 623 93.7ZM601.3 93.7C601.3 97.7 604.6 100.9 608.6 100.9C612.7 100.9 615.8 97.5 615.8 93.7C615.8 89.6 612.5 86.3999 608.6 86.3999C604.8 86.3999 601.3 89.5 601.3 93.7Z" fill="white"/>
<path d="M722.4 115.7V132.2H636.8V115.7H722.4Z" fill="white"/>
<path d="M765 131.3C754.2 124.7 742.3 121.1 735.9 119.1L741.5 106C746.8 107.2 758.2 109.9 771.2 117.2L765 131.3ZM741.8 149C773.9 146.1 793.3 137.9 805.4 98.7L819.2 108.7C804.9 147.6 783.6 161.3 745.3 166.2L741.8 149ZM773.9 107.2C762.6 101.2 751.9 98.1 743.8 95.8L749.5 82.9C763.9 85.6 775.6 91 780.3 93.2L773.9 107.2ZM801.7 75C805.9 81.2 807.8 85.7 811.1 94.2L802.9 98.2C800.2 90 798.2 85.6 794 78.6L801.7 75ZM817.6 74.8C821.6 81.2 823.6 86.1 826.5 94.3L818.2 98.1C815.7 89.6 814 85.8 809.8 78.3L817.6 74.8Z" fill="white"/>
<path d="M913.7 155.9C906.8 150.9 904.6 148.8 875.6 120.8C871.1 116.5 867.6 113.1 865.5 113.1C863.5 113.1 861 116 858.4 119C854.9 123.2 847.2 132 841.6 138.4L831.1 123.8C834.7 120.9 849.1 106.5 852.2 103.7C859.6 96.9 864 96.9 866.1 96.9C873.4 96.9 876.7 100 888 110.4C889.2 111.5 909.3 130.1 923.8 139.3L913.7 155.9Z" fill="white"/>
</svg>
