<svg width="158" height="30" viewBox="0 0 158 30" fill="none" xmlns="http://www.w3.org/2000/svg">
<path d="M4.29998 29.0999C2.29998 29.0999 0.599976 27.3999 0.599976 25.3999V4.5999C0.599976 2.5999 2.29998 0.899902 4.29998 0.899902H152.9C154.9 0.899902 156.6 2.5999 156.6 4.5999V25.2999C156.6 27.2999 154.9 28.9999 152.9 28.9999L4.29998 29.0999Z" fill="url(#paint0_linear)" stroke="#B3B3B3" stroke-miterlimit="10"/>
<path d="M152.9 27.1998H47.8H39.7H4.30002C3.30002 27.1998 2.40002 26.3998 2.40002 25.3998V4.69981C2.40002 3.69981 3.20002 2.89981 4.30002 2.89981H39.7V2.7998H152.9C153.9 2.7998 154.8 3.5998 154.8 4.5998V25.3998C154.8 26.3998 153.9 27.1998 152.9 27.1998Z" fill="url(#paint1_linear)"/>
<path d="M44 20.2C42.2 19.4 41.5 18.7 41.1 18.3L42 17.7H39.8V19.5C39.8 19.8 39.5 20.3 38.8 20.3H37L36.7001 19.1H38.2001C38.4001 19.1 38.5 19.1 38.5 18.8V17.6H36.1L37 18.2C36.3 18.9 34.9 19.7 34 20L33.3 19C35.1 18.3 35.6001 17.8 35.9001 17.5H34.6V15H43.4001V17.7H42C42.7 18.2 43.4001 18.7 44.7001 19.3L44 20.2ZM43.7001 9.5V13H39.6V13.5H44.6V14.5H33.5V13.5H38.5V13H34.5V9.5H43.7001ZM42.5 10.4H35.7001V11H42.5V10.4ZM42.5 11.6H35.7001V12.1H42.5V11.6ZM42.3 15.9H35.8V16.8H42.3V15.9Z" fill="black"/>
<path d="M51.7 14.7V20.1H47V14.7H51.7ZM56.4 9.5V13.8H48.2V9.5H56.4ZM48.2 15.8V19H50.6V15.8H48.2ZM49.3 10.6V12.6H55.2V10.6H49.3ZM57.5 14.7V20.1H52.6V14.7H57.5ZM53.8 15.8V19H56.4V15.8H53.8Z" fill="black"/>
<path d="M59.9 14H71.1V15.3H59.9V14Z" fill="black"/>
<path d="M80.7 18.9C80.7 19 80.8 19.1 80.9 19.1H83C83.1 19.1 83.2 19.1 83.2 18.9C83.2 18.7 83.3 18.2 83.3 17.8L84.4 18.2C84.2 19.8 83.9 20.1 83.3 20.1H80.3C80 20.1 79.5 20.1 79.5 19.5V18.1H77.8C77.1 19.3 76.2 20 73.4 20.3L73 19.2C75.4 19.2 76.1 18.6 76.5 18.1H74.3V13.9H83.2V18.1H80.7V18.9V18.9ZM78.7 9.4V10.2H76.7V10.7H78.4V12.4H76.7V12.9H78.9V13.6H73.3V9.4H78.7ZM75.7 10.2H74.4V10.7H75.7V10.2ZM77.3 11.3H74.4V11.8H77.3V11.3ZM75.7 12.4H74.4V12.9H75.7V12.4ZM81.9 14.6H75.5V15.1H81.9V14.6ZM81.9 15.7H75.5V16.2H81.9V15.7ZM81.9 16.9H75.5V17.4H81.9V16.9ZM78.6 11.4C79.3 10.8 79.8 10.2 80.3 9L81.5 9.1C81.4 9.4 81.3 9.6 81.2 9.9H84.3V11H80.5C80.2 11.5 79.9 11.7 79.4 12.2L78.6 11.4ZM83.9 13.3H79.8V12.2H83.9V13.3Z" fill="black"/>
<path d="M95.8001 10.6999V11.8999H90.6001C90.4001 12.5999 90.2001 12.8999 89.9001 13.3999C90.6001 12.9999 91.0001 12.7999 91.7001 12.7999C92.7001 12.7999 93.3001 13.1999 93.6001 14.0999C94.2001 13.8999 95.5001 13.2999 96.5001 12.9999L96.8001 14.2999C95.1001 14.6999 93.9001 15.1999 93.8001 15.1999C93.9001 15.6999 93.9001 16.2999 93.9001 16.4999C93.9001 16.8999 93.9001 17.0999 93.9001 17.3999H92.6001C92.7001 16.5999 92.7001 15.9999 92.6001 15.6999C91.3001 16.2999 90.5001 16.8999 90.5001 17.5999C90.5001 18.5999 91.7001 18.5999 93.0001 18.5999C93.3001 18.5999 94.7001 18.5999 96.1001 18.3999V19.6999C95.3001 19.6999 94.3001 19.7999 93.3001 19.7999C91.9001 19.7999 89.1001 19.7999 89.1001 17.7999C89.1001 16.0999 91.3001 14.9999 92.3001 14.5999C92.2001 14.1999 92.0001 13.8999 91.4001 13.8999C90.7001 13.8999 89.9001 14.3999 89.2001 14.9999C89.2001 14.9999 87.7001 16.8999 87.4001 17.1999L86.5001 16.1999C87.9001 14.8999 88.6001 13.5999 89.2001 11.8999H86.9001V10.6999H89.6001C89.7001 10.2999 89.8001 9.8999 89.8001 9.3999L91.2001 9.4999C91.1001 9.9999 91.1001 10.1999 90.9001 10.6999H95.8001V10.6999Z" fill="black"/>
<path d="M106.3 18.7C106.3 19 106.5 19 106.6 19H108.4C109 19 109 19 109 17.2L110.2 17.6C110.2 19.8 109.8 20.2 108.9 20.2H106.1C105.2 20.2 105.1 19.6 105.1 19.2V16.8H103.7C103.5 18.3 102 19.9 99.6001 20.4L99.0001 19.1C101 18.9 102.1 18 102.5 16.8H100.2V9.5H109.2V16.8H106.4V18.7H106.3ZM107.9 10.6H101.4V11.6H107.9V10.6ZM107.9 12.6H101.4V13.6H107.9V12.6ZM107.9 14.7H101.4V15.8H107.9V14.7Z" fill="black"/>
<path d="M120.3 10.9999C119.3 11.6999 118.2 12.5999 117.2 13.3999C117.7 13.2999 118.3 13.0999 119 13.0999C120.7 13.0999 122.3 13.9999 122.3 16.1999C122.3 18.5999 120.3 19.7999 118 19.7999C115.9 19.7999 114.8 18.8999 114.8 17.6999C114.8 16.6999 115.7 15.8999 116.9 15.8999C117.8 15.8999 119.3 16.3999 119.8 18.0999C120.7 17.5999 121 16.7999 121 16.0999C121 15.1999 120.6 14.0999 118.6 14.0999C116.5 14.0999 115.1 15.2999 113.4 16.7999L112.6 15.6999C112.9 15.3999 115.1 13.7999 118.2 10.9999C116.8 11.0999 115.8 11.0999 113.8 11.1999V9.9999C116.6 9.9999 117.7 9.9999 120.3 9.8999V10.9999V10.9999ZM116.8 16.9999C116.2 16.9999 115.9 17.3999 115.9 17.6999C115.9 18.1999 116.5 18.6999 117.8 18.6999C118.1 18.6999 118.4 18.5999 118.7 18.5999C118.3 17.6999 117.8 16.9999 116.8 16.9999Z" fill="black"/>
<defs>
<linearGradient id="paint0_linear" x1="78.6" y1="-0.568897" x2="78.6" y2="35.4984" gradientUnits="userSpaceOnUse">
<stop stop-color="#EDEDED"/>
<stop offset="0.5" stop-color="#E9E9E9"/>
<stop offset="1" stop-color="#EAEAEA"/>
</linearGradient>
<linearGradient id="paint1_linear" x1="78.6" y1="-18.2301" x2="78.6" y2="26.058" gradientUnits="userSpaceOnUse">
<stop stop-color="#EDEDED"/>
<stop offset="0.5" stop-color="#E9E9E9"/>
<stop offset="1" stop-color="#CCCCCC"/>
</linearGradient>
</defs>
</svg>
